<svg width="20" height="20" fill="none" xmlns="http://www.w3.org/2000/svg"><path d="M0 1.433C0 .642.662 0 1.478 0h17.044C19.338 0 20 .642 20 1.433v17.135c0 .79-.662 1.432-1.478 1.432H1.478C.662 20 0 19.359 0 18.568V1.432z" fill="#069"/><path d="M6.078 16.737V7.733H3.086v9.004h2.993zM4.583 6.504c1.043 0 1.693-.691 1.693-1.556-.02-.883-.65-1.555-1.674-1.555S2.91 4.065 2.91 4.948c0 .864.65 1.556 1.654 1.556h.02zm3.152 10.233h2.992V11.71c0-.268.02-.538.1-.73.215-.538.708-1.094 1.535-1.094 1.082 0 1.516.825 1.516 2.036v4.816h2.992v-5.162c0-2.766-1.476-4.053-3.445-4.053-1.614 0-2.323.902-2.717 1.517h.02V7.733H7.735c.04.845 0 9.004 0 9.004z" fill="#fff"/></svg>