<svg width="125" height="32" fill="none" xmlns="http://www.w3.org/2000/svg"><path d="M41.663 23.82c-.905 0-1.708-.151-2.41-.453a3.754 3.754 0 01-1.653-1.385c-.4-.621-.6-1.4-.6-2.336 0-.788.139-1.452.416-1.994a3.55 3.55 0 011.144-1.32 5.386 5.386 0 011.68-.767 10.909 10.909 0 012.032-.36c.806-.074 1.456-.15 1.948-.23.493-.087.85-.207 1.071-.36a.777.777 0 00.342-.675v-.046c0-.474-.163-.84-.49-1.098-.326-.26-.766-.388-1.32-.388-.597 0-1.077.129-1.44.388a1.708 1.708 0 00-.693 1.07l-4.164-.147a4.92 4.92 0 01.951-2.308c.517-.684 1.225-1.22 2.124-1.607.905-.394 1.991-.59 3.26-.59a9.2 9.2 0 012.501.322c.764.21 1.428.517 1.994.924a4.17 4.17 0 011.312 1.477c.313.585.47 1.252.47 2.003v9.64h-4.247v-1.976h-.11c-.253.48-.576.886-.97 1.218a3.865 3.865 0 01-1.376.748 5.845 5.845 0 01-1.772.25zm1.394-2.955c.486 0 .923-.098 1.31-.295a2.42 2.42 0 00.943-.813c.234-.35.35-.757.35-1.219V17.19c-.129.068-.286.13-.47.185a8.082 8.082 0 01-.591.157c-.216.05-.437.092-.665.13-.228.036-.446.07-.656.1a4.08 4.08 0 00-1.09.315 1.72 1.72 0 00-.682.554 1.354 1.354 0 00-.231.794c0 .467.166.825.498 1.07.339.247.767.37 1.284.37zm14.357-5.373v8.087H52.9V9.399h4.294V12h.156a3.982 3.982 0 011.607-2.04c.757-.499 1.659-.748 2.705-.748.997 0 1.862.225 2.595.674a4.496 4.496 0 011.717 1.865c.412.794.615 1.724.61 2.788v9.04h-4.515v-8.153c.006-.788-.194-1.404-.6-1.847-.4-.443-.958-.665-1.672-.665a2.47 2.47 0 00-1.255.314 2.081 2.081 0 00-.831.878c-.191.381-.29.843-.296 1.385zm18.584 8.355c-1.496 0-2.78-.308-3.85-.923a6.245 6.245 0 01-2.456-2.567c-.573-1.102-.86-2.376-.86-3.822 0-1.453.287-2.727.86-3.823a6.292 6.292 0 012.465-2.576c1.07-.615 2.348-.923 3.832-.923 1.31 0 2.452.237 3.425.711.979.474 1.742 1.145 2.29 2.013.554.862.846 1.874.877 3.037h-4.22c-.086-.726-.332-1.295-.738-1.708-.4-.412-.924-.618-1.57-.618a2.23 2.23 0 00-1.376.443c-.394.29-.701.72-.923 1.293-.215.566-.323 1.268-.323 2.105s.108 1.545.323 2.123c.222.573.53 1.007.923 1.302.394.29.853.434 1.376.434.419 0 .788-.09 1.108-.268a2.13 2.13 0 00.803-.784c.21-.351.342-.776.397-1.275h4.22c-.043 1.17-.336 2.192-.877 3.066-.536.874-1.29 1.554-2.262 2.04-.967.48-2.115.72-3.444.72zm18.043-6.389v-8.06h4.506v14.181h-4.303v-2.64h-.147a4.124 4.124 0 01-1.607 2.068c-.75.505-1.659.757-2.724.757-.966 0-1.816-.221-2.548-.665a4.53 4.53 0 01-1.708-1.855c-.406-.8-.613-1.736-.619-2.807v-9.04h4.515v8.153c.006.77.21 1.376.61 1.82.4.442.944.664 1.634.664.45 0 .852-.098 1.21-.295.362-.204.649-.496.858-.878.215-.387.323-.855.323-1.403zm19.761-3.73l-4.146.11a1.55 1.55 0 00-.35-.784 1.895 1.895 0 00-.748-.545 2.553 2.553 0 00-1.053-.203c-.523 0-.969.105-1.339.314-.363.21-.541.493-.535.85-.006.276.105.516.332.72.234.203.65.366 1.247.489l2.733.517c1.415.27 2.468.72 3.157 1.348.696.628 1.047 1.459 1.053 2.493-.006.973-.296 1.819-.868 2.539-.566.72-1.342 1.28-2.327 1.68-.985.394-2.111.591-3.379.591-2.025 0-3.622-.415-4.792-1.246-1.163-.837-1.828-1.957-1.994-3.36l4.459-.112c.099.517.354.911.767 1.182.412.27.938.406 1.578.406.579 0 1.05-.107 1.413-.323.363-.215.548-.502.554-.858-.006-.32-.148-.576-.425-.767-.277-.197-.711-.35-1.301-.461l-2.475-.471c-1.422-.259-2.48-.736-3.176-1.431-.696-.702-1.04-1.595-1.034-2.678-.006-.948.246-1.757.757-2.428.511-.677 1.237-1.194 2.179-1.551.942-.357 2.053-.536 3.333-.536 1.921 0 3.435.403 4.543 1.21 1.108.8 1.72 1.902 1.837 3.305zm10.579-4.33v3.324h-8.947V9.398h8.947zM117.308 6h4.515v13.12c0 .277.043.502.129.674a.81.81 0 00.397.36c.173.068.379.102.619.102.172 0 .354-.016.545-.047a8.36 8.36 0 00.443-.092l.683 3.26c-.215.061-.52.138-.914.23a7.557 7.557 0 01-1.394.176c-1.059.049-1.967-.074-2.724-.37-.751-.301-1.326-.77-1.726-1.403-.394-.634-.585-1.431-.573-2.391V6zM3.053 5.522c-1.277.775-1.285 2.622-.014 3.406 3.435 2.118 8.976 5.531 10.164 6.237a.891.891 0 010 1.537c-1.204.7-6.872 4.12-10.378 6.237-1.287.777-1.286 2.64 0 3.418 3.08 1.863 7.712 4.66 8.748 5.26a2.854 2.854 0 002.852 0l11.383-6.573a2.853 2.853 0 001.426-2.474V9.43a2.852 2.852 0 00-1.426-2.474L14.43.382a2.854 2.854 0 00-2.852 0c-1.01.587-5.513 3.314-8.524 5.14z" fill="#1E1E1E"/></svg>