<svg width="80" height="54" fill="none" xmlns="http://www.w3.org/2000/svg"><path d="M38.961 19.428C38.961 8.698 30.265 0 19.534 0 8.804 0 1.015 8.398.106 19.09-1.28 35.403 11.112 49.062 26.16 53.407c-5.129-3.1-8.706-8.494-9.303-14.766a18.93 18.93 0 002.677.213c10.73 0 19.428-8.697 19.428-19.428zm41.039 0C80 8.698 71.303 0 60.572 0 49.843 0 42.054 8.398 41.145 19.09 39.758 35.403 52.15 49.062 67.197 53.407c-5.128-3.1-8.705-8.494-9.302-14.766.878.125 1.768.213 2.677.213C71.302 38.855 80 30.158 80 19.427z" fill="#FFC729"/></svg>