<svg width="50" height="50" fill="none" xmlns="http://www.w3.org/2000/svg"><path d="M.438 14.352A14.94 14.94 0 0114.352.438C17.973.191 21.797 0 25 0c3.203 0 7.027.19 10.648.438A14.94 14.94 0 0149.56 14.352c.25 3.621.44 7.445.44 10.648 0 3.203-.19 7.027-.438 10.648A14.94 14.94 0 0135.648 49.56c-3.622.25-7.445.44-10.648.44-3.203 0-7.027-.19-10.648-.438A14.94 14.94 0 01.438 35.648C.191 32.026 0 28.203 0 25c0-3.203.19-7.027.438-10.648z" fill="#1E1E1E"/><path d="M17.19 29.9l-3.59 3.59a2.058 2.058 0 002.91 2.91l3.59-3.59a12.003 12.003 0 01-2.91-2.91zM24 23h-2a.501.501 0 00-.5.5v2.47a6.287 6.287 0 003 2.76V23.5a.502.502 0 00-.5-.5zm8-3h-2a.501.501 0 00-.5.5v8.23a6.287 6.287 0 003-2.76V20.5a.501.501 0 00-.5-.5zm-4 1.5h-2a.501.501 0 00-.5.5v7.07a6.34 6.34 0 003 0V22a.501.501 0 00-.5-.5z" fill="#FFC729"/><path d="M27 13a10 10 0 100 20 10 10 0 000-20zm5.5 15.09a7.5 7.5 0 11-11-10.199 7.5 7.5 0 0111 10.2z" fill="#FFC729"/></svg>