<svg width="188" height="180" fill="none" xmlns="http://www.w3.org/2000/svg"><path fill-rule="evenodd" clip-rule="evenodd" d="M182.008 106.499c-2.896.07-5.753-.667-8.664-.406-.459.04-1.279-.113-1.367-.37-.866-2.551-3.759-2.245-5.381-3.896-1.438-1.461-1.565-2.617-.874-4.092 2.677-5.713 5.03-11.555 7.215-17.468.575-1.555 1.139-3.124 1.561-4.727.404-1.536 1.722-2.027 2.873-2.451 1.249-.46 1.397 1.051 2.061 1.698 3.115 3.034 3.206 7.142 4.116 10.965 1.173 4.93 2.231 9.893 3.563 14.781 1.109 4.071-.194 6.618-5.103 5.966zm-31.707-79.963c.089 2.096-1.255 3.558-3.605 3.833-3.273.383-6.544.828-9.828 1.052-3 .205-4.574-2.245-6.07-4.16-1.029-1.319-.328-3.21.733-4.785 3.549-5.272 6.185-11.027 8.598-16.887.421-1.021.861-1.962 2.182-2.132 1.429-.184 1.716.896 2.377 1.75 1.975 2.548 2.401 5.621 3.161 8.588 1.073 4.197 2.09 8.406 2.452 12.74zm-6.869 46.922c-.003 2.65.717 4.728-1.772 5.924-.591.284-1.113.669-1.731.562-2.782-.485-5.498-.33-8.039.93-1.986.986-3.103.216-4.578-1.235-2.832-2.788-2.901-3.91-1.117-7.36 2.851-5.514 6.081-10.88 7.853-16.907.257-.875.541-1.764.97-2.563.888-1.651 2.497-1.681 3.725-.283 2.588 2.947 2.882 6.655 3.431 10.242.58 3.785.904 7.609 1.258 10.69zm1.913 97.746c-2.812-.319-5.068-1.854-7.038-3.703-.713-.67-.637-2.034-.117-3.085 1.746-3.528 2.428-7.445 4.249-11.01.86-1.684 1.22-4.028 1.852-6.051.443-1.424 1.157-2.998 2.869-3.129 1.705-.131 2.606 1.434 3.327 2.65 1.842 3.111 2.458 6.69 3.187 10.166.796 3.803 1.307 7.669 1.867 11.519.223 1.539-.808 2.512-.658 3.906.08.743-.862.85-1.757.599-2.565-.72-5.184-1.254-7.781-1.862zM106.519 47.727c.006 2.483-1.289 3.642-4.009 3.15-2.227-.403-4.442-.177-6.614-.162-2.684.02-4.45-1.16-6.271-2.751-1.68-1.468-1.763-3.17-.802-4.91a100.018 100.018 0 007.552-17.351c.768-2.348 2.358-2.49 4.015-.632a11.859 11.859 0 012.478 4.283c1.948 6.03 3.041 12.238 3.651 18.373zM62.19 70.006c-1.916-.091-3.564-.03-5.23-.312-3.964-.67-5.222-1.85-4.574-5.755.828-4.992 1.408-10.054 2.99-14.9.333-1.02.69-2.09 1.297-2.954 1.068-1.518 2.41-1.974 3.951-.463 1.319 1.291 2.505 2.664 3.309 4.342 2.267 4.733 4.031 9.649 5.616 14.647.842 2.657-1.024 5.102-3.629 5.198-1.33.048-2.658.14-3.73.197zm41.121 79.415c-1.723.362-3.35.88-5.164.521-2.674-.527-5.675-4.522-4.828-7.011 1.88-5.526 3.013-11.249 4.72-16.816.388-1.27.66-2.69 2.341-2.894 1.69-.206 2.371 1.107 2.951 2.271 2.907 5.834 4.82 12.049 6.733 18.251.565 1.832-.08 3.282-1.948 4.336-1.566.883-3.401.267-4.805 1.342zM67.882 18.995c.272 4.832-1.882 7.017-6.734 7.957-2.543.493-4.355-.602-6.314-1.433-2.284-.97-3.14-2.7-2.47-5.432.86-3.513 2.383-6.737 3.652-10.068 1.038-2.725 2.045-5.45 2.943-8.223C59.672-.41 60.573-.331 62.396.68c3.154 1.747 3.787 4.66 4.26 7.673.551 3.525.829 7.093 1.225 10.642zM44.404 126.611c-.016-1.807.574-3.472 1.449-4.989 2.216-3.84 3.8-7.956 5.455-12.043 1.342-3.319 1.636-3.059 4.42-1.284 2.899 1.848 3.626 4.592 4.577 7.346a97.405 97.405 0 012.652 9.119c.671 2.802.103 3.378-2.58 4.301-2.478.851-4.759 2.206-7.488 2.384-1.303.085-1.892-.326-2.282-1.452-.353-1.017-1.122-.945-1.948-.601-2.237.928-4.26-.396-4.255-2.781zm17.888 53.386c-3.07-.333-5.736-.481-8.348-.938-4.296-.75-6.12-3.928-5.2-8.254.917-4.311 1.78-8.62 3.483-12.712 1.385-3.323 3.01-3.755 5.415-1.184a13.4 13.4 0 012.544 3.955c2.027 4.909 4.169 9.788 5.211 15.042.566 2.848-.557 4.162-3.105 4.091zM22.244 57.629c-.715-.669.334-2.421-1.282-2.868-.565-.156-.92.783-.712 1.328.387 1.013.032 2.505 1.422 2.902.68.194.573-.595.572-1.362zm6.3 4.443c.084 3.75-.81 4.403-4.016 4.342-1.824-.034-3.661.567-5.492.883-2.856.496-7.185-2.008-7.945-4.436-.25-.802-.224-1.403.093-2.123 2.215-5.037 4.379-10.096 6.612-15.123.977-2.195 2.105-2.37 3.929-.729 4.1 3.694 4.953 8.898 6.35 13.83.359 1.268.375 2.634.47 3.355zM0 107.791c.58-5.764 2.432-11.191 4.409-16.558.845-2.292 1.967-2.334 3.927-.803 1.749 1.365 2.715 3.208 3.04 5.284.769 4.926 1.398 9.877 1.989 14.83.248 2.089-1.068 3.159-3.167 3.591-3.349.69-6.015-.636-8.62-2.346-1.43-.939-1.404-2.521-1.578-3.998zm96.665-2.262c-.906-.075-1.949-.477-2.34-.135-1.38 1.206-3.06.379-4.576.931-1.62.589-4.087-3.398-3.892-5.388.29-2.95 2.839-4.816 3.251-7.777.408-2.924 1.577-5.745 2.461-8.595.257-.832.807-1.437 1.794-1.488 1.054-.056 1.612.42 2.093 1.372 2.662 5.281 4.078 11.019 6.11 16.529 1.122 3.042-1.672 4.114-4.901 4.551zm47.303 12.681c.698 3.095-2.714 4.778-4.969 4.208-1.049-.266-1.9-.615-3.171-.015-1.562.739-3.926 1.64-4.33-1.653-.032-.261-.709-.396-.997-.679-1.788-1.757-1.844-4.278-.206-6.275.367-.447.738-.943.919-1.479 1.238-3.66 3.956-6.736 4.227-10.782.07-1.048.459-2.024 1.655-2.213 1.201-.19 1.782.67 2.271 1.597.232.442.622.826.756 1.29 1.533 5.274 2.902 10.588 3.845 16.001z" fill="#01BE83"/></svg>