<svg width="183" height="200" fill="none" xmlns="http://www.w3.org/2000/svg"><path fill-rule="evenodd" clip-rule="evenodd" d="M167.003 29.483c.099 2.33-1.394 3.954-4.006 4.26-3.636.426-7.271.92-10.921 1.169-3.333.227-5.081-2.495-6.743-4.622-1.144-1.466-.365-3.567.814-5.317 3.943-5.858 6.872-12.253 9.553-18.764.468-1.135.958-2.18 2.425-2.368 1.588-.206 1.906.995 2.641 1.943 2.194 2.832 2.668 6.246 3.512 9.543 1.193 4.663 2.323 9.34 2.725 14.156zm-7.634 52.137c-.003 2.944.797 5.253-1.968 6.583-.657.315-1.237.743-1.924.623-3.091-.539-6.109-.366-8.932 1.034-2.207 1.096-3.448.24-5.087-1.373-3.146-3.097-3.223-4.343-1.241-8.177 3.168-6.127 6.757-12.088 8.725-18.786.286-.973.602-1.96 1.078-2.847.987-1.835 2.775-1.869 4.139-.316 2.876 3.275 3.203 7.395 3.813 11.381.644 4.206 1.004 8.454 1.397 11.878zm2.126 108.612c-3.125-.355-5.631-2.06-7.82-4.115-.792-.744-.708-2.26-.13-3.427 1.94-3.921 2.697-8.274 4.721-12.234.955-1.871 1.355-4.475 2.057-6.723.493-1.583 1.286-3.331 3.189-3.477 1.895-.145 2.896 1.593 3.697 2.944 2.046 3.457 2.731 7.433 3.54 11.296.885 4.225 1.452 8.521 2.075 12.8.248 1.709-.898 2.79-.731 4.339.089.825-.958.945-1.952.665-2.85-.8-5.76-1.393-8.646-2.068zM118.357 53.028c.007 2.76-1.432 4.047-4.455 3.5-2.474-.447-4.935-.197-7.349-.18-2.982.023-4.944-1.288-6.968-3.057-1.866-1.63-1.959-3.521-.891-5.455a111.095 111.095 0 008.392-19.28c.853-2.608 2.62-2.766 4.461-.701 1.261 1.413 2.186 2.999 2.753 4.758 2.165 6.701 3.379 13.599 4.057 20.415zM69.099 77.782c-2.13-.102-3.96-.034-5.81-.347-4.406-.745-5.803-2.055-5.083-6.395.92-5.546 1.564-11.172 3.322-16.555.37-1.135.767-2.322 1.441-3.283 1.186-1.687 2.677-2.193 4.39-.514 1.465 1.435 2.784 2.96 3.677 4.824 2.518 5.259 4.479 10.722 6.24 16.275.936 2.953-1.138 5.67-4.032 5.775-1.478.053-2.953.156-4.145.22zm45.691 88.243c-1.914.402-3.722.978-5.738.58-2.971-.586-6.305-5.025-5.364-7.791 2.089-6.139 3.347-12.499 5.243-18.685.432-1.41.735-2.988 2.603-3.216 1.878-.228 2.634 1.231 3.278 2.524 3.231 6.483 5.356 13.389 7.481 20.279.628 2.036-.088 3.648-2.164 4.818-1.74.982-3.779.297-5.339 1.491zM75.426 21.106c.303 5.369-2.09 7.796-7.481 8.841-2.826.549-4.84-.669-7.016-1.593-2.539-1.077-3.489-3-2.746-6.035.956-3.903 2.648-7.486 4.059-11.187 1.153-3.027 2.273-6.055 3.27-9.137.793-2.45 1.794-2.362 3.82-1.24 3.504 1.941 4.207 5.178 4.732 8.527.613 3.915.921 7.88 1.362 11.824zM49.34 140.685c-.018-2.008.637-3.859 1.61-5.543 2.463-4.267 4.223-8.841 6.061-13.383 1.491-3.687 1.818-3.398 4.912-1.425 3.22 2.053 4.029 5.101 5.085 8.162a108.171 108.171 0 012.946 10.132c.746 3.113.116 3.753-2.866 4.779-2.754.946-5.288 2.451-8.32 2.649-1.448.094-2.102-.362-2.536-1.613-.392-1.13-1.247-1.05-2.164-.669-2.486 1.032-4.733-.44-4.728-3.089zm19.875 59.312c-3.412-.37-6.373-.535-9.276-1.042-4.773-.834-6.8-4.365-5.778-9.171 1.02-4.791 1.978-9.578 3.87-14.124 1.54-3.694 3.345-4.173 6.017-1.317a14.911 14.911 0 012.827 4.395c2.252 5.454 4.632 10.875 5.79 16.714.629 3.164-.618 4.624-3.45 4.545zM24.717 64.035c-.795-.743.37-2.69-1.425-3.186-.628-.174-1.022.87-.791 1.475.43 1.125.035 2.783 1.58 3.224.755.215.637-.661.636-1.513zm7 4.936c.092 4.167-.9 4.893-4.463 4.825-2.027-.038-4.068.63-6.102.982-3.174.55-7.984-2.232-8.829-4.93-.277-.891-.249-1.559.104-2.359 2.46-5.596 4.865-11.218 7.347-16.804 1.085-2.438 2.338-2.633 4.365-.81 4.557 4.105 5.504 9.888 7.056 15.368.399 1.408.416 2.926.521 3.728zM0 119.774c.644-6.404 2.702-12.435 4.899-18.398.938-2.547 2.186-2.593 4.363-.893 1.943 1.518 3.017 3.565 3.377 5.871.856 5.475 1.555 10.975 2.21 16.479.277 2.322-1.185 3.509-3.518 3.99-3.72.767-6.684-.707-9.577-2.606-1.59-1.044-1.561-2.802-1.754-4.443zm107.405-2.518c-1.006-.082-2.164-.529-2.6-.149-1.533 1.34-3.398.421-5.084 1.034-1.8.655-4.54-3.775-4.324-5.986.321-3.278 3.154-5.352 3.612-8.642.454-3.248 1.753-6.382 2.735-9.55.285-.925.897-1.596 1.993-1.653 1.171-.063 1.791.466 2.325 1.524 2.958 5.868 4.532 12.244 6.789 18.366 1.247 3.381-1.857 4.572-5.446 5.056zm52.562 14.087c.775 3.439-3.016 5.31-5.521 4.676-1.167-.296-2.112-.684-3.524-.016-1.735.82-4.362 1.821-4.811-1.837-.036-.29-.788-.44-1.108-.754-1.986-1.953-2.049-4.754-.229-6.974.407-.496.821-1.047 1.022-1.643 1.374-4.067 4.395-7.484 4.696-11.98.078-1.164.511-2.249 1.839-2.459 1.334-.212 1.98.744 2.523 1.774.258.491.691.919.84 1.434 1.703 5.86 3.225 11.765 4.273 17.779z" fill="#fff"/></svg>