<svg width="24" height="20" fill="none" xmlns="http://www.w3.org/2000/svg"><path d="M15.804 1.004V1h1.038l.38.076a4.145 4.145 0 011.289.474c.193.106.368.214.525.325.156.11.296.225.42.348.122.123.313.155.573.096.26-.06.54-.144.839-.25.3-.107.596-.227.889-.36a9.95 9.95 0 00.535-.254l.1-.06.004-.005.02-.01.02-.01.02-.01.02-.01.004-.006.006-.004.006-.004.004-.006.02-.006.02-.004-.004.03-.006.03-.01.03-.01.03-.01.02-.01.02-.01.03a.693.693 0 00-.02.08c-.006.033-.07.166-.19.399a5 5 0 01-.45.71c-.179.239-.34.42-.483.543-.143.123-.239.21-.285.26a.858.858 0 01-.17.14l-.1.065-.02.01-.02.01-.004.006-.006.004-.006.004-.004.006-.02.01-.02.01-.004.006-.006.004-.006.004-.004.006-.004.006-.006.004-.006.004-.004.006h.1l.56-.12c.372-.08.729-.176 1.068-.29l.54-.18.06-.02.03-.01.02-.01.02-.01.02-.01.02-.01.04-.005.04-.004v.04l-.01.004-.01.006-.005.006-.006.004-.006.004-.004.006-.003.006-.007.004-.006.004-.003.006-.005.006-.006.004-.01.02-.01.02-.006.003-.253.34c-.167.224-.257.337-.27.34-.013.004-.032.024-.056.06-.023.037-.164.185-.423.445-.26.26-.514.49-.763.693-.25.204-.377.455-.38.752a17.5 17.5 0 01-.046 1.002 12.976 12.976 0 01-.49 2.677 13.444 13.444 0 01-1.249 2.997c-.239.413-.459.763-.658 1.049-.2.286-.403.556-.61.81a11.97 11.97 0 01-.783.854l-.52.52c-.03.029-.16.138-.39.327-.23.19-.476.381-.74.572a8.752 8.752 0 01-.723.473c-.22.127-.485.271-.795.433a9.457 9.457 0 01-1.003.456c-.36.14-.74.27-1.139.39-.4.12-.786.213-1.159.28a16.46 16.46 0 01-1.268.17l-.71.069V19H7.334v-.01l-.17-.01a8.79 8.79 0 01-.28-.02c-.073-.007-.35-.043-.829-.11-.48-.066-.855-.133-1.128-.2-.273-.066-.68-.193-1.219-.38-.54-.186-1-.374-1.384-.565a54.98 54.98 0 01-.72-.36 5.046 5.046 0 01-.323-.183l-.18-.11-.004-.006-.006-.004-.006-.004-.004-.006-.02-.01-.02-.01-.004-.006-.006-.004-.006-.004-.004-.006-.004-.006-.006-.004H1v-.04l.02.004.02.006.09.01c.06.007.223.017.49.03a8.964 8.964 0 002.876-.33 8.182 8.182 0 001.175-.403c.355-.157.608-.274.759-.352.15-.075.377-.217.683-.423l.46-.31.004-.006.006-.004.006-.004.004-.006.004-.006.006-.004.006-.004.004-.006.02-.006.02-.004.004-.02.006-.02.006-.004.004-.006-.16-.01-.31-.02a3.006 3.006 0 01-.47-.09 4.513 4.513 0 01-.689-.24 5.32 5.32 0 01-.719-.379 3.54 3.54 0 01-.505-.365 8.766 8.766 0 01-.4-.408 4.038 4.038 0 01-.423-.545 4.896 4.896 0 01-.344-.646l-.166-.363-.01-.03-.01-.03-.006-.02-.004-.02.03.004.03.006.22.03c.146.02.376.027.69.02.312-.007.529-.02.648-.04.12-.02.194-.033.22-.04l.04-.01.05-.01.05-.01.004-.006.006-.004.006-.004.004-.006-.04-.01-.04-.01-.04-.01-.04-.01-.04-.01a3.685 3.685 0 01-.14-.04 7.693 7.693 0 01-.539-.22 4.121 4.121 0 01-.7-.37 4.838 4.838 0 01-.495-.393 5.664 5.664 0 01-.513-.555 3.998 3.998 0 01-.5-.79 4.798 4.798 0 01-.33-.858 4.636 4.636 0 01-.143-.83l-.036-.419.02.004.02.006.02.01.02.01.02.01.02.01.31.14c.206.093.462.173.769.24.306.066.49.103.55.11l.089.01h.18l-.004-.007-.006-.004-.006-.004-.004-.006-.004-.006-.006-.004-.006-.004-.004-.006-.02-.01-.02-.01-.004-.006-.006-.004-.006-.004-.004-.006-.02-.01-.02-.01-.004-.006a24.838 24.838 0 01-.172-.127 2.62 2.62 0 01-.343-.326c-.12-.133-.24-.273-.36-.42a3.24 3.24 0 01-.32-.469 5.689 5.689 0 01-.295-.635 4.51 4.51 0 01-.324-1.543c-.007-.253 0-.47.02-.649.02-.18.06-.383.12-.61.06-.226.146-.465.26-.718l.17-.38.01-.03.01-.03.005-.004.004-.006.004-.006.006-.004.006.004.004.006.004.006.006.004.006.004.004.006.004.006.006.004.01.02.01.02.006.004.004.006.27.3c.18.2.393.423.64.669.246.246.382.374.409.384.026.01.06.04.1.091.04.05.173.168.4.354.226.186.522.403.888.65.366.246.773.489 1.219.728.446.24.926.457 1.438.65.513.193.873.32 1.08.38.206.06.558.136 1.058.23.5.092.876.152 1.129.179.253.027.426.042.52.046l.139.004-.004-.03-.006-.03-.04-.25c-.027-.166-.04-.4-.04-.699 0-.3.023-.576.07-.83.047-.252.117-.509.21-.768.093-.26.184-.468.273-.626.091-.155.21-.333.356-.533s.336-.406.57-.62c.232-.212.499-.402.799-.569.3-.166.575-.293.829-.38a4.07 4.07 0 01.639-.17 2.24 2.24 0 00.26-.045z" fill="#5DA8DC" stroke="#5DA8DC" stroke-width=".5"/></svg>