<svg width="130" height="120" fill="none" xmlns="http://www.w3.org/2000/svg"><path fill-rule="evenodd" clip-rule="evenodd" d="M42.592 56.336l3.246-3.208c-1.47.657-2.505 1.76-3.246 3.208zm66.777-31.908c-.78 1.092-1.391 1.95-2.006 2.804-.099.139-.713-.06-.283.403.109.118.565.13.582.085.404-1.085 1.986-1.493 1.707-3.292zm-5.45 1.708c.929-.696 2.763-.41 1.692-2.459-.705.67-1.661 1.066-1.692 2.46zm-.934.27c-1.299.754-2.136 1.649-3.295 2.007-.35.108-.849.32-.643.776.164.365.647.254 1.042.173 1.481-.3 2.346-1.228 2.896-2.956zM43.359 46.503l-.247-.379c-2.296.584-4.024 2.041-5.442 3.973l5.689-3.594zm68.984-26.056c.333-.98.462-1.538-.748-1.895-.64-.189-1.735.025-2.009-1.086-.046-.188-.391.048-.517.216-.096.129-.467.204-.132.478 1.094.898.688 1.818-.058 2.801.722-.397 1.679.399 2.176-.773.133-.314-.47-.998.316-.95.57.033.836.517.972 1.209zm-5.171 3.659c-.492-1.332.701-2.501-.624-3.516-.542-.416.382-.905.619-1.353 1.391-2.62 3.129-5.03 5.035-7.278.806-.95 2.27-.985 3.553-.778.301.049.679.224.64.654-.051.56-.516.216-.781.312-.367.133-.753.224-.962.72 1.054.494 2.002 1.155 3.316.87.928-.2.952.91 1.1 1.338.352 1.021 1.139 1.153 1.897 1.567.727.397 1.19 1.07 2.162.37.363-.263 1.187-.189 1.628.394-.399.67-1 .255-1.525.25.106 1.503 1.142 1.082 1.951 1.106.418.013.935-.211 1.16.368.25.641-.667.48-.701 1.063 1.259-.004 1.857.566.739 1.519-.763.65.264 1.442-.581 1.954-.128-.592-.633-.957-1.061-1.412-.688.575.29.921.201 1.422-.807.282-1.348-.839-2.188-.091.057-.757 1.507-1.886-.513-1.37-.659.167-1.37-.981-2.112.062-.191.268-.416-.278-.467-.442-.405-1.31-1.621-1.695-2.551-1.425-1.126.327-2.924.1-3.018 2.136-.023.499-.457 1.002-.763 1.461-.458.687-1.165 1.142-.524 2.26.312.546-.103 1.765-1.361 1.759-1.239-.005-1.835.627-1.433 1.816.251.742-.192.442-.477.678-1.106.913-3.053.1-3.684 1.963-.31.917-.599 1.393.789 1.082-1.512.942-3.045 1.853-4.53 2.838-.946.628-1.746.332-2.508-.254-.372-.286-.5-.695-1.19-.345-.678.343-1.479-.226-1.84-.818-.646-1.059-1.681-1.581-2.584-2.306-1.072-.863-2.008-.535-2.46.492-1.115 2.545-3.137 4.552-4.105 7.155-.403 1.083-2.124 1.342-1.733 2.877-.421.087-.882.091-1.253.276-.843.421-1.651.915-2.454 1.41-.732.45-1.366.626-1.805-.627.212 1.576-.523 1.788-1.673 1.714-.418-.028-.987.286-1.098-.239-.054-.257.232-1.04.92-.919.536.095 1.004.078.797-.588-.23-.74-.83-.157-1.096-.038-2.17.963-4.027.633-5.73-1.037-.711-.699-1.707-.574-2.414-.025-2.336 1.81-4.781 3.814-5.851 6.465-.703 1.737-1.95 2.96-2.692 4.567-.649 1.403-1.933 2.401-2.465 3.985-.465 1.379-4.025 2.192-5.28 1.225-2.254-1.739-5.178-2.612-6.785-5.194-.443-.711-.916-.411-1.356.034-.781.794-1.554 1.598-2.344 2.384-.409.407-.66.98-1.483.825-.829-.156-.852.72-1.082 1.231-.122.274.245.881-.039.92-1.652.22-1.085 1.897-1.853 2.681-.508.518-.477.507-1.548.73-.313.065-.597.476-.807.787-1.594 2.372-3.514 4.354-5.994 5.87-1.075.658-1.818.534-2.5-.17-1.379-1.425-3.236-2.026-4.839-3.056-.558-.36-.93-.411-1.222.361a21.021 21.021 0 01-4.122 6.77c-.38.418.056 1.314-.532 1.638-1.327.73-2.708 1.37-4.095 1.985-.358.16-.634-.084-.555-.544.085-.49-.105-.728-.623-.737-1.906-.03-2.698-1.364-1.878-3.213 1.191-2.688 2.429-5.355 3.623-8.04a468.272 468.272 0 003.521-8.063c.397-.936.83-1.852 1.519-2.582.777-.82 2.024-1.4 2.808-.56 1.415 1.518 3.51 2.3 4.498 4.226.616 1.201 1.024.656 1.579-.064 3.444-4.472 7.043-8.798 11.76-12.027.092-.063.176-.14.269-.2 5.634-3.671 6.771-2.454 10.56 1.939 1.849 2.143 1.3 2.65 3.36-.164 2.106-2.88 3.856-6.023 6.25-8.693 1.938-2.16 3.855-4.357 7.03-4.724 2.335-.269 4.29.74 6.124 1.877 3.035 1.883 5.216.678 7.144-1.886 2.094-2.785 3.935-5.758 5.947-8.607 2.339-3.315 4.226-3.465 7.573-.66.724.608 1.351 1.345 2.119 1.888 1.807 1.277 3.526 1.027 5.112-.49 1.498-1.43 3.151-2.697 4.456-4.33.198-.247.312-.877.849-.46.361.28.224.717.124 1.093-.271 1.028-.276 1.026 1.012 1.958zm-1.804 27.644l.205.442c1.495-.394 2.774-1.162 3.738-2.479-1.314.68-2.628 1.358-3.943 2.037zM62.17 76.256c-1.427.614-2.826 1.335-3.885 2.582 1.534-.457 2.815-1.317 3.885-2.582zm19.151-7.078c1.81-.176 3.974-1.564 5.071-3.055l-5.07 3.055zm6.61-11.161c.733-1.02 2.08-1.577 2.451-2.913-.892.903-2.73.978-2.45 2.913zm-57.95 32.86c1.82-.252 2.923-.779 3.408-2.614-1.221.913-2.4 1.297-3.407 2.615zm66.493-39.071c-1.282-.689-3.98.941-4.641 2.82 1.25-1.377 3.06-1.829 4.64-2.82zm-10.086 6.363c-2.964 2.486-6.117 4.625-9.668 6.437 2.19.643 8.688-3.731 9.668-6.437zm-22.535 9.517c-3.697 1.068-6.022 4.394-9.522 5.792-.372.149-.702.573-.479.938.28.458.797.26 1.186.033 1.642-.956 3.175-2.13 4.816-3.03 1.723-.946 2.728-2.415 3.952-3.76 2.115-.502 3.65-1.946 5.404-3.176-1.652-.83-4.08.686-5.357 3.203zm47.512-9.705c-2.953 1.797-5.908 1.881-8.875.026-.737-.46-1.612-.81-2.371-.312-1.974 1.292-4.347 1.744-6.212 3.33-2.866 2.434-5.386 5.278-8.582 7.321-1.21.774-2.436 1.522-3.677 2.296.06.724.76 0 1.005.393-.146.108-.273.28-.41.29-2.345.157-4.824 1.062-6.919-.591-.788-.623-1.745-.57-2.523-1.143-.275-.201-1.33.423-1.874.861-3.063 2.467-6.044 5.035-9.128 7.474-1.073.848-2.345 1.45-3.554 2.114-.514.282-.966.439-1.635-.067-.513-.385-1.542-1.22-2.227.07-.907-.62-2.078.558-3.04-.654-1.092-1.372-2.266-.774-3.647.19-1.907 1.33-2.32 3.702-4.14 4.98-.374.263-.507.708-.56 1.176-.038.327-.08.865-.261.933-1.72.647-1.058 2.458-1.804 3.554-1.19 1.744-2.325 3.545-4.221 4.653-.591.345-.563.36-.67 1.284-.019.16-.271.324-.45.428-1.224.718-1.878.555-3.71-.55-.35-.212-1.028.13-1.557.2-1.832.247-2.778-1.511-4.323-1.921-.286-.076-.777-.527-.809-.136-.131 1.64-2.146 2.142-2.171 3.822-.01.533-.277 1.073-.48 1.589-.222.565-.493 1.257-1.117 1.325-.531.058-.766-.61-.888-1.082-.245-.948-1.6-.381-1.839-1.609-.274-1.407-.121-2.74.287-3.948 1.004-2.969.954-6.028 1.146-9.07.055-.872.149-1.5 1.08-1.804.872-.286 1.387-.064 2.177.516 1.555 1.139 2.61 2.616 3.69 4.11.603.834 1.37.996 2.2.596 1.988-.953 3.808-2.095 4.607-4.353 1.465-4.15 4.471-7.217 7.304-10.424.668-.757 1.197-1.723 1.787-2.595.679-1.004 1.63-1.652 2.759-1.99 1.194-.357 2.065.126 2.904 1.079 2.295 2.602 3.74 2.668 6.56.597 3.023-2.22 5.977-4.553 9.144-6.546 1.463-.92 2.69-2.23 4.455-2.746 1.494-.437 2.893-.612 4.083.464 1.288 1.164 2.522.904 3.836.202a51.887 51.887 0 009.875-6.825c2.303-2.027 4.692-3.954 7.307-5.544 1.965-1.196 4.17-1.753 6.367-.521 1.836 1.03 3.496.695 5.23-.233 4.357-2.332 8.156-5.443 11.966-8.533 4.447-3.605 8.563-7.61 13.214-10.97 1.104-.797 2.166-1.707 3.737-1.5-.188 1.198-1.118 1.504-1.844 1.937a22.662 22.662 0 00-4.327 3.337c-.166.163-.508.434-.218.686.322.278.436-.073.697-.282 1.767-1.425 3.218-3.332 5.604-3.855.591-.13 1.346-.706 1.314.608-.012.472.519.25.794.356.267.104.695.303.56.478-.529.684-.201 1.785-.769 2.22a39.019 39.019 0 00-6.094 5.817c-1.984 2.367-4.83 4.037-5.986 7.092-2.002.419-1.836 3.107-3.975 3.62-1.388.332-1.963 2.123-2.794 3.248-1.615 2.19-3.811 3.334-6.037 4.547.856-1.417 2.599-1.816 3.555-3.13-1.725 1.262-3.669 2.135-5.514 3.255.759.434 1.275-.868 1.988-.14zm-34.107 44.924c-1.46-.844-1.46-.844-2.427.971l2.427-.971zm-14.124-7.677c-.361.564-.733.995-.298 1.538.44.549 1.06.67 2.218.444-1.29-.33-1.35-1.247-1.92-1.981zm74.65-28.428c-1.408.4-2.419 1.38-3.526 2.207 1.101-.849 3.174.066 3.526-2.208zm-8.014 8.806l.104.244c1.531-.634 3.064-1.262 4.588-1.913.094-.04.196-.295.154-.383a.51.51 0 00-.702-.246c-1.392.746-2.765 1.528-4.144 2.298zm7.001.54c-2.093 1.097-4.331 1.883-6.47 2.884 2.503-.218 4.48-1.567 6.47-2.884zM75.491 96.02c-.956.399-1.927.766-2.855 1.22-.252.123-.918-.183-.736.557.135.545.502.584.992.612 1.565.089 1.95-1.26 2.599-2.39zm38.453-24.175c1.505.774 2.726-.328 4.067-.683.313-.083.41-.35.35-.649-.049-.236-.279-.45-.461-.31-1.182.912-3.062.101-3.956 1.642zm17.982-1.329c-.498-.004-5.333 1.428-5.745 1.697-.188.123-.42.254-.282.506.095.175.286.368.469.416 1.304.337 4.743-1.3 5.558-2.619zM101.123 92.06c.73.125 1.39-.64 2.149.036-.659.782-1.512 1.116-2.439 1.235-.503.066-.971.115-1.409.41-1.038.702-1.9.943-2.352-.685-.206-.743-3.307-1.402-4.143-.994-1.04.506-2.42.827-3.085 1.486-1.786 1.767-4.234 2.978-5.196 5.514-.186.49-.634.55-.977.804-1.263.938-3.102 1.202-3.49 3.199-.154.781-.694-.576-1.335-.019-.722.626-1.762.915-2.696 1.26-2.288.845-3.768.591-4.784-1.508-.662-1.368-1.097-.681-1.8-.283.097-.783.59-1.658-.822-1.379-.923.182-1.242-.841-1.837-1.28-.418-.307.282-.29.488-.44.359-.258.78-.553.718-1.114-.515.075-.632-.99-1.388-.415-.476.361-1.143.201-1.816-.071.823 1.135-.006 2.241.18 3.365.137.838.026 1.75.486 2.525.313.529-.048.916-.313.646-.783-.801-2.157-.625-2.693-1.786-.21-.455.034-.599.266-.813.238-.219 1.12-.188.699-.569-.819-.737-.807-1.701-1.166-2.558-.803 1.31-.997-.492-1.642-.37-.152.03-.604-.99.09-1.174 1.792-.476 1.24-1.841.896-2.73-.537-1.388-.005-2.254.827-3.177.676.147.136 1.474 1.206 1.251.868-.18.543-.996.817-1.491.148-.27.365-.629.019-.91-.342-.275-.65.043-.903.194-1.347.806-1.604-.625-1.403-1.02.644-1.266.658-2.781 1.596-3.902.994-1.188 1.934-1.073 2.593.298.068.142.2.282.338.356 2.987 1.618 3.297 4.66 3.905 7.49.519 2.42.63 2.496 2.836 1.276 2.569-1.42 4.636-3.463 6.828-5.348 2.523-2.17 4.957-4.456 7.848-6.14 2.294-1.337 4.652-1.555 6.894.14 1.172.886 2.145.754 3.298-.106 3.84-2.863 7.103-6.338 10.446-9.723 1.646-1.665 3.498-3.108 5.36-4.446 2.182-1.567 4.873-1.649 7.216-.157 2.183 1.39 4.206 1.302 6.463.32 6.321-2.757 11.993-6.596 17.64-10.472 5.826-3.997 11.458-8.262 17.008-12.634.304-.24.642-.465 1.001-.596.578-.213 1.333-.443 1.694.13.287.457-.453.788-.72 1.186-.255.379-1.09.604-.665 1.147.45.576.964-.13 1.454-.288.668-.215 1.989-1.52 1.371.734-.03.108.076.311.181.391 1.97 1.51 1.683 3.376-.408 4.943-1.451 1.087-2.836 2.362-4.079 3.676-2.434 2.57-5.22 4.723-7.848 7.05-4.591 4.066-9.401 7.888-14.527 11.283-2.991 1.982-6.199 3.495-9.699 4.337-.56.135-1.08.27-1.425.818.539.317 1.111.375 1.705.331-.963.075-1.941.381-2.844-.321-.379-.294-.773-.15-1.222-.101-.606.064-1.669.275-1.436-1.036.017-.097-.018-.205-.029-.308-1.241.71-1.229-1.063-2.069-1.056-1.066.01-1.995-.308-2.896-.85-.673-.403-1.409-.18-2.047.106-.561.25-1.048 1.348-1.555-.044-.008-.023-.421.037-.586.148-.3.202-.211.535-.019.726.551.544.595 1.188-.009 1.549-.958.574-1.279 1.871-2.451 2.108-.61.123-.517-.763-1.101-.973-.142.94-1.549 1.477-.665 2.69.032.044-.068.273-.129.284-1.069.19-1.042.759-1.034 1.76.009 1.064-1.347 1.49-2.165 2.135-.128.1-.358.254-.338.334.526 2.192-1.668 1.266-2.372 2.051-.215.24-.524.013-.819-.25-1.187-1.06-1.929-.868-2.572.453-.242.499-.707.89-1.098 1.362z" fill="#FFC729"/></svg>