<svg width="237" height="180" viewBox="0 0 237 180" fill="none" xmlns="http://www.w3.org/2000/svg">
<path d="M218.879 69.5881C217.68 60.3528 216.48 51.1176 215.28 41.8846C201.346 73.0338 187.715 104.321 174.021 135.576C167.726 149.945 158.598 178.193 139.181 179.92C123.619 181.305 114.665 164.308 108.68 152.738C102.483 140.76 97.2271 128.306 91.4422 116.128C88.2258 109.357 76.246 77.0329 66.4699 78.6284C59.2958 79.7993 54.0408 103.006 52.5114 108.411C48.8119 121.48 47.7813 135.65 42.9889 148.359C32.908 175.097 4.40508 176.628 -16.547 161.062C-25.7646 154.213 -14.5059 143.026 -6.34992 149.085C0.196304 153.948 10.1171 159.135 17.999 154.945C28.9238 149.14 29.2662 129.908 31.6704 119.395C33.9608 109.379 36.4471 99.2711 40.1375 89.6683C44.5403 78.2159 51.6344 63.9923 65.6084 63.2646C82.5853 62.381 93.0714 81.8976 99.7401 94.472C110.538 114.834 117.665 137.721 130.402 156.994C137.899 168.339 140.728 162.724 146.796 152.442C154.326 139.677 159.404 125.291 165.325 111.723C176.51 86.0965 187.8 60.5099 199.239 34.9957C191.804 40.8496 184.37 46.704 176.935 52.5579C169.124 58.7081 157.2 46.2009 165.808 39.4227C181.87 26.7753 197.932 14.1297 213.992 1.48225C218.689 -2.21498 227.372 1.47781 228.133 7.3407C230.767 27.6164 233.402 47.8922 236.035 68.1702C237.446 79.0283 220.163 79.4642 218.88 69.5881H218.879Z" fill="#01BE83"/>
</svg>
