<svg width="153" height="123" viewBox="0 0 153 123" fill="none" xmlns="http://www.w3.org/2000/svg">
<path fill-rule="evenodd" clip-rule="evenodd" d="M134.235 101.895C135.858 98.3587 137.482 94.4851 139.421 90.7761C140.098 89.4791 141.165 88.497 140.187 86.9938C139.985 86.685 139.702 86.2139 139.431 86.2004C134.844 85.9727 130.828 83.7645 126.496 82.6763C123.594 81.9479 120.623 81.7446 117.773 83.0791C117.204 83.3457 116.832 84.0549 116.37 84.56C116.869 84.9947 117.297 85.6362 117.879 85.8305C122.108 87.243 126.354 88.6084 130.625 89.892C131.965 90.2948 131.916 90.8843 131.455 92.0269C130.394 94.6635 129.539 97.3806 128.508 100.03C128.068 101.162 127.402 102.208 126.827 103.288C126.779 103.378 126.584 103.403 126.557 103.489C126.268 104.379 125.542 105.841 125.813 106.062C126.593 106.701 127.771 107.124 128.8 107.122C131.982 107.115 132.652 104.194 134.235 101.895Z" fill="#FFC729"/>
<path fill-rule="evenodd" clip-rule="evenodd" d="M76.2042 85.9686C76.0621 86.0772 75.9186 86.1858 75.7766 86.2944L72.9723 81.7294C73.1478 81.6188 73.3234 81.5092 73.4985 81.3992C74.4001 82.9219 75.3025 84.4459 76.2042 85.9686ZM46.0144 64.974C45.8963 65.0493 45.7782 65.1246 45.6601 65.1999C43.9478 62.9492 42.2357 60.6979 40.523 58.4464C40.6855 58.3211 40.8486 58.1961 41.0107 58.0713C42.6787 60.372 44.3464 62.6733 46.0144 64.974ZM75.2886 63.7732C76.5642 62.2514 77.8112 60.7038 79.125 59.2156C79.9364 58.2963 80.7532 58.3942 81.6722 59.2174C84.5501 61.798 85.3242 66.1082 83.6271 69.7925C81.7777 73.8087 78.2497 74.9368 74.3807 75.4752C74.078 75.5176 73.4533 74.7952 73.3495 74.3388C72.4981 70.5797 73.5697 67.1612 75.2886 63.7732ZM57.1456 70.8982C47.9266 66.1219 42.2906 58.3624 38.7207 48.7828C34.6567 37.8771 33.1494 26.5073 32.7506 14.9176C32.6298 11.4077 32.5988 7.89202 32.3936 4.38871C32.3393 3.44873 32.0104 2.33652 31.4017 1.69228C30.9818 1.2476 29.8644 1.47137 29.0583 1.39736C29.0397 1.89245 28.9972 2.38963 29.0071 2.8837C29.0346 4.21522 29.1946 5.55244 29.1043 6.87546C28.8119 11.1817 28.3583 15.4786 28.11 19.7859C27.9427 22.6892 27.8998 25.6099 28.026 28.5103C28.1061 30.3421 28.6942 32.1406 28.8881 33.9735C29.1959 36.8783 29.0935 39.8576 29.6566 42.7014C30.532 47.1283 31.4375 51.6176 33.0121 55.8143C36.493 65.0916 42.5936 72.1106 51.6246 76.49C55.8271 78.5281 59.9031 80.7081 64.6384 81.2837C65.1561 81.3464 65.7844 82.0649 66.0086 82.625C68.2621 88.2699 72.0202 92.689 77.0187 95.9433C80.7589 98.379 84.5568 100.936 88.6906 102.49C92.158 103.795 96.1324 104.032 99.9107 104.182C103.27 104.313 106.7 103.884 110.042 103.331C114.803 102.543 119.079 100.411 122.841 97.3527C123.381 96.9136 123.589 95.6546 123.448 94.8728C123.291 94.0036 122.425 93.8891 121.416 93.7998C118.256 93.5209 115.891 95.326 113.359 96.6109C108.563 99.0463 103.536 99.2437 98.5799 98.0602C90.1239 96.0414 83.3832 91.0735 77.8137 84.5322C74.8057 80.9979 74.9321 80.8611 79.2566 79.6618C84.9482 78.0839 89.4121 74.8838 92.0861 69.5C95.1896 63.251 92.626 56.1774 86.385 53.2397C84.4258 52.318 82.487 52.761 80.5793 53.2669C76.2461 54.4167 72.763 56.9389 70.0372 60.4927C67.2168 64.1685 64.8737 68.073 64.6271 72.8877C64.5674 74.0502 63.9082 74.2005 62.9378 73.711C61.0212 72.7449 59.0777 71.8328 57.1456 70.8982Z" fill="#FFC729"/>
</svg>
