<svg width="60" height="60" viewBox="0 0 60 60" fill="none" xmlns="http://www.w3.org/2000/svg">
<path d="M0.711233 14.6599C1.27784 7.17939 7.17939 1.27784 14.6599 0.711233C19.7073 0.32892 25.3895 0 30 0C34.6105 0 40.2927 0.32892 45.3401 0.711233C52.8206 1.27784 58.7222 7.17939 59.2888 14.6599C59.6711 19.7073 60 25.3895 60 30C60 34.6105 59.6711 40.2927 59.2888 45.3401C58.7222 52.8206 52.8206 58.7222 45.3401 59.2888C40.2927 59.6711 34.6105 60 30 60C25.3895 60 19.7073 59.6711 14.6599 59.2888C7.17939 58.7222 1.27784 52.8206 0.711233 45.3401C0.32892 40.2927 0 34.6105 0 30C0 25.3895 0.32892 19.7073 0.711233 14.6599Z" fill="#01BE83"/>
<path d="M44.243 30C44.243 31.5184 44 32.9761 43.5445 34.3732L37.41 31.4576C37.5011 31.0022 37.5619 30.5163 37.5619 30C37.5619 26.5077 35.1629 23.5922 31.9437 22.7722L31.9439 16C38.868 16.8806 44.2433 22.833 44.2433 30H44.243ZM28.2993 22.7722V16C21.3753 16.8806 16 22.833 16 30C16 37.167 21.3753 43.1193 28.2993 44L28.2991 37.2278C25.0801 36.4078 22.6809 33.4922 22.6809 30C22.6809 26.5078 25.0799 23.5922 28.2991 22.7722H28.2993ZM35.8612 34.7375C34.859 35.9219 33.4924 36.833 31.9437 37.1973V43.9696C36.165 43.423 39.7789 41.0238 41.9958 37.6225L35.8612 34.7375Z" fill="white"/>
</svg>
