<svg width="12" height="10" viewBox="0 0 12 10" fill="none" xmlns="http://www.w3.org/2000/svg">
<path d="M3.73128 6.30337L2.45092 4.46787C2.02698 3.86014 1.18289 3.70973 0.575148 4.13368H0.575128C-0.0326024 4.5576 -0.183009 5.40169 0.240937 6.00945L2.62337 9.42486C3.0473 10.0326 3.89142 10.183 4.49917 9.75907C4.67197 9.63853 4.80639 9.48333 4.90254 9.30993L4.90363 9.31048C4.90363 9.31048 4.9066 9.3038 4.90902 9.29839C4.93967 9.24184 4.96678 9.1837 4.98898 9.12374C5.47922 8.06868 8.07541 2.73836 11.7015 0C11.7015 1.63142e-07 7.13533 0.115337 3.73128 6.30337Z" fill="white"/>
</svg>
