<svg width="12" height="12" viewBox="0 0 12 12" fill="none" xmlns="http://www.w3.org/2000/svg">
<path d="M0.413208 0.413208C0.964153 -0.137736 1.85754 -0.137736 2.40848 0.413208L6 4.00473L9.59152 0.413208C10.1425 -0.137736 11.0358 -0.137736 11.5868 0.413208C12.1377 0.964153 12.1377 1.85754 11.5868 2.40848L7.99527 6L11.5868 9.59152C12.1377 10.1425 12.1377 11.0358 11.5868 11.5868C11.0358 12.1377 10.1425 12.1377 9.59152 11.5868L6 7.99507L2.40848 11.5866C1.85754 12.1375 0.964153 12.1375 0.413208 11.5866C-0.137736 11.0356 -0.137736 10.1423 0.413208 9.59132L4.00473 5.9998L0.413208 2.40828C-0.137736 1.85733 -0.137736 0.963952 0.413208 0.413007V0.413208Z" fill="white"/>
</svg>
