<svg width="10" height="10" viewBox="0 0 10 10" fill="none" xmlns="http://www.w3.org/2000/svg">
<path d="M0.530274 0.530518C0.97103 0.0897623 1.68574 0.0897623 2.12649 0.530518L4.99971 3.40373L7.87292 0.530518C8.31368 0.0897623 9.02839 0.0897623 9.46914 0.530518C9.9099 0.971274 9.9099 1.68598 9.46914 2.12674L6.59592 4.99995L9.46914 7.87317C9.9099 8.31392 9.9099 9.02863 9.46914 9.46939C9.02839 9.91014 8.31368 9.91014 7.87292 9.46939L4.99971 6.59601L2.12649 9.46922C1.68574 9.90998 0.97103 9.90998 0.530274 9.46922C0.0895181 9.02847 0.0895181 8.31376 0.530274 7.87301L3.40349 4.99979L0.530274 2.12657C0.0895181 1.68582 0.0895181 0.971112 0.530274 0.530357V0.530518Z" fill="#1E1E1E"/>
</svg>
