<svg width="60" height="60" viewBox="0 0 60 60" fill="none" xmlns="http://www.w3.org/2000/svg">
<path d="M0.711233 14.6599C1.27784 7.17939 7.17939 1.27784 14.6599 0.711233C19.7073 0.32892 25.3895 0 30 0C34.6105 0 40.2927 0.32892 45.3401 0.711233C52.8206 1.27784 58.7222 7.17939 59.2888 14.6599C59.6711 19.7073 60 25.3895 60 30C60 34.6105 59.6711 40.2927 59.2888 45.3401C58.7222 52.8206 52.8206 58.7222 45.3401 59.2888C40.2927 59.6711 34.6105 60 30 60C25.3895 60 19.7073 59.6711 14.6599 59.2888C7.17939 58.7222 1.27784 52.8206 0.711233 45.3401C0.32892 40.2927 0 34.6105 0 30C0 25.3895 0.32892 19.7073 0.711233 14.6599Z" fill="#FFC729"/>
<path d="M22.1557 27.5749C22.1557 25.1346 24.1344 23.1561 26.5745 23.1561C28.4871 23.1561 30.136 24.4093 30.7295 26.1238L36.1047 20.7486L33.5325 18.1765C33.2358 17.8798 32.741 17.8798 32.4443 18.1765L31.1911 19.4297C30.5317 19.0669 29.839 18.7702 29.0807 18.5723L29.0809 16.7915C29.0809 16.3298 28.7181 16 28.2894 16H24.86C24.3983 16 24.0685 16.3299 24.0685 16.7915V18.5721C23.3101 18.7699 22.6175 19.0666 21.958 19.4294L20.7048 18.1763C20.4081 17.8795 19.9134 17.8795 19.6166 18.1763L17.2094 20.5835C16.9127 20.8802 16.9127 21.375 17.2094 21.6717L18.4626 22.9248C18.0998 23.5843 17.8031 24.2769 17.6052 25.0353L15.7915 25.0356C15.3298 25.0356 15 25.3983 15 25.827V29.2236C15 29.6853 15.3299 30.0151 15.7915 30.0151H17.5721C17.7699 30.7735 18.0666 31.4661 18.4294 32.1256L17.1763 33.3787C16.8464 33.6755 16.8795 34.1702 17.1763 34.467L19.7484 37.0391L25.1236 31.6639C23.3759 31.136 22.1559 29.4872 22.1559 27.5748L22.1557 27.5749Z" fill="white"/>
<path d="M24.9829 36.3589L36.7348 24.6069L41.7947 29.6668L30.0428 41.4187L24.9829 36.3589Z" fill="white"/>
<path d="M45.9977 23.9807L42.4694 20.4192C42.0406 19.9905 41.3811 19.9905 40.9523 20.4192L38.644 22.7275L43.7223 27.8057L46.0306 25.4975C46.4264 25.0689 46.4264 24.3766 45.9977 23.9807H45.9977Z" fill="white"/>
<path d="M21.7931 39.5785C21.6613 39.7103 21.5622 39.9083 21.4964 40.1061L20.4411 44.6896C20.2761 45.448 20.9687 46.1406 21.7271 45.9757L26.3108 44.9203C26.5087 44.8874 26.6736 44.7885 26.8385 44.6236L28.1574 43.3047L23.1123 38.2593L21.7931 39.5785Z" fill="white"/>
</svg>
