<svg width="22" height="22" viewBox="0 0 22 22" fill="none" xmlns="http://www.w3.org/2000/svg">
<path fill-rule="evenodd" clip-rule="evenodd" d="M21.56 11.25C21.56 10.47 21.49 9.72 21.36 9H11V13.255H16.92C16.665 14.63 15.89 15.795 14.725 16.575V19.335H18.28C20.36 17.42 21.56 14.6 21.56 11.25Z" fill="#4285F4"/>
<path fill-rule="evenodd" clip-rule="evenodd" d="M10.9999 21.9999C13.9699 21.9999 16.46 21.0149 18.28 19.3349L14.725 16.5749C13.7399 17.2349 12.4799 17.6249 10.9999 17.6249C8.13494 17.6249 5.70993 15.6898 4.84493 13.0898H1.16992V15.9399C2.97993 19.5349 6.69993 21.9999 10.9999 21.9999Z" fill="#34A853"/>
<path fill-rule="evenodd" clip-rule="evenodd" d="M4.84501 13.0896C4.62501 12.4296 4.50001 11.7246 4.50001 10.9996C4.50001 10.2746 4.62501 9.56958 4.84501 8.90958V6.05957H1.17C0.425001 7.54457 0 9.22458 0 10.9996C0 12.7746 0.425001 14.4546 1.17 15.9396L4.84501 13.0896Z" fill="#FBBC05"/>
<path fill-rule="evenodd" clip-rule="evenodd" d="M10.9999 4.37501C12.6149 4.37501 14.0649 4.93001 15.205 6.02001L18.36 2.86501C16.455 1.09 13.9649 0 10.9999 0C6.69993 0 2.97993 2.46501 1.16992 6.06001L4.84493 8.91002C5.70993 6.31001 8.13494 4.37501 10.9999 4.37501Z" fill="#EA4335"/>
</svg>
