<svg width="87" height="130" viewBox="0 0 87 130" fill="none" xmlns="http://www.w3.org/2000/svg">
<path fill-rule="evenodd" clip-rule="evenodd" d="M33.8053 27.714C33.7774 27.5118 33.7494 27.3109 33.7215 27.1088C28.6252 27.689 23.5301 28.2692 18.4338 28.8495C18.4691 29.1028 18.5043 29.3548 18.5384 29.6069C23.6274 28.9755 28.7163 28.3454 33.8053 27.714ZM6.02016 65.0378C2.87024 63.5216 1.50135 61.5675 0.855801 58.9047C-2.71719 44.1154 4.7777 25.8996 25.6029 25.2882C35.4879 24.9974 43.3402 21.4311 48.0377 11.9114C49.6741 8.59722 51.7347 5.44645 53.9911 2.53901C55.0184 1.21506 56.9526 0.115724 58.55 0.000923638C59.3123 -0.0539808 60.8197 2.35183 60.9814 3.76562C61.2489 6.11404 61.3863 8.93039 60.376 10.8982C57.3999 16.6944 54.1965 22.4494 50.3913 27.6902C46.8682 32.543 41.7634 34.8678 35.7675 36.3252C29.7558 37.7852 23.642 36.5673 17.6631 38.7285C12.1 40.7388 5.62505 50.5891 5.99463 56.832C6.14416 59.3564 6.02016 61.8982 6.02016 65.0378Z" fill="#325AFE"/>
<path fill-rule="evenodd" clip-rule="evenodd" d="M21.1944 82.4232C21.0419 80.4158 20.3678 78.2846 20.8241 76.4202C23.029 67.396 35.6283 60.5031 44.084 64.5142C55.6001 69.9764 64.0194 65.7258 72.2136 58.211C74.9886 55.6663 78.2162 53.5172 81.5067 51.648C82.4349 51.1203 85.1893 51.822 85.5814 52.6559C86.437 54.4691 87.335 57.7297 86.4165 58.6434C80.9887 64.0377 75.5417 69.6773 69.141 73.7862C62.2344 78.2214 54.2423 79.7368 46.1425 75.5279C42.5397 73.6563 38.9104 71.7395 34.4169 72.8784C29.5701 74.1066 26.0339 76.7371 23.593 80.9519C23.2844 81.4868 22.8693 81.9622 22.5038 82.4661C22.0669 82.4518 21.63 82.4375 21.1944 82.4232Z" fill="#325AFE"/>
<path fill-rule="evenodd" clip-rule="evenodd" d="M76.1585 121.085C76.121 120.839 76.0834 120.594 76.0447 120.35H52.6456C52.642 120.594 52.6396 120.839 52.636 121.085H76.1585ZM20.668 110.997C20.7745 108.624 20.8496 106.955 20.9247 105.285C23.5134 109.208 26.05 105.679 28.3591 105.533H24.6286C23.7495 103.833 28.7562 104.561 25.0257 102.073C29.7394 101.273 34.01 99.7676 37.4257 103.342C38.9077 104.895 41.9783 105.801 41.804 109.592C41.936 109.691 43.1468 110.182 43.7086 111.077C48.2286 118.294 55.2792 118.879 62.733 118.532C66.7904 118.342 70.8902 117.75 74.892 118.144C77.9335 118.444 80.9545 119.781 83.7903 121.08C86.5134 122.328 86.7398 125.301 86.8029 127.805C86.8209 128.547 84.4998 130.078 83.3386 129.997C75.7722 129.474 68.2301 128.606 60.6213 128.098C62.3019 127.985 63.9801 127.874 65.6607 127.762C65.6801 127.583 65.697 127.403 65.7164 127.225C64.9524 127.108 64.1484 127.106 63.4352 126.851C62.159 126.397 60.8889 125.883 59.7108 125.225C58.4128 124.5 57.2225 123.583 55.7017 123.374C56.2672 124.517 56.8314 125.661 57.1378 126.28C55.5988 126.716 54.7476 127.084 53.8722 127.166C53.0016 127.247 51.8441 127.364 51.2629 126.902C48.6814 124.848 45.5781 123.704 43.8382 120.247C41.6672 115.931 38.197 112.258 35.2171 108.361C34.803 107.818 33.9652 107.224 33.3573 107.259C30.0094 107.451 26.6518 107.713 23.3427 108.233C22.5798 108.352 21.9914 109.579 20.668 110.997Z" fill="#325AFE"/>
</svg>
