<svg width="285" height="180" viewBox="0 0 285 180" fill="none" xmlns="http://www.w3.org/2000/svg">
<path fill-rule="evenodd" clip-rule="evenodd" d="M240.212 2.55245C240.237 2.64728 240.26 2.74212 240.285 2.83601H254.883C254.876 2.74212 254.87 2.64728 254.863 2.55245H240.212ZM97.8586 116.278C102.758 111.454 108.12 106.994 110.718 100.357C106.432 105.665 102.146 110.971 97.8586 116.278ZM122.983 61.3025C122.983 60.356 123.06 59.402 122.971 58.464C121.551 43.3443 109.168 39.439 98.109 42.5192C94.5031 43.5226 91.4652 45.481 88.5611 47.6167C85.9728 49.5191 83.3978 51.6245 81.3975 54.1082C76.4059 60.3086 73.5586 67.6129 72.0307 75.3553C69.9052 86.1268 69.4737 96.8964 73.5529 107.394C75.9421 113.537 79.457 118.812 85.2501 122.361C86.9165 123.381 87.9892 123.089 89.2762 121.851C98.7227 112.762 107.41 103.059 113.836 91.5315C119.082 82.1238 122.889 72.2674 122.983 61.3025ZM209.439 8.78697C217.18 6.99742 224.92 5.20881 232.661 3.41925C226.595 4.31735 220.559 5.4715 214.567 6.81818C212.811 7.2127 211.176 8.15442 209.482 8.83914C205.878 8.76801 203.147 10.8639 200.324 12.7236C203.362 11.412 206.401 10.0995 209.439 8.78697ZM82.9823 127.394C73.4344 121.391 67.5161 113.011 64.7789 102.704C59.5464 82.9981 62.57 64.5411 75.1511 48.2473C81.0589 40.595 89.1861 35.8105 98.8668 34.3833C107.04 33.1788 114.186 35.9035 120.229 41.422C126.24 46.9102 130.118 53.7573 130.769 61.8374C131.325 68.7614 130.712 75.7934 128.056 82.377C125.931 87.6432 123.747 92.9085 121.148 97.9481C119.582 100.984 117.259 103.655 115.121 106.368C110.096 112.74 104.979 119.038 99.9765 125.914C101.85 125.379 103.803 125.029 105.581 124.27C111.32 121.82 115.912 117.775 120.016 113.198C129.903 102.17 136.503 89.1246 142.739 75.857C148.162 64.3173 153.681 52.8232 161.108 42.377C175.656 21.917 195.103 8.87802 219.661 3.39839C234.703 0.0421348 249.928 0.613997 265.155 0.67564C270.887 0.698401 276.621 0.233704 282.354 0.00104297C282.667 -0.0109734 282.986 0.0829144 283.653 0.175854C282.959 0.82643 282.494 1.26268 282.401 1.34993C283.215 2.01283 284.044 2.68806 284.873 3.36235C284.162 4.20829 283.609 5.36908 282.701 5.82524C281.356 6.50142 279.779 6.89025 278.267 7.02682C274.115 7.40142 269.943 7.54083 265.783 7.84715C261.033 8.19804 256.291 8.6561 251.54 9.00225C250.386 9.08666 249.199 8.77939 248.052 8.8913C242.559 9.42617 237.035 9.79983 231.6 10.7036C226.721 11.5164 221.984 13.1703 217.109 14.0267C213.395 14.6791 209.983 15.9879 206.589 17.4673C198.421 21.0284 190.637 25.0552 183.897 31.1721C174.444 39.751 166.92 49.8093 160.367 60.5599C156.462 66.967 153.95 74.2097 150.577 80.9592C147.092 87.9287 143.378 94.7863 139.655 101.633C137.779 105.084 135.964 108.636 133.579 111.723C130.535 115.664 127.044 119.278 123.552 122.843C121.285 125.154 118.882 127.454 116.172 129.182C109.884 133.196 102.956 134.414 95.6886 132.391C93.4711 131.774 91.8892 131.98 90.0928 133.555C76.8014 145.212 61.9734 154.533 45.8461 161.708C36.2242 165.99 26.571 170.321 16.6161 173.7C3.77614 178.058 -9.53997 180.488 -23.2193 179.918C-25.4311 179.826 -27.6761 179.396 -29.7968 178.758C-30.6788 178.492 -31.2744 177.272 -32 176.487C-31.2043 175.955 -30.4531 175.077 -29.6023 174.967C-28.1512 174.78 -26.6356 175.056 -25.1513 175.172C-24.1479 175.251 -23.1368 175.557 -22.1533 175.477C-11.545 174.6 -1.18895 172.37 8.88824 169.033C35.1411 160.337 59.1935 147.58 80.4064 129.693C81.1869 129.034 81.9324 128.333 82.9823 127.394Z" fill="#FFC729"/>
</svg>
