<svg width="20" height="20" viewBox="0 0 20 20" fill="none" xmlns="http://www.w3.org/2000/svg">
<path d="M0 1.43266C0 0.641875 0.662031 0 1.47812 0H18.5219C19.3383 0 20 0.641875 20 1.43266V18.5676C20 19.3586 19.3383 20 18.5219 20H1.47812C0.662109 20 0 19.3587 0 18.5678V1.43242V1.43266Z" fill="#006699"/>
<path d="M6.0784 16.7371V7.73305H3.08559V16.7371H6.07871H6.0784ZM4.58262 6.50391C5.62605 6.50391 6.27566 5.8125 6.27566 4.94844C6.25613 4.06469 5.62605 3.39258 4.60246 3.39258C3.57816 3.39258 2.90918 4.06469 2.90918 4.94836C2.90918 5.81242 3.55855 6.50383 4.56301 6.50383H4.58238L4.58262 6.50391ZM7.73488 16.7371H10.7275V11.7094C10.7275 11.4406 10.7471 11.1712 10.8261 10.9792C11.0424 10.4413 11.5348 9.88453 12.3618 9.88453C13.4444 9.88453 13.8778 10.7102 13.8778 11.9207V16.7371H16.8703V11.5745C16.8703 8.80891 15.394 7.52195 13.425 7.52195C11.8107 7.52195 11.1018 8.42422 10.7079 9.03875H10.7278V7.73336H7.73512C7.77418 8.57805 7.73488 16.7374 7.73488 16.7374V16.7371Z" fill="white"/>
</svg>
