<svg width="125" height="32" viewBox="0 0 125 32" fill="none" xmlns="http://www.w3.org/2000/svg">
<path d="M41.6626 23.8196C40.7578 23.8196 39.9545 23.6688 39.2528 23.3672C38.5573 23.0594 38.0064 22.5978 37.6001 21.9822C37.2 21.3606 37 20.5819 37 19.6463C37 18.8584 37.1385 18.1937 37.4155 17.652C37.6925 17.1103 38.0741 16.6702 38.5604 16.3317C39.0466 15.9931 39.6068 15.7377 40.2408 15.5653C40.8748 15.3868 41.5518 15.2668 42.272 15.2053C43.0784 15.1314 43.7277 15.0545 44.2202 14.9744C44.7126 14.8883 45.0696 14.7682 45.2912 14.6143C45.5189 14.4543 45.6328 14.2296 45.6328 13.9403V13.8942C45.6328 13.4202 45.4697 13.054 45.1435 12.7955C44.8172 12.5369 44.3771 12.4077 43.8232 12.4077C43.2261 12.4077 42.746 12.5369 42.3828 12.7955C42.0196 13.054 41.7888 13.411 41.6903 13.8665L37.5263 13.7188C37.6494 12.857 37.9664 12.0876 38.4773 11.4105C38.9943 10.7273 39.7022 10.1918 40.6009 9.80398C41.5057 9.41004 42.5921 9.21307 43.8601 9.21307C44.7649 9.21307 45.599 9.32079 46.3622 9.53622C47.1255 9.7455 47.7902 10.0533 48.3565 10.4595C48.9228 10.8596 49.3598 11.352 49.6676 11.9368C49.9815 12.5215 50.1385 13.1894 50.1385 13.9403V23.5795H45.8913V21.6037H45.7805C45.5282 22.0838 45.205 22.4901 44.8111 22.8224C44.4233 23.1548 43.9647 23.4041 43.4354 23.5703C42.9122 23.7365 42.3213 23.8196 41.6626 23.8196ZM43.0568 20.8651C43.5431 20.8651 43.9801 20.7666 44.3679 20.5696C44.7618 20.3726 45.0758 20.1018 45.3097 19.7571C45.5436 19.4063 45.6605 19 45.6605 18.5384V17.1903C45.5312 17.258 45.3743 17.3196 45.1896 17.375C45.0111 17.4304 44.8142 17.4827 44.5987 17.532C44.3833 17.5812 44.1617 17.6243 43.9339 17.6612C43.7062 17.6982 43.4877 17.732 43.2784 17.7628C42.8537 17.8305 42.4905 17.9351 42.1889 18.0767C41.8935 18.2183 41.6657 18.4029 41.5057 18.6307C41.3518 18.8523 41.2749 19.117 41.2749 19.4247C41.2749 19.8925 41.4411 20.2495 41.7734 20.4957C42.112 20.742 42.5398 20.8651 43.0568 20.8651Z" fill="#1E1E1E"/>
<path d="M57.4141 15.4915V23.5795H52.8991V9.39773H57.1925V12.0014H57.3494C57.6634 11.1335 58.1989 10.4534 58.956 9.96094C59.7131 9.46236 60.6148 9.21307 61.6612 9.21307C62.6584 9.21307 63.5232 9.43774 64.2557 9.88707C64.9943 10.3303 65.5668 10.9519 65.973 11.7521C66.3854 12.5462 66.5885 13.4756 66.5824 14.5405V23.5795H62.0675V15.4268C62.0736 14.639 61.8736 14.0234 61.4673 13.5803C61.0672 13.1371 60.5102 12.9155 59.7962 12.9155C59.3222 12.9155 58.9036 13.0201 58.5405 13.2294C58.1835 13.4325 57.9065 13.7249 57.7095 14.1065C57.5187 14.4882 57.4202 14.9498 57.4141 15.4915Z" fill="#1E1E1E"/>
<path d="M75.9977 23.8473C74.502 23.8473 73.2186 23.5395 72.1475 22.924C71.0827 22.3085 70.264 21.4529 69.6916 20.3572C69.1191 19.2554 68.8329 17.9813 68.8329 16.5348C68.8329 15.0822 69.1191 13.808 69.6916 12.7124C70.2702 11.6106 71.0919 10.7519 72.1568 10.1364C73.2278 9.52083 74.505 9.21307 75.9885 9.21307C77.2995 9.21307 78.4413 9.45005 79.4139 9.92401C80.3926 10.398 81.1558 11.0689 81.7037 11.9368C82.2576 12.7985 82.55 13.8111 82.5808 14.9744H78.3613C78.2752 14.2481 78.0289 13.6787 77.6227 13.2663C77.2226 12.8539 76.6994 12.6477 76.0531 12.6477C75.5299 12.6477 75.0713 12.7955 74.6774 13.0909C74.2834 13.3802 73.9757 13.8111 73.7541 14.3835C73.5387 14.9498 73.4309 15.6515 73.4309 16.4886C73.4309 17.3258 73.5387 18.0336 73.7541 18.6122C73.9757 19.1847 74.2834 19.6186 74.6774 19.9141C75.0713 20.2034 75.5299 20.348 76.0531 20.348C76.4716 20.348 76.841 20.2588 77.161 20.0803C77.4873 19.9018 77.755 19.6402 77.9643 19.2955C78.1736 18.9446 78.3059 18.5199 78.3613 18.0213H82.5808C82.5377 19.1908 82.2453 20.2126 81.7037 21.0866C81.1681 21.9607 80.4141 22.6409 79.4416 23.1271C78.4752 23.6072 77.3272 23.8473 75.9977 23.8473Z" fill="#1E1E1E"/>
<path d="M94.0412 17.4581V9.39773H98.5469V23.5795H94.2443V20.9389H94.0966C93.7827 21.8068 93.2472 22.4962 92.4901 23.0071C91.7391 23.5118 90.8312 23.7642 89.7663 23.7642C88.8 23.7642 87.9505 23.5426 87.218 23.0994C86.4856 22.6562 85.9162 22.0376 85.5099 21.2436C85.1037 20.4434 84.8975 19.5078 84.8913 18.4368V9.39773H89.4062V17.5504C89.4124 18.3198 89.6155 18.9261 90.0156 19.3693C90.4157 19.8125 90.9605 20.0341 91.6499 20.0341C92.0992 20.0341 92.5024 19.9356 92.8594 19.7386C93.2225 19.5355 93.5088 19.2431 93.718 18.8615C93.9335 18.4737 94.0412 18.0059 94.0412 17.4581Z" fill="#1E1E1E"/>
<path d="M113.802 13.728L109.656 13.8388C109.613 13.5433 109.496 13.2817 109.306 13.054C109.115 12.8201 108.865 12.6385 108.558 12.5092C108.256 12.3738 107.905 12.3061 107.505 12.3061C106.982 12.3061 106.536 12.4107 106.166 12.62C105.803 12.8293 105.625 13.1125 105.631 13.4695C105.625 13.7464 105.736 13.9865 105.963 14.1896C106.197 14.3928 106.613 14.5559 107.21 14.679L109.943 15.196C111.358 15.4669 112.411 15.9162 113.1 16.544C113.796 17.1719 114.147 18.0028 114.153 19.0369C114.147 20.0095 113.857 20.8558 113.285 21.576C112.719 22.2962 111.943 22.8563 110.958 23.2564C109.973 23.6503 108.847 23.8473 107.579 23.8473C105.554 23.8473 103.957 23.4318 102.787 22.6009C101.624 21.7637 100.959 20.6435 100.793 19.2401L105.252 19.1293C105.351 19.6463 105.606 20.0402 106.019 20.3111C106.431 20.5819 106.957 20.7173 107.597 20.7173C108.176 20.7173 108.647 20.6096 109.01 20.3942C109.373 20.1787 109.558 19.8925 109.564 19.5355C109.558 19.2154 109.416 18.96 109.139 18.7692C108.862 18.5722 108.428 18.4183 107.838 18.3075L105.363 17.8366C103.941 17.5781 102.883 17.1011 102.187 16.4055C101.491 15.7038 101.147 14.8113 101.153 13.728C101.147 12.7801 101.399 11.9706 101.91 11.2997C102.421 10.6226 103.147 10.1056 104.089 9.74858C105.031 9.39157 106.142 9.21307 107.422 9.21307C109.343 9.21307 110.857 9.61624 111.965 10.4226C113.073 11.2228 113.685 12.3246 113.802 13.728Z" fill="#1E1E1E"/>
<path d="M124.381 9.39773V12.7216H115.434V9.39773H124.381ZM117.308 6H121.823V19.12C121.823 19.397 121.866 19.6217 121.952 19.794C122.045 19.9602 122.177 20.0803 122.349 20.1541C122.522 20.2218 122.728 20.2557 122.968 20.2557C123.14 20.2557 123.322 20.2403 123.513 20.2095C123.71 20.1726 123.857 20.1418 123.956 20.1172L124.639 23.3764C124.424 23.438 124.119 23.5149 123.725 23.6072C123.337 23.6996 122.873 23.758 122.331 23.7827C121.272 23.8319 120.364 23.7088 119.607 23.4134C118.856 23.1117 118.281 22.6439 117.881 22.0099C117.487 21.3759 117.296 20.5788 117.308 19.6186V6Z" fill="#1E1E1E"/>
<path d="M3.05282 5.52191C1.7756 6.29655 1.7675 8.14432 3.03897 8.92837C6.47373 11.0464 12.0151 14.4593 13.2027 15.1655C13.475 15.3256 13.6422 15.6177 13.6422 15.9338C13.6422 16.2496 13.475 16.5418 13.2027 16.7018C11.9986 17.4023 6.3313 20.8212 2.82471 22.9392C1.53833 23.7162 1.53939 25.5789 2.82524 26.3568C5.90582 28.2204 10.5371 31.0176 11.573 31.6179C12.0067 31.8681 12.4984 32 12.9991 32C13.4998 32 13.9915 31.8681 14.4252 31.6179L25.8083 25.0444C26.2424 24.7937 26.6026 24.433 26.8531 23.9986C27.1035 23.5643 27.2348 23.0714 27.2341 22.5701V9.42991C27.2348 8.92859 27.1035 8.43577 26.8531 8.00139C26.6027 7.56702 26.2424 7.20632 25.8083 6.95565L14.4292 0.382131C13.9955 0.131916 13.5038 0 13.0031 0C12.5024 0 12.0107 0.131916 11.577 0.382131C10.5663 0.969472 6.06416 3.69554 3.05282 5.52191Z" fill="#1E1E1E"/>
</svg>
