<svg width="60" height="60" viewBox="0 0 60 60" fill="none" xmlns="http://www.w3.org/2000/svg">
<path d="M0.711233 14.6599C1.27784 7.17939 7.17939 1.27784 14.6599 0.711233C19.7073 0.32892 25.3895 0 30 0C34.6105 0 40.2927 0.32892 45.3401 0.711233C52.8206 1.27784 58.7222 7.17939 59.2888 14.6599C59.6711 19.7073 60 25.3895 60 30C60 34.6105 59.6711 40.2927 59.2888 45.3401C58.7222 52.8206 52.8206 58.7222 45.3401 59.2888C40.2927 59.6711 34.6105 60 30 60C25.3895 60 19.7073 59.6711 14.6599 59.2888C7.17939 58.7222 1.27784 52.8206 0.711233 45.3401C0.32892 40.2927 0 34.6105 0 30C0 25.3895 0.32892 19.7073 0.711233 14.6599Z" fill="#325AFE"/>
<path d="M29.953 15C29.624 15 29.2554 15.3528 29.2554 15.6976V17.7908C29.2503 18.1594 29.5844 18.4984 29.953 18.4984C30.3217 18.4984 30.656 18.1594 30.6506 17.7908V15.6976C30.6506 15.3017 30.282 15 29.953 15ZM39.3717 19.1644C39.3425 19.1661 39.3133 19.1698 39.2846 19.1754C39.1323 19.1973 38.988 19.2715 38.8812 19.3824L37.4859 20.7777C37.2178 21.0327 37.2105 21.5109 37.4706 21.7739C37.7307 22.0369 38.2091 22.0347 38.467 21.7697L39.8623 20.3745C40.0691 20.1835 40.1411 19.8606 40.0355 19.5999C39.9297 19.3388 39.653 19.1573 39.3717 19.1644L39.3717 19.1644ZM20.4583 19.1754C20.1941 19.2012 19.9532 19.3912 19.8663 19.6421C19.7797 19.8929 19.8519 20.1913 20.0439 20.3745L21.4392 21.7698C21.6971 22.035 22.1755 22.0369 22.4356 21.7739C22.6957 21.5108 22.6884 21.0325 22.4203 20.7777L21.025 19.3825C20.88 19.2335 20.6654 19.1552 20.4583 19.1751L20.4583 19.1754ZM29.9536 21.2792C26.054 21.2792 22.2791 24.4583 22.2791 28.9537C22.2791 34.4384 25.9797 35.2484 26.4216 38.7212H33.4857C33.9275 35.2486 37.6281 34.4383 37.6281 28.9537C37.6281 24.4584 33.8533 21.2792 29.9536 21.2792ZM40.07 29.3025C40.07 29.6315 40.4007 30.0001 40.7676 30.0001H43.2095C43.5781 30.0053 43.9071 29.6712 43.9071 29.3025C43.9071 28.9339 43.5781 28.5996 43.2095 28.6049H40.7676C40.3657 28.6049 40.07 28.9738 40.07 29.3025ZM16 29.3025C16 29.6315 16.3319 30.0001 16.6976 30.0001H18.7908C19.1594 30.0053 19.4984 29.6712 19.4984 29.3025C19.4984 28.9339 19.1594 28.5996 18.7908 28.6049H16.6976C16.2964 28.6049 16 28.9738 16 29.3025ZM22.3663 36.0831C22.1863 36.0902 22.0104 36.1702 21.8867 36.3012L20.088 38.0889C19.8199 38.3439 19.8126 38.8221 20.0727 39.0851C20.3328 39.3481 20.8112 39.3459 21.0691 39.081L22.8679 37.282C23.0681 37.0883 23.1341 36.7683 23.0265 36.5111C22.919 36.2542 22.645 36.0763 22.3663 36.0829L22.3663 36.0831ZM37.4537 36.0831C37.1895 36.1089 36.9486 36.299 36.8617 36.5498C36.7751 36.8007 36.8473 37.099 37.0393 37.2823L38.838 39.081C39.096 39.3462 39.5743 39.3482 39.8345 39.0851C40.0946 38.8221 40.0873 38.3437 39.8191 38.0889L38.0207 36.3009C37.892 36.1649 37.7065 36.0844 37.5192 36.0829C37.4973 36.0819 37.4756 36.0819 37.4537 36.0829V36.0831ZM26.4652 40.1164V43.6048C26.4652 44.4065 27.1244 45 27.8605 45H32.0465C32.7828 45 33.4417 44.4063 33.4417 43.6048V40.1164H26.4652Z" fill="white"/>
</svg>
