<svg width="80" height="54" viewBox="0 0 80 54" fill="none" xmlns="http://www.w3.org/2000/svg">
<path d="M38.9614 19.4276C38.9614 8.69859 30.2647 0 19.5338 0C8.80359 0 1.01522 8.39802 0.106194 19.0895C-1.28098 35.403 11.1118 49.0618 26.1586 53.4081C21.03 50.3072 17.4527 44.9139 16.856 38.6418C17.7341 38.7666 18.6227 38.8549 19.5335 38.8549C30.2637 38.8549 38.9611 30.1581 38.9611 19.4273L38.9614 19.4276Z" fill="#FFC729"/>
<path d="M80 19.4276C80 8.69859 71.3033 0 60.5724 0C49.8434 0 42.0538 8.39802 41.1448 19.0895C39.7576 35.403 52.1504 49.0618 67.1972 53.4081C62.0686 50.3072 58.492 44.9139 57.8946 38.6418C58.7727 38.7666 59.6627 38.8549 60.572 38.8549C71.3029 38.8549 79.9997 30.1581 79.9997 19.4273L80 19.4276Z" fill="#FFC729"/>
</svg>
