<svg width="50" height="50" viewBox="0 0 50 50" fill="none" xmlns="http://www.w3.org/2000/svg">
<path d="M0.438484 14.3525C0.951102 6.86814 6.86814 0.951101 14.3525 0.438484C17.9731 0.190509 21.7969 0 25 0C28.2031 0 32.0269 0.190509 35.6475 0.438484C43.1319 0.951102 49.0489 6.86814 49.5615 14.3525C49.8095 17.9731 50 21.7969 50 25C50 28.2031 49.8095 32.0269 49.5615 35.6475C49.0489 43.1319 43.1319 49.0489 35.6475 49.5615C32.0269 49.8095 28.2031 50 25 50C21.7969 50 17.9731 49.8095 14.3525 49.5615C6.86814 49.0489 0.951101 43.1319 0.438484 35.6475C0.190509 32.0269 0 28.2031 0 25C0 21.7969 0.190509 17.9731 0.438484 14.3525Z" fill="#1E1E1E"/>
<path d="M17.1898 29.9004L13.5998 33.4904C13.0817 34.0106 12.88 34.7674 13.0705 35.4764C13.261 36.1853 13.8148 36.7392 14.5238 36.9297C15.2328 37.1202 15.9896 36.9185 16.5098 36.4004L20.0998 32.8104C18.9696 32.0152 17.985 31.0307 17.1898 29.9004Z" fill="#FFC729"/>
<path d="M23.9995 23H21.9995C21.867 23.0004 21.74 23.0532 21.6464 23.1469C21.5527 23.2405 21.4999 23.3675 21.4995 23.5V25.97C22.1652 27.1977 23.2208 28.1688 24.4995 28.73V23.5C24.4991 23.3675 24.4463 23.2405 24.3527 23.1469C24.259 23.0532 24.132 23.0004 23.9995 23H23.9995Z" fill="#FFC729"/>
<path d="M32 20H30C29.8675 20.0004 29.7405 20.0532 29.6469 20.1469C29.5532 20.2405 29.5004 20.3675 29.5 20.5V28.73C30.7788 28.1688 31.8342 27.1977 32.5 25.97V20.5C32.4996 20.3675 32.4468 20.2405 32.3531 20.1469C32.2595 20.0532 32.1325 20.0004 32 20H32Z" fill="#FFC729"/>
<path d="M28 21.5H26C25.8675 21.5004 25.7405 21.5532 25.6469 21.6469C25.5532 21.7405 25.5004 21.8675 25.5 22V29.07C26.4856 29.31 27.5144 29.31 28.5 29.07V22C28.4996 21.8675 28.4468 21.7405 28.3531 21.6469C28.2595 21.5532 28.1325 21.5004 28 21.5H28Z" fill="#FFC729"/>
<path d="M26.9997 13.0001C24.3475 13.0001 21.8039 14.0537 19.9287 15.9291C18.0533 17.8045 16.9996 20.3481 16.9996 23.0002C16.9996 25.6522 18.0532 28.196 19.9287 30.0712C21.8041 31.9465 24.3477 33.0002 26.9997 33.0002C29.6517 33.0002 32.1955 31.9466 34.0707 30.0712C35.9461 28.1958 36.9997 25.6522 36.9997 23.0002C37.0002 21.2447 36.5384 19.5199 35.6608 17.9995C34.7832 16.4791 33.5206 15.2167 32.0002 14.3389C30.4798 13.4613 28.7552 12.9995 26.9996 13L26.9997 13.0001ZM32.4997 28.0902C31.4753 29.1951 30.1419 29.966 28.6731 30.3022C27.2043 30.6384 25.6683 30.5244 24.2653 29.975C22.8623 29.4256 21.6573 28.4664 20.8071 27.2224C19.957 25.9783 19.5014 24.507 19.4996 23.0002C19.4977 21.3648 20.0303 19.7738 21.0163 18.469C22.0023 17.1643 23.3877 16.2177 24.9615 15.7733C26.5353 15.329 28.2113 15.4112 29.7339 16.0074C31.2568 16.6036 32.5429 17.6812 33.3965 19.076C34.2502 20.4708 34.6246 22.1064 34.4626 23.7338C34.3007 25.3612 33.6113 26.8911 32.4995 28.0903L32.4997 28.0902Z" fill="#FFC729"/>
</svg>
