<svg width="188" height="180" viewBox="0 0 188 180" fill="none" xmlns="http://www.w3.org/2000/svg">
<path fill-rule="evenodd" clip-rule="evenodd" d="M182.008 106.499C179.112 106.569 176.255 105.832 173.344 106.093C172.885 106.133 172.065 105.98 171.977 105.723C171.111 103.172 168.218 103.478 166.596 101.827C165.158 100.366 165.031 99.2097 165.722 97.7347C168.399 92.0218 170.752 86.1804 172.937 80.2674C173.512 78.7115 174.076 77.1427 174.498 75.54C174.902 74.0044 176.22 73.513 177.371 73.0887C178.62 72.6285 178.768 74.1403 179.432 74.7869C182.547 77.8206 182.638 81.9289 183.548 85.7524C184.721 90.6827 185.779 95.6452 187.111 100.533C188.22 104.604 186.917 107.151 182.008 106.499Z" fill="#01BE83"/>
<path fill-rule="evenodd" clip-rule="evenodd" d="M150.301 26.5356C150.39 28.6324 149.046 30.0937 146.696 30.3692C143.423 30.7522 140.152 31.1968 136.868 31.4209C133.868 31.6257 132.294 29.1761 130.798 27.2611C129.769 25.9422 130.47 24.0511 131.531 22.476C135.08 17.204 137.716 11.4489 140.129 5.58911C140.55 4.56778 140.99 3.62727 142.311 3.45736C143.74 3.27274 144.027 4.35286 144.688 5.20611C146.663 7.75484 147.089 10.828 147.849 13.7946C148.922 17.992 149.939 22.2013 150.301 26.5356Z" fill="#01BE83"/>
<path fill-rule="evenodd" clip-rule="evenodd" d="M143.432 73.4583C143.429 76.1081 144.149 78.1856 141.66 79.3824C141.069 79.6662 140.547 80.051 139.929 79.9436C137.147 79.4586 134.431 79.6138 131.89 80.874C129.904 81.8604 128.787 81.0898 127.312 79.6386C124.48 76.8511 124.411 75.7296 126.195 72.279C129.046 66.7645 132.276 61.3998 134.048 55.3719C134.305 54.4966 134.589 53.6076 135.018 52.8094C135.906 51.158 137.515 51.1277 138.743 52.5256C141.331 55.473 141.625 59.1808 142.174 62.7683C142.754 66.5533 143.078 70.3768 143.432 73.4583Z" fill="#01BE83"/>
<path fill-rule="evenodd" clip-rule="evenodd" d="M145.345 171.204C142.533 170.885 140.277 169.35 138.307 167.501C137.594 166.831 137.67 165.467 138.19 164.416C139.936 160.888 140.618 156.971 142.439 153.406C143.299 151.722 143.659 149.378 144.291 147.355C144.734 145.931 145.448 144.357 147.16 144.226C148.865 144.095 149.766 145.66 150.487 146.876C152.329 149.987 152.945 153.566 153.674 157.042C154.47 160.845 154.981 164.711 155.541 168.561C155.764 170.1 154.733 171.073 154.883 172.467C154.963 173.21 154.021 173.317 153.126 173.066C150.561 172.346 147.942 171.812 145.345 171.204Z" fill="#01BE83"/>
<path fill-rule="evenodd" clip-rule="evenodd" d="M106.519 47.7266C106.525 50.2102 105.23 51.3693 102.51 50.877C100.283 50.4738 98.068 50.6997 95.8959 50.7153C93.2121 50.7355 91.4459 49.5553 89.6246 47.9636C87.9457 46.4959 87.8621 44.794 88.8228 43.0535C91.8895 37.5032 94.4052 31.7307 96.3753 25.7028C97.1431 23.3552 98.733 23.2129 100.39 25.0709C101.525 26.343 102.357 27.7703 102.868 29.3537C104.816 35.3843 105.909 41.5922 106.519 47.7266Z" fill="#01BE83"/>
<path fill-rule="evenodd" clip-rule="evenodd" d="M62.1896 70.0063C60.2737 69.9145 58.626 69.976 56.9608 69.6941C52.9958 69.0236 51.7384 67.8443 52.3859 63.939C53.2135 58.9471 53.7939 53.8846 55.3755 49.0397C55.7089 48.0183 56.0662 46.9493 56.6733 46.085C57.7406 44.5668 59.0825 44.1112 60.6245 45.6221C61.9425 46.9134 63.1292 48.2856 63.9329 49.9636C66.1996 54.6965 67.964 59.613 69.5492 64.6113C70.3915 67.2684 68.5252 69.7133 65.9204 69.8089C64.5905 69.8566 63.2624 69.9485 62.1896 70.0063Z" fill="#01BE83"/>
<path fill-rule="evenodd" clip-rule="evenodd" d="M103.311 149.421C101.588 149.783 99.9616 150.301 98.1467 149.942C95.4731 149.415 92.4724 145.42 93.3193 142.931C95.1994 137.405 96.3318 131.682 98.0383 126.115C98.4268 124.845 98.6996 123.425 100.38 123.221C102.07 123.015 102.751 124.328 103.331 125.492C106.238 131.326 108.151 137.541 110.064 143.743C110.629 145.575 109.984 147.025 108.116 148.079C106.55 148.962 104.715 148.346 103.311 149.421Z" fill="#01BE83"/>
<path fill-rule="evenodd" clip-rule="evenodd" d="M67.8815 18.9947C68.1543 23.8268 66.0005 26.0118 61.1482 26.9523C58.605 27.4455 56.7929 26.3498 54.8338 25.5186C52.5496 24.5487 51.6945 22.8183 52.3632 20.0868C53.2238 16.5737 54.7466 13.3499 56.0159 10.0186C57.0537 7.29444 58.0613 4.56937 58.9586 1.79561C59.6723 -0.408699 60.5733 -0.33063 62.3964 0.679679C65.5504 2.42659 66.1833 5.33996 66.6554 8.35343C67.2073 11.8776 67.4847 15.4458 67.8815 18.9947Z" fill="#01BE83"/>
<path fill-rule="evenodd" clip-rule="evenodd" d="M44.4036 126.611C44.388 124.804 44.9777 123.139 45.853 121.622C48.0692 117.782 49.6536 113.666 51.3077 109.579C52.6496 106.26 52.9435 106.52 55.7283 108.295C58.6269 110.143 59.3544 112.887 60.305 115.641C61.3373 118.631 62.2209 121.684 62.9566 124.76C63.628 127.562 63.0603 128.138 60.3766 129.061C57.8986 129.912 55.618 131.267 52.8893 131.445C51.586 131.53 50.9973 131.119 50.6069 129.993C50.2542 128.976 49.4846 129.048 48.6589 129.392C46.4215 130.32 44.399 128.996 44.4036 126.611Z" fill="#01BE83"/>
<path fill-rule="evenodd" clip-rule="evenodd" d="M62.2917 179.997C59.2213 179.664 56.5559 179.516 53.9438 179.059C49.6481 178.309 47.8231 175.131 48.7434 170.805C49.661 166.494 50.5234 162.185 52.2272 158.093C53.6122 154.77 55.237 154.338 57.6415 156.909C58.6986 158.039 59.5941 159.433 60.1856 160.864C62.2127 165.773 64.3545 170.652 65.397 175.906C65.9628 178.754 64.8404 180.068 62.2917 179.997Z" fill="#01BE83"/>
<path fill-rule="evenodd" clip-rule="evenodd" d="M22.2445 57.6289C21.529 56.9602 22.5779 55.2078 20.9623 54.7614C20.3974 54.6053 20.0429 55.544 20.2505 56.0895C20.6371 57.1017 20.2817 58.5942 21.6723 58.991C22.3519 59.1848 22.2454 58.3958 22.2445 57.6289ZM28.5442 62.0715C28.6278 65.8216 27.7341 66.4755 24.5278 66.414C22.7037 66.38 20.8668 66.9807 19.0363 67.2975C16.1798 67.7926 11.8511 65.2889 11.0906 62.8614C10.8408 62.0586 10.8665 61.458 11.1843 60.7379C13.3987 55.701 15.5626 50.6421 17.7963 45.6145C18.7727 43.4203 19.9005 43.2448 21.7246 44.8861C25.8255 48.5802 26.6779 53.7842 28.0749 58.7163C28.434 59.9838 28.4496 61.3496 28.5442 62.0715Z" fill="#01BE83"/>
<path fill-rule="evenodd" clip-rule="evenodd" d="M0 107.791C0.57955 102.027 2.43209 96.5999 4.40862 91.2333C5.2536 88.9408 6.37597 88.8995 8.33596 90.4297C10.0847 91.7954 11.0509 93.6379 11.3752 95.7136C12.1448 100.64 12.774 105.591 13.3645 110.544C13.6134 112.633 12.2973 113.703 10.1977 114.135C6.84897 114.825 4.18268 113.499 1.57884 111.789C0.147872 110.85 0.173589 109.268 0 107.791Z" fill="#01BE83"/>
<path fill-rule="evenodd" clip-rule="evenodd" d="M96.6646 105.529C95.759 105.454 94.7165 105.052 94.3244 105.394C92.9448 106.6 91.2659 105.773 89.7486 106.325C88.1293 106.914 85.6623 102.927 85.8571 100.937C86.1464 97.987 88.696 96.1207 89.1084 93.1596C89.5162 90.2361 90.6854 87.4155 91.569 84.5646C91.8261 83.7325 92.3763 83.1281 93.3627 83.0767C94.4171 83.0207 94.9746 83.4964 95.4559 84.4489C98.1176 89.73 99.5339 95.4677 101.566 100.978C102.688 104.02 99.8939 105.092 96.6646 105.529Z" fill="#01BE83"/>
<path fill-rule="evenodd" clip-rule="evenodd" d="M143.968 118.21C144.666 121.305 141.254 122.988 138.999 122.418C137.95 122.152 137.099 121.803 135.828 122.403C134.266 123.142 131.902 124.043 131.498 120.75C131.466 120.489 130.789 120.354 130.501 120.071C128.713 118.314 128.657 115.793 130.295 113.796C130.662 113.349 131.033 112.853 131.214 112.317C132.452 108.657 135.17 105.581 135.441 101.535C135.511 100.487 135.9 99.5107 137.096 99.3215C138.297 99.1314 138.878 99.9911 139.367 100.919C139.599 101.361 139.989 101.745 140.123 102.209C141.656 107.483 143.025 112.797 143.968 118.21Z" fill="#01BE83"/>
</svg>
