<svg width="135" height="62" viewBox="0 0 135 62" fill="none" xmlns="http://www.w3.org/2000/svg">
<path fill-rule="evenodd" clip-rule="evenodd" d="M141.562 4.83581C139.31 4.89082 137.087 4.31717 134.824 4.52005C134.466 4.55149 133.828 4.43219 133.76 4.23216C133.086 2.24836 130.836 2.48624 129.574 1.20252C128.456 0.0659561 128.358 -0.833435 128.895 -1.98071C130.977 -6.4241 132.807 -10.9675 134.506 -15.5666C134.954 -16.7767 135.393 -17.9969 135.721 -19.2435C136.035 -20.4379 137.06 -20.8201 137.955 -21.1501C138.927 -21.508 139.042 -20.3322 139.558 -19.8293C141.981 -17.4697 142.052 -14.2743 142.76 -11.3004C143.673 -7.46565 144.495 -3.60591 145.531 0.195971C146.394 3.36206 145.381 5.34301 141.562 4.83581Z" fill="white"/>
<path fill-rule="evenodd" clip-rule="evenodd" d="M113.047 55.162C110.859 54.9141 109.105 53.7204 107.572 52.2817C107.018 51.7609 107.077 50.7 107.482 49.8828C108.84 47.1382 109.37 44.0914 110.786 41.3189C111.455 40.0095 111.735 38.1864 112.227 36.6127C112.572 35.5047 113.127 34.281 114.458 34.1788C115.785 34.0774 116.486 35.2939 117.046 36.2398C118.479 38.66 118.958 41.4432 119.525 44.1471C120.144 47.1046 120.541 50.1121 120.977 53.1068C121.15 54.3033 120.348 55.0598 120.465 56.1443C120.528 56.7222 119.795 56.8058 119.099 56.61C117.104 56.05 115.067 55.6349 113.047 55.162Z" fill="white"/>
<path fill-rule="evenodd" clip-rule="evenodd" d="M80.3534 38.2171C79.0132 38.4985 77.7481 38.9014 76.3365 38.6228C74.257 38.2128 71.9231 35.1053 72.5818 33.1693C74.0441 28.8717 74.9249 24.4197 76.2522 20.0899C76.5544 19.1027 76.7665 17.9983 78.0738 17.8389C79.3883 17.6789 79.9176 18.7005 80.3684 19.6056C82.6301 24.1433 84.1174 28.9774 85.6054 33.8008C86.0448 35.226 85.5433 36.354 84.0903 37.1734C82.8723 37.8606 81.445 37.3813 80.3534 38.2171Z" fill="white"/>
<path fill-rule="evenodd" clip-rule="evenodd" d="M34.5378 20.4793C34.5257 19.0735 34.9843 17.7783 35.6651 16.5989C37.3889 13.6121 38.6212 10.4103 39.9078 7.23134C40.9514 4.65032 41.18 4.85249 43.346 6.23336C45.6006 7.67068 46.1664 9.8045 46.9057 11.9469C47.7087 14.2722 48.3959 16.6467 48.9681 19.0392C49.4903 21.2187 49.0488 21.6666 46.9614 22.3846C45.0341 23.0468 43.2603 24.1005 41.1379 24.2391C40.1242 24.3048 39.6663 23.9855 39.3627 23.1096C39.0884 22.3188 38.4897 22.3746 37.8475 22.6417C36.1073 23.364 34.5343 22.3338 34.5378 20.4793Z" fill="white"/>
<path fill-rule="evenodd" clip-rule="evenodd" d="M48.4506 61.9977C46.0625 61.7384 43.9894 61.6234 41.9577 61.2683C38.6166 60.6847 37.1971 58.213 37.9129 54.8483C38.6266 51.495 39.2974 48.1439 40.6225 44.9614C41.6998 42.3761 42.9635 42.0403 44.8337 44.0399C45.656 44.9192 46.3525 46.0037 46.8125 47.1167C48.3892 50.9342 50.0551 54.729 50.8659 58.8159C51.3059 61.0312 50.433 62.0527 48.4506 61.9977Z" fill="white"/>
<path fill-rule="evenodd" clip-rule="evenodd" d="M0 5.84233C0.450768 1.35894 1.89165 -2.86227 3.42898 -7.03634C4.0862 -8.81941 4.95916 -8.85155 6.48362 -7.66141C7.84378 -6.59914 8.5953 -5.16612 8.84748 -3.55164C9.44612 0.280242 9.93546 4.1307 10.3948 7.9833C10.5884 9.60849 9.5647 10.44 7.93165 10.7765C5.32706 11.313 3.25324 10.2814 1.228 8.95198C0.115014 8.22118 0.135016 6.99103 0 5.84233Z" fill="white"/>
<path fill-rule="evenodd" clip-rule="evenodd" d="M75.1835 4.07951C74.4791 4.02165 73.6683 3.70875 73.3633 3.97521C72.2903 4.91318 70.9844 4.26953 69.8043 4.69887C68.5448 5.1575 66.626 2.05642 66.7775 0.508376C67.0025 -1.78618 68.9856 -3.23779 69.3064 -5.54091C69.6235 -7.81475 70.5329 -10.0086 71.2202 -12.226C71.4202 -12.8732 71.8481 -13.3433 72.6153 -13.3833C73.4354 -13.4268 73.869 -13.0568 74.2434 -12.316C76.3136 -8.20837 77.4152 -3.7457 78.9954 0.539804C79.8683 2.90651 77.6952 3.74018 75.1835 4.07951Z" fill="white"/>
<path fill-rule="evenodd" clip-rule="evenodd" d="M111.977 13.9402C112.52 16.3477 109.866 17.6571 108.112 17.2135C107.296 17.0063 106.634 16.7348 105.645 17.202C104.431 17.7764 102.592 18.4772 102.278 15.9162C102.253 15.7133 101.726 15.6083 101.502 15.3883C100.112 14.0217 100.068 12.0607 101.342 10.507C101.627 10.1598 101.916 9.77402 102.057 9.35683C103.019 6.51006 105.134 4.11764 105.345 0.970842C105.399 0.155745 105.702 -0.603632 106.632 -0.750793C107.566 -0.898667 108.018 -0.230018 108.398 0.491496C108.579 0.835108 108.882 1.13443 108.986 1.49519C110.178 5.5971 111.243 9.73045 111.977 13.9402Z" fill="white"/>
</svg>
