<svg width="103" height="77" viewBox="0 0 103 77" fill="none" xmlns="http://www.w3.org/2000/svg">
<path fill-rule="evenodd" clip-rule="evenodd" d="M98.5623 82.8358C96.3098 82.8908 94.0874 82.3172 91.8236 82.5201C91.4664 82.5515 90.8285 82.4322 90.7599 82.2322C90.0863 80.2484 87.836 80.4862 86.5744 79.2025C85.4564 78.066 85.3578 77.1666 85.895 76.0193C87.9767 71.5759 89.8069 67.0325 91.5064 62.4334C91.9536 61.2233 92.393 60.0031 92.7209 58.7565C93.0352 57.5621 94.0603 57.1799 94.9554 56.8499C95.9269 56.492 96.042 57.6678 96.5584 58.1707C98.9809 60.5303 99.0523 63.7257 99.7595 66.6996C100.673 70.5344 101.495 74.3941 102.531 78.196C103.394 81.3621 102.381 83.343 98.5623 82.8358Z" fill="white"/>
<path fill-rule="evenodd" clip-rule="evenodd" d="M73.9016 20.6381C73.9709 22.269 72.9258 23.4055 71.0977 23.6198C68.5524 23.9177 66.0078 24.2635 63.4532 24.4378C61.1201 24.5971 59.8964 22.6919 58.7327 21.2024C57.9318 20.1766 58.4776 18.7057 59.3027 17.4805C62.063 13.3801 64.1133 8.90381 65.9899 4.34613C66.3171 3.55175 66.66 2.82024 67.6873 2.68808C68.7988 2.54449 69.0217 3.38459 69.5361 4.04824C71.072 6.03062 71.4034 8.4209 71.9942 10.7283C72.8293 13.993 73.6201 17.2669 73.9016 20.6381Z" fill="white"/>
<path fill-rule="evenodd" clip-rule="evenodd" d="M68.5586 57.1339C68.5564 59.1948 69.1165 60.8108 67.1806 61.7416C66.7212 61.9623 66.3147 62.2616 65.834 62.1781C63.6701 61.8009 61.5577 61.9216 59.5818 62.9017C58.0366 63.6689 57.1679 63.0696 56.0207 61.9409C53.8183 59.7728 53.7647 58.9005 55.152 56.2166C57.3694 51.9276 59.8818 47.7549 61.2598 43.0665C61.4599 42.3857 61.6806 41.6942 62.0142 41.0734C62.705 39.789 63.9566 39.7654 64.9117 40.8527C66.9248 43.1451 67.1534 46.029 67.5806 48.8193C68.0314 51.7632 68.2835 54.7372 68.5586 57.1339Z" fill="white"/>
<path fill-rule="evenodd" clip-rule="evenodd" d="M39.8498 37.1195C39.8547 39.0512 38.8475 39.9527 36.7315 39.5698C34.9999 39.2562 33.2768 39.4319 31.5873 39.4441C29.4999 39.4598 28.1262 38.5418 26.7096 37.3038C25.4037 36.1623 25.3387 34.8385 26.086 33.4848C28.4712 29.1679 30.4279 24.6781 31.9602 19.9897C32.5574 18.1637 33.794 18.053 35.0827 19.4982C35.9657 20.4876 36.6129 21.5977 37.0101 22.8293C38.5253 27.5198 39.3754 32.3483 39.8498 37.1195Z" fill="white"/>
<path fill-rule="evenodd" clip-rule="evenodd" d="M5.36884 54.4471C3.87866 54.3757 2.59708 54.4235 1.30193 54.2042C-1.78201 53.6827 -2.75998 52.7655 -2.25635 49.728C-1.6127 45.8454 -1.16122 41.9078 0.0689242 38.1395C0.328241 37.3451 0.60613 36.5136 1.07833 35.8413C1.90843 34.6605 2.95212 34.3062 4.15155 35.4813C5.17667 36.4857 6.09964 37.553 6.72471 38.8581C8.48778 42.5393 9.86008 46.3633 11.0931 50.2509C11.7482 52.3176 10.2966 54.2192 8.27061 54.2935C7.2362 54.3307 6.20322 54.4021 5.36884 54.4471Z" fill="white"/>
<path fill-rule="evenodd" clip-rule="evenodd" d="M9.79809 14.7739C10.0103 18.5322 8.33506 20.2317 4.56105 20.9632C2.58296 21.3468 1.1735 20.4946 -0.350248 19.8481C-2.12689 19.0937 -2.79196 17.7478 -2.2719 15.6233C-1.60254 12.8908 -0.418113 10.3834 0.569147 7.79236C1.37639 5.67354 2.16005 3.554 2.85799 1.39661C3.41305 -0.317882 4.11385 -0.25716 5.53188 0.528647C7.98502 1.88738 8.47723 4.15336 8.84441 6.49721C9.27375 9.23825 9.48949 12.0136 9.79809 14.7739Z" fill="white"/>
<path fill-rule="evenodd" clip-rule="evenodd" d="M32.1835 82.0795C31.4791 82.0216 30.6683 81.7088 30.3633 81.9752C29.2903 82.9132 27.9844 82.2695 26.8043 82.6989C25.5448 83.1575 23.626 80.0564 23.7775 78.5084C24.0025 76.2138 25.9856 74.7622 26.3064 72.4591C26.6235 70.1852 27.5329 67.9914 28.2202 65.774C28.4202 65.1268 28.8481 64.6567 29.6153 64.6167C30.4354 64.5732 30.869 64.9432 31.2434 65.684C33.3136 69.7916 34.4152 74.2543 35.9954 78.5398C36.8683 80.9065 34.6952 81.7402 32.1835 82.0795Z" fill="white"/>
</svg>
