<svg width="183" height="200" viewBox="0 0 183 200" fill="none" xmlns="http://www.w3.org/2000/svg">
<path fill-rule="evenodd" clip-rule="evenodd" d="M167.003 29.4834C167.102 31.8132 165.609 33.4369 162.997 33.7431C159.361 34.1686 155.726 34.6626 152.076 34.9116C148.743 35.1392 146.995 32.4174 145.333 30.2896C144.189 28.8241 144.968 26.7228 146.147 24.9726C150.09 19.1148 153.019 12.7202 155.7 6.20918C156.168 5.07435 156.658 4.02933 158.125 3.84053C159.713 3.6354 160.031 4.83555 160.766 5.78362C162.96 8.61559 163.434 12.0303 164.278 15.3266C165.471 19.9904 166.601 24.6675 167.003 29.4834Z" fill="white"/>
<path fill-rule="evenodd" clip-rule="evenodd" d="M159.369 81.6203C159.366 84.5645 160.166 86.8729 157.401 88.2027C156.744 88.518 156.164 88.9456 155.477 88.8262C152.386 88.2874 149.368 88.4599 146.545 89.86C144.338 90.9561 143.097 90.0999 141.458 88.4874C138.312 85.3901 138.235 84.144 140.217 80.3099C143.385 74.1827 146.974 68.2217 148.942 61.524C149.228 60.5514 149.544 59.5636 150.02 58.6767C151.007 56.8418 152.795 56.8081 154.159 58.3614C157.035 61.6363 157.362 65.7561 157.972 69.7423C158.616 73.9479 158.976 78.1964 159.369 81.6203Z" fill="white"/>
<path fill-rule="evenodd" clip-rule="evenodd" d="M161.495 190.232C158.37 189.877 155.864 188.172 153.675 186.117C152.883 185.373 152.967 183.857 153.545 182.69C155.485 178.769 156.242 174.416 158.266 170.456C159.221 168.585 159.621 165.981 160.323 163.733C160.816 162.15 161.609 160.402 163.512 160.256C165.407 160.111 166.408 161.849 167.209 163.2C169.255 166.657 169.94 170.633 170.749 174.496C171.634 178.721 172.201 183.017 172.824 187.296C173.072 189.005 171.926 190.086 172.093 191.635C172.182 192.46 171.135 192.58 170.141 192.3C167.291 191.5 164.381 190.907 161.495 190.232Z" fill="white"/>
<path fill-rule="evenodd" clip-rule="evenodd" d="M118.357 53.0281C118.364 55.7876 116.925 57.0755 113.902 56.5285C111.428 56.0805 108.967 56.3315 106.553 56.3489C103.571 56.3713 101.609 55.0599 99.5849 53.2914C97.7194 51.6606 97.6265 49.7695 98.694 47.8356C102.102 41.6685 104.897 35.2545 107.086 28.5568C107.939 25.9483 109.706 25.7901 111.547 27.8547C112.808 29.2681 113.733 30.854 114.3 32.6134C116.465 39.3142 117.679 46.2119 118.357 53.0281Z" fill="white"/>
<path fill-rule="evenodd" clip-rule="evenodd" d="M69.0988 77.7819C66.9699 77.6798 65.1391 77.7482 63.2889 77.4349C58.8833 76.6899 57.4862 75.3796 58.2056 71.0403C59.1251 65.4937 59.7701 59.8685 61.5275 54.4852C61.8979 53.3504 62.2949 52.1625 62.9695 51.2022C64.1553 49.5153 65.6463 49.0091 67.3598 50.6879C68.8242 52.1227 70.1428 53.6474 71.0357 55.5119C73.5544 60.7707 75.5148 66.2336 77.2763 71.7873C78.2121 74.7397 76.1384 77.4563 73.2442 77.5625C71.7664 77.6155 70.2907 77.7176 69.0988 77.7819Z" fill="white"/>
<path fill-rule="evenodd" clip-rule="evenodd" d="M114.79 166.025C112.876 166.427 111.068 167.003 109.052 166.605C106.081 166.019 102.747 161.58 103.688 158.814C105.777 152.675 107.035 146.315 108.931 140.129C109.363 138.719 109.666 137.141 111.534 136.913C113.412 136.685 114.168 138.144 114.812 139.437C118.043 145.92 120.168 152.826 122.293 159.716C122.921 161.752 122.205 163.364 120.129 164.534C118.389 165.516 116.35 164.831 114.79 166.025Z" fill="white"/>
<path fill-rule="evenodd" clip-rule="evenodd" d="M75.4261 21.1056C75.7292 26.4746 73.3361 28.9024 67.9446 29.9475C65.1188 30.4955 63.1052 29.278 60.9285 28.3544C58.3904 27.2767 57.4403 25.3541 58.1832 22.319C59.1395 18.4155 60.8315 14.8334 62.2419 11.132C63.3951 8.10507 64.5146 5.07715 65.5117 1.99515C66.3046 -0.454118 67.3057 -0.367372 69.3315 0.75521C72.836 2.69626 73.5391 5.93338 74.0637 9.28174C74.677 13.1975 74.9852 17.1623 75.4261 21.1056Z" fill="white"/>
<path fill-rule="evenodd" clip-rule="evenodd" d="M49.3397 140.685C49.3223 138.677 49.9775 136.826 50.9501 135.142C53.4126 130.875 55.173 126.301 57.011 121.759C58.502 118.072 58.8286 118.361 61.9228 120.334C65.1436 122.387 65.9519 125.435 67.0081 128.496C68.1552 131.818 69.1369 135.21 69.9544 138.628C70.7004 141.741 70.0697 142.381 67.0877 143.407C64.3343 144.353 61.8004 145.858 58.7684 146.056C57.3202 146.15 56.6661 145.694 56.2323 144.443C55.8405 143.313 54.9853 143.393 54.0678 143.774C51.5818 144.806 49.3346 143.334 49.3397 140.685Z" fill="white"/>
<path fill-rule="evenodd" clip-rule="evenodd" d="M69.2147 199.997C65.8031 199.627 62.8415 199.462 59.9391 198.955C55.1661 198.121 53.1383 194.59 54.1609 189.784C55.1804 184.993 56.1387 180.206 58.0318 175.66C59.5707 171.966 61.376 171.487 64.0478 174.343C65.2224 175.599 66.2174 177.149 66.8747 178.738C69.127 184.192 71.5068 189.613 72.6651 195.452C73.2938 198.616 72.0467 200.076 69.2147 199.997Z" fill="white"/>
<path fill-rule="evenodd" clip-rule="evenodd" d="M24.7166 64.0347C23.9216 63.2918 25.087 61.3446 23.2919 60.8486C22.6643 60.6751 22.2704 61.7181 22.501 62.3243C22.9306 63.4489 22.5357 65.1073 24.0808 65.5481C24.836 65.7635 24.7176 64.8868 24.7166 64.0347ZM31.7164 68.971C31.8092 73.1378 30.8163 73.8644 27.2536 73.7961C25.2268 73.7583 23.1858 74.4257 21.1519 74.7778C17.978 75.3279 13.1683 72.5459 12.3233 69.8487C12.0457 68.9567 12.0742 68.2893 12.4274 67.4892C14.8878 61.8926 17.2922 56.2715 19.7741 50.6851C20.859 48.2471 22.1122 48.0522 24.139 49.8759C28.6956 53.9804 29.6427 59.7628 31.1949 65.243C31.5939 66.6513 31.6113 68.1689 31.7164 68.971Z" fill="white"/>
<path fill-rule="evenodd" clip-rule="evenodd" d="M0 119.774C0.643954 113.37 2.70236 107.339 4.89854 101.376C5.83743 98.829 7.08452 98.7831 9.26233 100.483C11.2054 102.001 12.279 104.048 12.6393 106.354C13.4945 111.829 14.1935 117.329 14.8497 122.833C15.1263 125.155 13.6639 126.342 11.3309 126.823C7.61009 127.59 4.64749 126.116 1.75429 124.217C0.164305 123.173 0.19288 121.415 0 119.774Z" fill="white"/>
<path fill-rule="evenodd" clip-rule="evenodd" d="M107.405 117.256C106.399 117.174 105.241 116.727 104.805 117.107C103.272 118.447 101.407 117.528 99.7208 118.141C97.9216 118.796 95.1805 114.366 95.3968 112.155C95.7183 108.877 98.5513 106.803 99.0095 103.513C99.4626 100.265 100.762 97.1306 101.744 93.9629C102.029 93.0383 102.641 92.3668 103.737 92.3096C104.908 92.2474 105.528 92.776 106.062 93.8343C109.02 99.7023 110.594 106.078 112.851 112.2C114.098 115.581 110.994 116.772 107.405 117.256Z" fill="white"/>
<path fill-rule="evenodd" clip-rule="evenodd" d="M159.967 131.343C160.742 134.782 156.951 136.653 154.446 136.019C153.279 135.723 152.334 135.335 150.922 136.003C149.187 136.823 146.56 137.824 146.111 134.166C146.075 133.876 145.323 133.726 145.003 133.412C143.017 131.459 142.954 128.658 144.774 126.438C145.181 125.942 145.595 125.391 145.796 124.795C147.17 120.728 150.191 117.311 150.492 112.815C150.57 111.651 151.003 110.566 152.331 110.356C153.665 110.144 154.311 111.1 154.854 112.13C155.112 112.621 155.545 113.049 155.694 113.564C157.397 119.424 158.919 125.329 159.967 131.343Z" fill="white"/>
</svg>
