<svg width="24" height="20" viewBox="0 0 24 20" fill="none" xmlns="http://www.w3.org/2000/svg">
<path d="M15.8036 1.004V1H16.8424L17.222 1.07592C17.475 1.1252 17.7048 1.18979 17.9112 1.2697C18.1177 1.34961 18.3174 1.44285 18.5105 1.54939C18.7037 1.65593 18.8788 1.76449 19.036 1.87503C19.1918 1.98425 19.3317 2.10012 19.4555 2.22264C19.578 2.3465 19.7691 2.37847 20.0289 2.31853C20.2886 2.2586 20.5683 2.17535 20.8679 2.06881C21.1676 1.96227 21.4639 1.8424 21.7569 1.70921C22.05 1.57602 22.2284 1.49145 22.2924 1.45549C22.355 1.41822 22.3883 1.39824 22.3923 1.39556L22.3962 1.38957L22.4162 1.37958L22.4362 1.36959L22.4562 1.3596L22.4761 1.34961L22.4801 1.34362L22.4861 1.33962L22.4921 1.33563L22.4961 1.32963L22.5161 1.32364L22.5361 1.31964L22.5321 1.34961L22.5261 1.37958L22.5161 1.40954L22.5061 1.43951L22.4961 1.45949L22.4861 1.47947L22.4761 1.50943C22.4695 1.52941 22.4628 1.55604 22.4562 1.58935C22.4495 1.62265 22.3862 1.75582 22.2664 1.9889C22.1465 2.22198 21.9967 2.45838 21.8169 2.69811C21.6371 2.93785 21.4759 3.11897 21.3334 3.24151C21.1896 3.36537 21.0944 3.45194 21.0477 3.50122C21.0011 3.55182 20.9445 3.59843 20.8779 3.64107L20.778 3.70699L20.758 3.71698L20.7381 3.72697L20.7341 3.73296L20.7281 3.73696L20.7221 3.74095L20.7181 3.74695L20.6981 3.75694L20.6781 3.76693L20.6742 3.77292L20.6681 3.77691L20.6622 3.78091L20.6582 3.7869L20.6542 3.7929L20.6482 3.79689L20.6422 3.80089L20.6382 3.80688H20.7381L21.2974 3.68701C21.6704 3.6071 22.0266 3.51055 22.3663 3.39734L22.9057 3.21754L22.9656 3.19756L22.9956 3.18757L23.0155 3.17758L23.0355 3.16759L23.0555 3.1576L23.0755 3.14761L23.1154 3.14162L23.1554 3.13762V3.17758L23.1454 3.18158L23.1354 3.18757L23.1314 3.19356L23.1254 3.19756L23.1194 3.20155L23.1154 3.20755L23.1115 3.21354L23.1054 3.21754L23.0994 3.22153L23.0955 3.22753L23.0915 3.23352L23.0855 3.23751L23.0755 3.25749L23.0655 3.27747L23.0595 3.28147C23.0568 3.28546 22.9723 3.39865 22.8058 3.62109C22.6393 3.84484 22.5494 3.95803 22.5361 3.96071C22.5228 3.96471 22.5041 3.98468 22.4801 4.02064C22.4575 4.05792 22.3163 4.20644 22.0566 4.46615C21.7969 4.72586 21.5425 4.95692 21.2935 5.15938C21.0431 5.36315 20.9166 5.61353 20.9139 5.91054C20.9099 6.20622 20.8946 6.54052 20.8679 6.91343C20.8413 7.28636 20.7913 7.68923 20.7181 8.12209C20.6449 8.55495 20.5316 9.0444 20.3785 9.59046C20.2253 10.1365 20.0388 10.6693 19.8191 11.1887C19.5993 11.7081 19.3696 12.1742 19.1299 12.5871C18.8901 13 18.6704 13.3496 18.4706 13.636C18.2708 13.9223 18.0677 14.192 17.8613 14.4451C17.6548 14.6981 17.3938 14.9831 17.0782 15.3001C16.7612 15.6158 16.588 15.7889 16.5587 15.8195C16.5281 15.8488 16.3976 15.9581 16.1671 16.1472C15.9381 16.3376 15.6917 16.5281 15.428 16.7185C15.1656 16.9077 14.9245 17.0655 14.7048 17.192C14.485 17.3185 14.22 17.463 13.9097 17.6255C13.6007 17.7893 13.2664 17.9412 12.9068 18.081C12.5472 18.2209 12.1676 18.3507 11.768 18.4706C11.3685 18.5905 10.9822 18.6837 10.6093 18.7503C10.2364 18.8169 9.81355 18.8735 9.34073 18.9201L8.63152 18.99V19H7.33296V18.99L7.16315 18.98C7.04996 18.9734 6.95672 18.9667 6.88346 18.96C6.81022 18.9534 6.53385 18.9168 6.05438 18.8502C5.57492 18.7836 5.19868 18.717 4.92564 18.6504C4.65262 18.5838 4.24639 18.4573 3.70699 18.2708C3.16759 18.0844 2.7061 17.8959 2.32253 17.7054C1.9403 17.5163 1.70056 17.3964 1.60333 17.3458C1.50744 17.2966 1.39956 17.2353 1.27969 17.162L1.09989 17.0522L1.09591 17.0462L1.0899 17.0422L1.08391 17.0382L1.07991 17.0322L1.05993 17.0222L1.03996 17.0122L1.03598 17.0062L1.02997 17.0022L1.02397 16.9982L1.01998 16.9922L1.016 16.9862L1.00999 16.9822H1V16.9423L1.01998 16.9463L1.03996 16.9523L1.12986 16.9623C1.18979 16.9689 1.35295 16.9789 1.61931 16.9922C1.8857 17.0056 2.1687 17.0056 2.46837 16.9922C2.76804 16.9789 3.07438 16.9489 3.38735 16.9023C3.70034 16.8557 4.06993 16.7758 4.49612 16.6626C4.92232 16.5494 5.31389 16.4149 5.67083 16.259C6.02644 16.1019 6.27947 15.9847 6.42999 15.9074C6.57914 15.8315 6.80689 15.6903 7.11321 15.4839L7.5727 15.1743L7.57669 15.1683L7.58269 15.1643L7.5887 15.1603L7.59268 15.1543L7.59667 15.1483L7.60266 15.1443L7.60868 15.1403L7.61265 15.1343L7.63263 15.1283L7.65261 15.1243L7.6566 15.1043L7.6626 15.0844L7.66861 15.0804L7.67259 15.0744L7.51276 15.0644C7.40622 15.0577 7.303 15.051 7.20311 15.0444C7.10322 15.0377 6.94673 15.0078 6.73363 14.9545C6.52055 14.9012 6.2908 14.8213 6.04439 14.7148C5.79801 14.6082 5.55828 14.4817 5.32519 14.3352C5.09213 14.1887 4.92364 14.0668 4.81976 13.9696C4.71721 13.8737 4.58402 13.7378 4.4202 13.562C4.25772 13.3849 4.11654 13.2031 3.99667 13.0166C3.8768 12.8302 3.76227 12.6151 3.65307 12.3714L3.48724 12.0078L3.47725 11.9778L3.46726 11.9478L3.46127 11.9279L3.45727 11.9079L3.48724 11.9119L3.5172 11.9179L3.73696 11.9478C3.88348 11.9678 4.11322 11.9745 4.42619 11.9678C4.73919 11.9612 4.95561 11.9478 5.07547 11.9279C5.19534 11.9079 5.2686 11.8946 5.29523 11.8879L5.33518 11.8779L5.38513 11.8679L5.43507 11.8579L5.43907 11.8519L5.44506 11.8479L5.45107 11.844L5.45505 11.838L5.41509 11.828L5.37514 11.818L5.33518 11.808L5.29523 11.798L5.25527 11.788C5.22864 11.7814 5.18203 11.768 5.11543 11.7481C5.04884 11.7281 4.86904 11.6548 4.57603 11.5283C4.28303 11.4018 4.04995 11.2786 3.8768 11.1587C3.70323 11.0385 3.53772 10.907 3.38135 10.7652C3.22553 10.6213 3.0544 10.4362 2.86792 10.2098C2.68147 9.98336 2.515 9.72031 2.36848 9.42064C2.22198 9.12098 2.1121 8.83463 2.03885 8.5616C1.96588 8.29017 1.91774 8.01267 1.89503 7.73252L1.85905 7.31299L1.87902 7.31698L1.899 7.32297L1.91898 7.33296L1.93896 7.34295L1.95893 7.35294L1.97891 7.36293L2.28857 7.50277C2.49502 7.59601 2.75139 7.67592 3.05771 7.74251C3.36405 7.80909 3.54717 7.84573 3.6071 7.85239L3.697 7.86238H3.8768L3.87283 7.85638L3.86681 7.85239L3.86082 7.84839L3.85683 7.8424L3.85285 7.8364L3.84684 7.83241L3.84084 7.82841L3.83685 7.82242L3.81687 7.81243L3.79689 7.80244L3.79292 7.79645L3.7869 7.79245L3.78091 7.78846L3.77691 7.78246L3.75694 7.77248L3.73696 7.76249L3.73298 7.75649C3.72899 7.75382 3.67171 7.7112 3.56115 7.62863C3.45194 7.54473 3.3374 7.43619 3.21754 7.303C3.09767 7.16981 2.9778 7.02996 2.85794 6.88346C2.73785 6.73663 2.63089 6.57953 2.53829 6.41398C2.44507 6.24751 2.3465 6.03573 2.24262 5.77869C2.14007 5.52297 2.06216 5.26526 2.00888 5.00555C1.95562 4.74584 1.92565 4.48946 1.91898 4.2364C1.91233 3.98335 1.91898 3.76693 1.93896 3.58713C1.95893 3.40733 1.99889 3.20421 2.05882 2.9778C2.11876 2.75139 2.20534 2.51166 2.31853 2.2586L2.48835 1.87902L2.49834 1.84906L2.50832 1.81909L2.51434 1.81509L2.51831 1.8091L2.52231 1.80311L2.5283 1.79911L2.53432 1.80311L2.53829 1.8091L2.54229 1.81509L2.54828 1.81909L2.55429 1.82309L2.55827 1.82908L2.56226 1.83507L2.56826 1.83907L2.57825 1.85905L2.58824 1.87902L2.59425 1.88302L2.59822 1.88901L2.86792 2.18868C3.04772 2.38846 3.26083 2.61155 3.50721 2.85794C3.75362 3.10432 3.89013 3.23218 3.91676 3.24151C3.94341 3.25216 3.97669 3.28278 4.01665 3.33341C4.0566 3.38269 4.1898 3.50056 4.4162 3.68701C4.64263 3.87347 4.93896 4.08991 5.30522 4.33629C5.67149 4.58268 6.0777 4.82575 6.52386 5.06548C6.97005 5.30522 7.44951 5.52164 7.96226 5.71476C8.47503 5.90789 8.83463 6.03441 9.04107 6.09434C9.24752 6.15427 9.60044 6.23085 10.0999 6.32408C10.5993 6.41732 10.9756 6.47725 11.2286 6.50388C11.4817 6.53052 11.6548 6.54584 11.7481 6.54983L11.8879 6.55383L11.8839 6.52386L11.8779 6.4939L11.838 6.24417C11.8113 6.0777 11.798 5.84462 11.798 5.54495C11.798 5.24528 11.8213 4.96893 11.8679 4.71587C11.9146 4.46281 11.9845 4.20644 12.0777 3.94673C12.1709 3.68701 12.2622 3.47857 12.3514 3.32142C12.442 3.16559 12.5605 2.98779 12.707 2.78801C12.8535 2.58824 13.0433 2.3818 13.2764 2.1687C13.5094 1.9556 13.7758 1.76581 14.0755 1.59933C14.3751 1.43286 14.6515 1.30632 14.9046 1.21976C15.1576 1.13319 15.3707 1.07657 15.5438 1.04994C15.717 1.02331 15.8036 1.00799 15.8036 1.004Z" fill="#5DA8DC" stroke="#5DA8DC" stroke-width="0.5"/>
</svg>
