<svg width="121" height="120" viewBox="0 0 121 120" fill="none" xmlns="http://www.w3.org/2000/svg">
<path fill-rule="evenodd" clip-rule="evenodd" d="M17.1618 78.4765C19.1303 78.9384 20.9942 78.6496 22.7593 77.6336C20.8222 77.3991 19.012 78.0837 17.1618 78.4765ZM32.8073 59.3822C32.941 65.8046 31.0079 70.5316 28.3901 74.9703C26.5554 78.0817 23.5587 79.6384 19.9445 79.8227C16.8664 79.9799 13.8354 79.7403 10.8997 78.624C8.68646 77.7831 7.21936 76.1583 5.99498 74.2831C3.7188 70.7958 1.04576 67.4376 0.954101 63.0036C0.838883 57.467 1.97928 52.2592 5.63602 47.8876C7.18454 46.0369 9.02238 44.7946 11.6918 45.211C14.3413 45.6242 15.4105 48.8508 15.3906 50.7839C15.3813 51.6785 14.6347 52.1291 14.1944 52.654C12.1885 55.0454 11.7794 58.0385 10.8336 60.8293C10.6385 61.4038 11.0343 61.5621 11.4747 61.6578C14.3321 62.2785 16.9268 62.0957 18.8701 59.4902C19.9004 58.1097 21.0147 56.8008 21.6958 55.1913C22.0199 54.4263 22.0353 53.7247 21.7506 52.91C21.4141 51.9443 20.7331 50.7562 22.4306 50.2278C22.7778 50.1197 22.7066 49.8243 22.5443 49.5416C21.832 48.3054 22.2432 47.101 23.5848 46.4492C26.3019 45.1285 30.5245 47.5419 30.7867 50.5575C30.8143 50.8745 30.8343 51.2427 31.0028 51.4885C32.8887 54.2353 32.519 57.4388 32.8073 59.3822Z" fill="white"/>
<path fill-rule="evenodd" clip-rule="evenodd" d="M70.1411 60.0826C68.5895 59.8404 67.0789 59.9505 65.6517 60.6192C67.1936 60.8128 68.7298 60.9848 70.1411 60.0826ZM61.5843 29.2131C60.935 29.7748 60.0327 29.4967 59.6491 30.3012C60.1556 30.6883 60.6211 30.1496 61.0625 30.2454C61.678 30.3796 62.9408 30.1624 61.9422 31.4816C61.8685 31.5794 61.6964 31.6772 61.9054 31.7801C63.6346 32.6342 62.3401 33.7326 62.0682 34.6621C61.7855 35.6335 61.3508 36.5639 61.3277 37.5937C61.296 39.0342 61.2816 40.4752 61.3011 41.9146C61.3247 43.6818 61.5991 43.9086 63.351 43.7422C66.3727 43.4549 68.4932 41.2771 68.42 38.2492C68.3596 35.7666 68.8527 33.3911 69.4119 31.0217C69.7002 29.8009 70.4663 28.8223 71.8227 28.5893C73.4199 28.3144 75.7371 29.297 76.3321 30.715C77.3337 33.1013 78.236 35.5674 78.5909 38.1309C79.2909 43.1917 79.147 48.2398 77.7285 53.2008C77.1745 55.138 76.4186 57.026 75.2485 58.6247C73.7097 60.7268 71.3987 61.6726 68.821 61.9419C65.5641 62.2819 62.4261 62.1759 59.7034 59.954C59.1069 59.4671 58.7305 58.831 58.3244 58.2693C55.6503 54.5685 52.4468 51.092 51.8128 46.3226C51.0826 40.83 51.9286 35.5618 54.7583 30.7232C55.74 29.0441 57.0831 27.7833 59.2569 28.0286C60.1443 28.129 60.9708 28.3922 61.5843 29.2131Z" fill="white"/>
<path fill-rule="evenodd" clip-rule="evenodd" d="M50.2085 104.137C51.6695 104.879 54.1561 104.799 55.3395 104.025C53.6343 103.931 52.0069 103.807 50.2085 104.137ZM66.1576 88.6149C66.2985 93.3321 64.943 98.0663 61.7732 102.227C60.4557 103.957 58.6624 105.04 56.5644 105.508C52.9604 106.313 49.4537 105.975 46.0981 104.353C44.146 103.41 42.8996 101.803 41.6251 100.105C39.2567 96.9505 38.0871 93.3045 37.1034 89.6191C35.9779 85.4031 36.7732 81.3388 38.7165 77.4178C39.3842 76.07 39.8415 74.7135 41.2272 73.9065C42.2821 73.292 43.2883 73.5583 44.3012 73.9275C44.5439 74.0161 44.9218 74.3049 44.9019 74.4575C44.6192 76.6185 46.4606 78.4235 45.9009 80.6275C45.6843 81.4811 45.566 82.3614 45.4298 83.2335C45.0514 85.6561 46.37 87.4438 48.8582 87.7141C51.2813 87.9773 53.4075 87.2379 54.9017 85.2546C56.1332 83.6211 57.0166 81.7761 57.4887 79.7621C57.8804 78.0907 59.199 77.1915 60.9032 77.4465C63.7345 77.87 64.4381 78.6289 64.7423 81.5795C64.7607 81.7628 64.7515 81.9917 64.8559 82.1156C66.3476 83.9012 65.8908 86.0857 66.1576 88.6149Z" fill="white"/>
<path fill-rule="evenodd" clip-rule="evenodd" d="M105.145 38.4575C106.117 38.6966 107.087 39.0868 107.983 38.3632C107.025 38.267 106.068 38.0222 105.145 38.4575ZM103.188 17.407C105.275 18.0568 103.621 19.2828 103.628 20.2153C103.632 20.673 103.102 21.1908 103.603 21.6757C104.09 22.1478 104.707 22.1125 105.303 21.8734C107.963 20.8067 109.402 18.658 109.964 16.0193C110.376 14.0806 111.055 12.2279 111.468 10.2953C111.838 8.56141 113.607 7.64326 115.352 8.03807C117.436 8.50969 118.739 9.64702 119.028 11.8423C119.371 14.4518 120.108 16.9718 120.029 19.6817C119.848 25.9838 118.064 31.6438 114.152 36.6073C110.502 41.237 103.507 41.4383 99.7502 36.8623C98.532 35.3778 97.4029 33.6747 97.1822 31.6064C97.1458 31.2654 96.9174 30.9279 96.7249 30.6217C93.5152 25.5296 93.8465 20.2772 96.2251 15.0556C97.8535 11.4823 100.653 11.6549 102.929 13.357C103.214 13.57 103.607 13.824 103.542 14.2311C103.458 14.754 102.935 14.4943 102.615 14.6029C102.312 14.7063 101.891 14.7196 101.943 15.1508C101.997 15.6014 102.425 15.4673 102.732 15.4995C103.291 15.5579 103.878 15.5948 104.093 16.2533C104.324 16.9631 103.519 16.9651 103.188 17.407Z" fill="white"/>
<path fill-rule="evenodd" clip-rule="evenodd" d="M5.86303 111.597C5.55783 112.048 5.75038 112.449 6.2051 112.494C6.91945 112.564 6.4765 112.033 6.50057 111.73C6.53488 111.299 6.73663 111.573 6.95119 111.613C7.42282 111.701 7.38441 111.262 7.19136 111.135C6.8708 110.924 6.42734 110.751 6.06223 110.794C5.63209 110.843 5.74884 111.266 5.86303 111.597ZM4.07128 117.247C2.98055 116.91 1.73672 118.221 1.07 116.516C1.06692 117.253 0.634219 118.345 1.49144 118.301C2.2744 118.261 3.45218 118.329 4.07128 117.247ZM10.6433 113.274C11.4518 113.756 11.6126 112.76 12.4668 112.802C11.31 113.703 10.6469 114.687 10.1967 115.923C9.89922 116.74 8.65948 117.238 7.86884 117.625C5.06726 118.997 2.04857 119.91 -1.1135 119.999C-2.07057 120.026 -2.99436 119.426 -3.99956 119.357C-4.3109 119.336 -4.60381 119.083 -4.58179 118.691C-4.57667 118.594 -4.4041 118.415 -4.33292 118.426C-3.75479 118.519 -3.34923 118.471 -3.63445 117.726C-3.76196 117.393 -3.71536 116.932 -4.15882 116.808C-4.93769 116.589 -4.32627 117.694 -4.92591 117.643C-5.49841 118.129 -4.75078 115.742 -5.78876 117.269C-5.8543 117.217 -5.95211 117.178 -5.98027 117.11C-6.59681 115.624 -8.04292 114.796 -8.84688 113.404C-9.61294 112.078 -10.5966 110.878 -11.1748 109.42C-12.9133 105.044 -13.4638 100.538 -12.5927 95.9072C-12.14 93.4983 -10.611 92.5172 -8.40496 92.9458C-7.64964 93.0923 -7.06536 93.4702 -6.76477 94.1144C-5.62848 96.5508 -3.91405 98.8193 -4.80455 101.827C-5.08004 102.758 -4.55158 103.752 -3.88947 104.513C-3.48032 104.982 -2.98053 105.262 -2.28923 104.909C-0.967044 104.234 0.346944 103.588 1.282 102.354C1.94974 101.472 2.74551 100.688 3.45679 99.8379C4.43895 98.6637 4.70728 97.173 4.81686 95.7617C4.98431 93.61 6.36999 92.6012 8.37886 93.5081C9.19563 93.8768 9.99088 94.4273 10.335 95.2327C11.246 97.362 12.2814 99.4087 12.773 101.755C13.2533 104.046 13.39 106.272 13.2733 108.562C13.2226 109.558 12.583 110.426 12.6716 111.469C12.688 111.662 12.2409 112.061 11.987 112.08C11.1646 112.141 11.1139 112.873 10.6433 113.274Z" fill="white"/>
<path fill-rule="evenodd" clip-rule="evenodd" d="M92.5086 71.2408C91.6626 72.1129 91.4127 72.1969 91.128 71.6418C90.7424 70.8901 89.6414 70.634 89.073 71.1789C88.7243 71.5128 88.7305 71.948 89.0326 72.2594C89.5022 72.7438 92.2505 71.9603 92.5086 71.2408ZM94.7049 81.6826C94.1733 81.1813 93.2977 81.5331 93.0247 81.1895C92.0738 79.9917 91.4347 81.466 90.6328 81.3733C90.492 81.3569 89.9533 81.8772 90.1079 82.2392C90.2657 82.6074 90.9508 82.8926 91.15 82.7221C92.1737 81.8444 93.5645 82.3637 94.7049 81.6826ZM91.7333 76.0267C91.1679 76.019 90.5094 76.037 90.4183 76.8092C90.3107 77.7181 91.148 77.3079 91.5622 77.5056C92.0764 77.7519 92.5331 77.2659 92.9592 77.4139C93.4242 77.5747 93.7063 77.439 93.8748 77.0964C94.1196 76.5987 93.6612 76.2397 93.4564 75.8664C93.2393 75.4726 92.8778 75.7671 92.6161 75.9059C92.3478 76.0487 92.1491 76.3975 91.7333 76.0267ZM103.031 61.6066C103.757 61.9149 104.37 62.2938 104.482 63.0302C104.569 63.6022 103.902 63.3088 103.58 63.6821C105.119 63.7179 104.814 65.0708 104.651 65.6326C104.221 67.1125 104.766 68.5274 104.593 69.9735C104.479 70.9239 104.26 71.8861 104.181 72.8472C104.1 73.8442 103.432 72.4703 102.914 72.5425C102.642 72.839 102.662 73.1504 103.01 73.327C103.368 73.5088 104.002 73.472 103.952 73.9758C103.891 74.5878 103.714 75.5264 103.315 75.7005C102.24 76.1696 102.489 77.2357 102.555 77.7294C102.697 78.7945 102.211 78.6639 101.646 78.5041C100.827 78.2722 100.336 78.5333 100.172 79.327C99.9623 80.3399 98.824 80.173 98.3155 80.8863C97.8167 81.5853 97.0358 82.0795 97.1039 83.1251C95.6983 82.9566 96.3481 81.7184 95.7905 80.9667C95.5918 83.4221 93.7775 83.3796 92.1342 83.5624C91.5884 83.6239 90.9698 83.4139 90.4905 83.6003C89.4847 83.9905 89.558 83.5041 89.8125 82.5869C89.2518 83.6797 88.734 84.052 87.9449 83.1435C87.6587 82.8143 87.185 82.8645 86.7794 82.7738C86.0328 82.6064 85.9417 82.4323 85.9617 81.4711C85.9673 81.2002 85.7958 81.2279 85.6293 81.1516C83.9164 80.3671 83.1724 78.9327 83.1596 77.0539C83.1534 76.1593 83.5191 74.7332 81.7534 74.8264C81.5102 74.8387 81.4615 74.6538 81.3832 74.4874C79.7619 71.0375 80.2899 67.7203 82.1134 64.5465C82.9553 63.0819 85.1096 62.3532 86.7472 62.9288C87.2828 63.1173 87.8579 63.6273 88.0852 64.1373C88.3116 64.6438 87.7422 64.846 87.2229 64.9126C86.8189 64.9643 86.9438 65.311 87.0299 65.5768C87.1743 66.0218 87.4748 66.137 87.8999 65.9798C88.9343 65.5962 89.1673 65.7678 89.0459 66.9937C88.9573 67.8919 90.237 68.2493 90.9534 68.7358C91.4388 69.0655 91.6974 68.3589 91.8403 67.9528C91.9443 67.6599 92.1045 67.4407 92.3391 67.3214C94.605 66.1605 94.8544 63.9381 95.2057 61.8058C95.3706 60.8058 95.3957 59.7278 95.5892 58.782C95.7853 57.8229 96.089 56.8177 96.3394 55.8289C96.7414 54.244 98.0467 54.1933 99.2977 54.264C100.106 54.3095 100.907 54.5881 101.696 54.8145C101.887 54.8692 102.173 55.1458 102.156 55.2891C102.005 56.5361 103.465 57.4266 102.866 58.8266C102.715 59.1799 103.199 59.8845 103.515 60.3428C104.115 61.2123 104.137 61.24 103.031 61.6066Z" fill="white"/>
<path fill-rule="evenodd" clip-rule="evenodd" d="M42.3205 35.6664C41.1873 36.179 40.3895 36.7592 39.9137 37.7091C40.6911 37.1064 41.9918 37.1064 42.3205 35.6664ZM37.8992 18.8227C38.9531 18.6266 39.4677 17.9998 40.0592 17.5184C41.2057 16.5844 42.1428 16.8824 42.4823 18.3854C42.6298 19.0373 42.6662 19.4003 43.5526 19.5811C44.4272 19.7598 44.6228 21.0093 45.0197 21.8219C46.243 24.3291 46.7131 27.0231 46.5544 29.7924C46.3429 33.4865 44.505 36.2574 41.4827 38.3174C40.0976 39.2617 38.6735 39.8178 36.9273 39.6125C36.0962 39.5147 35.6174 38.9842 34.9768 38.6657C32.7739 37.5719 30.4987 36.6245 28.4422 35.2322C26.2295 33.7349 23.6543 28.1271 24.7332 25.154C25.4245 23.2486 26.5905 22.1 28.5272 21.697C29.641 21.465 30.1505 21.9274 30.2319 23.29C30.831 22.8691 31.1209 22.3801 31.2863 21.7251C31.6744 20.1915 32.2449 18.7244 32.9659 17.3059C33.8211 15.6217 35.2416 14.7993 36.9903 14.3871C37.677 14.2253 38.3616 14.3108 38.779 14.8592C39.1846 15.3918 39.1497 16.0355 38.7815 16.6797C38.4415 17.2742 38.2485 17.9527 37.8992 18.8227Z" fill="white"/>
<path fill-rule="evenodd" clip-rule="evenodd" d="M69.9206 6.60303C70.786 4.64075 71.1783 2.61498 72.7058 1.18424C72.9398 0.96507 73.1436 0.679331 73.4202 0.545679C74.0782 0.227679 74.9139 -0.288494 75.4833 0.202588C75.977 0.628635 75.8955 1.52887 75.6446 2.26114C75.5233 2.61293 75.0737 3.09582 75.5893 3.35544C76.0256 3.5741 76.275 3.00928 76.5536 2.71893C76.7144 2.55097 76.8342 2.34256 77.0027 2.18535C77.3171 1.89193 77.4692 1.25644 78.0611 1.49097C78.5338 1.67737 78.9506 2.0179 79.0202 2.59808C79.0848 3.13627 79.0801 3.63708 79.9174 3.27249C80.3434 3.08711 80.642 3.64016 80.8729 3.95252C83.4246 7.4029 83.9531 10.9726 80.6364 14.489C79.6219 15.5639 78.5798 16.6121 77.5521 17.6741C76.9873 18.2579 76.3011 18.2502 75.616 18.007C74.8427 17.7325 75.6764 17.1052 75.3312 16.6029C74.5447 17.8672 73.7878 17.6992 72.7816 16.7872C72.1579 16.2224 71.4103 15.5162 70.2366 15.9889C69.8044 16.163 68.982 15.6827 68.4776 15.3114C65.9495 13.451 64.4276 10.9885 64.3677 7.78388C64.3436 6.51291 64.761 5.38583 66.0463 4.81332C66.2926 4.70374 66.7898 4.57777 66.8087 4.62027C67.3981 5.94604 69.1162 5.41655 69.9206 6.60303Z" fill="white"/>
</svg>
