<svg width="130" height="120" viewBox="0 0 130 120" fill="none" xmlns="http://www.w3.org/2000/svg">
<path fill-rule="evenodd" clip-rule="evenodd" d="M42.5918 56.3362C43.674 55.2667 44.7562 54.1972 45.8384 53.1278C44.3674 53.785 43.333 54.8873 42.5918 56.3362ZM109.369 24.4279C108.589 25.5197 107.978 26.3773 107.363 27.232C107.264 27.3707 106.65 27.1726 107.08 27.6347C107.189 27.7526 107.645 27.7646 107.662 27.7205C108.066 26.6349 109.648 26.227 109.369 24.4279ZM103.919 26.1363C104.848 25.4401 106.682 25.726 105.611 23.6775C104.906 24.3467 103.95 24.7425 103.919 26.1363ZM102.985 26.4056C101.686 27.1604 100.849 28.055 99.6904 28.4132C99.3408 28.5211 98.8413 28.7331 99.047 29.1885C99.2114 29.5538 99.694 29.4426 100.089 29.3624C101.57 29.0626 102.435 28.1335 102.985 26.4056ZM43.3589 46.5028C43.276 46.3771 43.1943 46.251 43.1118 46.1244C40.8158 46.7082 39.0884 48.1653 37.6697 50.0975C39.5659 48.8987 41.4619 47.7012 43.3589 46.5028ZM112.343 20.4467C112.676 19.4677 112.805 18.9085 111.595 18.5519C110.955 18.3633 109.86 18.5772 109.586 17.4663C109.54 17.2776 109.195 17.5141 109.069 17.6824C108.973 17.8107 108.602 17.8863 108.937 18.1604C110.031 19.0581 109.625 19.9779 108.879 20.961C109.601 20.5637 110.558 21.36 111.055 20.1884C111.188 19.8735 110.585 19.1897 111.371 19.2371C111.941 19.2707 112.207 19.7554 112.343 20.4467ZM107.172 24.1058C106.68 22.7737 107.873 21.6048 106.548 20.5896C106.006 20.1742 106.93 19.6851 107.167 19.2371C108.558 16.6162 110.296 14.2066 112.202 11.9587C113.008 11.0089 114.472 10.9744 115.755 11.1811C116.056 11.23 116.434 11.4049 116.395 11.8349C116.344 12.3954 115.879 12.0507 115.614 12.147C115.247 12.2805 114.861 12.371 114.652 12.8674C115.706 13.3606 116.654 14.0218 117.968 13.7369C118.896 13.5361 118.92 14.6461 119.068 15.0746C119.42 16.0964 120.207 16.2283 120.965 16.6419C121.692 17.039 122.155 17.7114 123.127 17.012C123.49 16.7491 124.314 16.8235 124.755 17.4058C124.356 18.0751 123.755 17.6606 123.23 17.6552C123.336 19.1594 124.372 18.7381 125.181 18.7624C125.599 18.7747 126.116 18.5509 126.341 19.1296C126.591 19.7711 125.674 19.6093 125.64 20.1928C126.899 20.1894 127.497 20.7592 126.379 21.7116C125.616 22.3617 126.643 23.1545 125.798 23.666C125.67 23.0739 125.165 22.7088 124.737 22.2538C124.049 22.8292 125.027 23.1754 124.938 23.6764C124.131 23.9582 123.59 22.837 122.75 23.5846C122.807 22.8277 124.257 21.699 122.237 22.2141C121.578 22.3824 120.867 21.234 120.125 22.2771C119.934 22.5448 119.709 21.9987 119.658 21.8347C119.253 20.5253 118.037 20.1401 117.107 20.4097C115.981 20.7366 114.183 20.5109 114.089 22.546C114.066 23.045 113.632 23.5475 113.326 24.0073C112.868 24.6942 112.161 25.1486 112.802 26.2672C113.114 26.8133 112.699 28.0319 111.441 28.026C110.202 28.0206 109.606 28.6529 110.008 29.8421C110.259 30.5835 109.816 30.2836 109.531 30.5196C108.425 31.433 106.478 30.6207 105.847 32.4835C105.537 33.4002 105.248 33.8756 106.636 33.5649C105.124 34.5074 103.591 35.4181 102.106 36.4034C101.16 37.031 100.36 36.7352 99.5977 36.1487C99.2263 35.863 99.0983 35.4539 98.4073 35.8044C97.7296 36.1475 96.9294 35.5784 96.5683 34.9859C95.9221 33.9273 94.8868 33.4048 93.9841 32.6803C92.9117 31.8175 91.9759 32.1446 91.5247 33.1725C90.4093 35.7167 88.3873 37.7242 87.4193 40.3269C87.0164 41.4103 85.2947 41.6692 85.6859 43.2042C85.2648 43.2909 84.8041 43.2954 84.4335 43.4804C83.5904 43.9013 82.7818 44.3949 81.9789 44.8901C81.247 45.3404 80.6132 45.516 80.1745 44.2635C80.3856 45.839 79.651 46.0511 78.5008 45.9768C78.0835 45.949 77.5138 46.2631 77.4032 45.7384C77.3486 45.4812 77.6354 44.6972 78.3226 44.8193C78.8591 44.9145 79.3271 44.8965 79.12 44.2312C78.8891 43.4909 78.2894 44.0745 78.0237 44.1932C75.8545 45.1564 73.9967 44.8255 72.2947 43.1557C71.5828 42.4573 70.5872 42.5822 69.8798 43.1309C67.5438 44.9415 65.0989 46.9451 64.0286 49.5955C63.3263 51.3332 62.0788 52.5551 61.3371 54.1628C60.6885 55.5659 59.4038 56.564 58.8716 58.1475C58.407 59.5269 54.8471 60.3403 53.5923 59.3726C51.3376 57.6344 48.4142 56.7612 46.807 54.179C46.3643 53.468 45.8908 53.7679 45.4514 54.2132C44.6697 55.0073 43.8971 55.811 43.1068 56.5972C42.6983 57.0041 42.4462 57.5773 41.6243 57.422C40.7953 57.2661 40.7725 58.1416 40.5425 58.6532C40.4199 58.927 40.7871 59.5344 40.5031 59.5727C38.8509 59.7921 39.4183 61.4701 38.6498 62.2541C38.1423 62.7717 38.1732 62.7613 37.1017 62.9835C36.7894 63.0486 36.505 63.4598 36.2952 63.7709C34.7007 66.1431 32.7805 68.1246 30.3012 69.6419C29.2258 70.2991 28.4826 70.1751 27.8007 69.4704C26.4221 68.0459 24.565 67.4452 22.9623 66.4148C22.4036 66.0548 22.0315 66.0038 21.7397 66.7765C20.7925 69.2855 19.4307 71.5487 17.6177 73.5467C17.2388 73.964 17.6743 74.8605 17.0856 75.1843C15.7588 75.9148 14.3777 76.5538 12.9913 77.1688C12.6328 77.3282 12.3571 77.0845 12.4364 76.6249C12.521 76.1359 12.3306 75.8969 11.8133 75.8882C9.90681 75.8586 9.11499 74.5244 9.93503 72.6748C11.1265 69.9874 12.3636 67.3199 13.5582 64.6348C14.7508 61.956 15.9371 59.2731 17.0791 56.5725C17.4757 55.6361 17.9084 54.7197 18.5976 53.9905C19.3751 53.1695 20.6215 52.5898 21.4062 53.4307C22.8211 54.9478 24.9161 55.7306 25.9035 57.6555C26.5195 58.8574 26.9276 58.3117 27.483 57.5917C30.927 53.1197 34.5264 48.7938 39.2426 45.5645C39.335 45.5016 39.4187 45.4258 39.5116 45.3647C45.1461 41.6939 46.2832 42.9112 50.0719 47.3039C51.9208 49.4471 51.3716 49.9544 53.4313 47.14C55.5385 44.2597 57.2878 41.1174 59.6826 38.4469C61.6201 36.2867 63.5373 34.0899 66.7125 33.7235C69.0475 33.4541 71.0029 34.4625 72.8362 35.5999C75.8705 37.4827 78.052 36.2784 79.9799 33.7136C82.0739 30.9292 83.9155 27.956 85.9268 25.1071C88.2656 21.7924 90.1528 21.6425 93.4997 24.4478C94.2244 25.0554 94.8513 25.7923 95.6187 26.3347C97.426 27.6118 99.145 27.362 100.731 25.8454C102.229 24.4143 103.882 23.1482 105.187 21.5155C105.385 21.2676 105.499 20.6379 106.036 21.0541C106.397 21.3343 106.26 21.7716 106.16 22.1481C105.889 23.1757 105.884 23.174 107.172 24.1058Z" fill="#FFC729"/>
<path fill-rule="evenodd" clip-rule="evenodd" d="M105.368 51.7499C105.436 51.8976 105.505 52.0446 105.573 52.1921C107.068 51.7979 108.347 51.03 109.311 49.7133C107.997 50.3926 106.683 51.0712 105.368 51.7499ZM62.1697 76.2562C60.7434 76.8699 59.344 77.5911 58.2854 78.8376C59.8192 78.3811 61.1002 77.521 62.1697 76.2562ZM81.3212 69.1781C83.1312 69.0021 85.2954 67.6139 86.3922 66.123C84.6539 67.1702 82.9872 68.1742 81.3212 69.1781ZM87.9313 58.0168C88.6637 56.9966 90.0108 56.4402 90.3821 55.1041C89.4899 56.0068 87.6529 56.0818 87.9313 58.0168ZM29.9818 90.8777C31.8007 90.6247 32.9036 90.0983 33.3892 88.2631C32.1678 89.1757 30.9884 89.56 29.9818 90.8777ZM96.4736 51.8058C95.192 51.117 92.4931 52.7472 91.8327 54.6258C93.083 53.249 94.8921 52.7973 96.4736 51.8058ZM86.3882 58.1693C83.4242 60.6554 80.2708 62.7944 76.72 64.6064C78.9098 65.2492 85.4081 60.8746 86.3882 58.1693ZM63.8532 67.6865C60.1565 68.7541 57.8315 72.0796 54.3311 73.4776C53.959 73.6267 53.6292 74.051 53.8521 74.4156C54.1318 74.8736 54.6493 74.6764 55.0383 74.4494C56.6804 73.4929 58.2128 72.3199 59.8541 71.4184C61.5769 70.473 62.5822 69.004 63.8063 67.6592C65.9207 67.1571 67.4568 65.7135 69.2099 64.4832C67.5584 63.6535 65.1296 65.1695 63.8532 67.6865ZM111.365 57.981C108.412 59.7777 105.457 59.862 102.49 58.0073C101.753 57.5464 100.878 57.1979 100.119 57.6952C98.1453 58.9873 95.7718 59.4393 93.9067 61.0241C91.0414 63.4589 88.521 66.3033 85.3247 68.3464C84.1149 69.12 82.8892 69.8681 81.6476 70.6416C81.7072 71.3664 82.4084 70.6416 82.6527 71.0354C82.5075 71.1427 82.3803 71.3158 82.2426 71.3249C79.8979 71.4823 77.4189 72.387 75.3244 70.7336C74.5363 70.1109 73.5791 70.1641 72.8008 69.5909C72.5264 69.3895 71.4713 70.0138 70.9268 70.4523C67.8643 72.9188 64.8832 75.4867 61.7987 77.9261C60.7264 78.7736 59.454 79.3765 58.2453 80.0402C57.7305 80.3221 57.279 80.4789 56.6097 79.9734C56.0975 79.588 55.0683 78.7529 54.3829 80.0424C53.4757 79.4224 52.3054 80.6007 51.3421 79.3894C50.251 78.0168 49.0773 78.6149 47.6964 79.5782C45.7885 80.9089 45.3761 83.281 43.5569 84.5587C43.1823 84.8219 43.0494 85.2674 42.9958 85.7346C42.9575 86.0624 42.916 86.5995 42.7346 86.6677C41.0149 87.3153 41.6773 89.126 40.9311 90.2219C39.7419 91.9662 38.6063 93.7666 36.7096 94.875C36.119 95.2197 36.1467 95.235 36.0391 96.1586C36.021 96.3184 35.7686 96.4832 35.59 96.5875C34.3656 97.3053 33.7116 97.1416 31.8807 96.0367C31.5302 95.8249 30.852 96.1662 30.3229 96.2379C28.4908 96.4842 27.5451 94.7258 25.9996 94.3156C25.7144 94.2402 25.2232 93.7891 25.1914 94.1802C25.0597 95.8209 23.0449 96.3218 23.0197 98.0022C23.0109 98.5354 22.7433 99.0752 22.5404 99.5909C22.3181 100.156 22.0469 100.848 21.4225 100.916C20.8917 100.974 20.6569 100.306 20.5354 99.8343C20.2903 98.8863 18.9359 99.453 18.6964 98.225C18.4218 96.8179 18.5746 95.4844 18.983 94.277C19.9872 91.3083 19.9372 88.2485 20.1289 85.2079C20.1842 84.335 20.2779 83.7071 21.2083 83.4025C22.0809 83.1169 22.5955 83.3392 23.3858 83.9186C24.9411 85.0576 25.9959 86.5351 27.0764 88.0298C27.6786 88.8628 28.4451 89.025 29.2761 88.6252C31.2638 87.6716 33.0845 86.5298 33.8826 84.2719C35.3482 80.1221 38.354 77.0555 41.1871 73.8476C41.8554 73.091 42.3841 72.1247 42.9738 71.2533C43.6527 70.2491 44.6049 69.6007 45.7329 69.2637C46.9274 68.9065 47.7977 69.3894 48.6371 70.3416C50.9325 72.9443 52.3772 73.0098 55.1974 70.9385C58.2198 68.7188 61.1743 66.3863 64.3414 64.3927C65.8041 63.4726 67.0317 62.1638 68.7963 61.6473C70.29 61.21 71.6891 61.0345 72.8786 62.1106C74.1669 63.2749 75.4007 63.0147 76.7149 62.3131C80.2678 60.4157 83.5682 58.1478 86.5899 55.4885C88.8933 53.4613 91.2819 51.5337 93.8968 49.9436C95.862 48.7476 98.0667 48.1908 100.264 49.4228C102.1 50.4524 103.76 50.1182 105.494 49.1901C109.851 46.8575 113.65 43.7469 117.46 40.6571C121.907 37.0517 126.023 33.0469 130.674 29.6868C131.778 28.89 132.84 27.9802 134.411 28.187C134.223 29.3851 133.293 29.6909 132.567 30.1236C130.987 31.0657 129.545 32.1742 128.24 33.4609C128.074 33.6243 127.732 33.8951 128.022 34.147C128.344 34.4253 128.458 34.0736 128.719 33.8645C130.486 32.4405 131.937 30.5327 134.323 30.0097C134.914 29.8801 135.669 29.3036 135.637 30.6176C135.625 31.0899 136.156 30.8672 136.431 30.9736C136.698 31.0777 137.126 31.277 136.991 31.4523C136.462 32.1364 136.79 33.2368 136.222 33.6729C133.976 35.3984 131.901 37.3744 130.128 39.4889C128.144 41.8564 125.298 43.5262 124.142 46.5807C122.14 46.9998 122.306 49.688 120.167 50.2007C118.779 50.5331 118.204 52.3241 117.373 53.4495C115.758 55.6395 113.562 56.7827 111.336 57.996C112.192 56.5787 113.935 56.1801 114.891 54.8661C113.166 56.1283 111.222 57.0005 109.377 58.1215C110.136 58.5553 110.652 57.2528 111.365 57.981Z" fill="#FFC729"/>
<path fill-rule="evenodd" clip-rule="evenodd" d="M77.2577 102.905C75.7972 102.061 75.7972 102.061 74.8307 103.876C75.7003 103.528 76.4204 103.24 77.2577 102.905ZM63.1335 95.2285C62.7729 95.7918 62.4009 96.2226 62.8358 96.7655C63.2756 97.3148 63.8951 97.4363 65.0542 97.2105C63.7635 96.8791 63.7032 95.9633 63.1335 95.2285ZM137.785 66.7995C136.377 67.2006 135.366 68.1803 134.259 69.0069C135.36 68.1584 137.433 69.0727 137.785 66.7995ZM129.771 75.606C129.805 75.6876 129.84 75.7686 129.875 75.8501C131.406 75.2159 132.939 74.5875 134.463 73.937C134.557 73.8964 134.659 73.6417 134.617 73.5544C134.48 73.2683 134.161 73.1759 133.915 73.3077C132.523 74.0541 131.15 74.8361 129.771 75.606ZM136.772 76.1457C134.679 77.2429 132.441 78.0289 130.302 79.0302C132.805 78.8124 134.782 77.4634 136.772 76.1457ZM75.4906 96.0198C74.535 96.4186 73.5638 96.786 72.636 97.2396C72.3842 97.3627 71.7179 97.0565 71.9003 97.7967C72.0351 98.3423 72.402 98.3813 72.8921 98.4095C74.4571 98.4976 74.8411 97.1497 75.4906 96.0198ZM113.944 71.8448C115.449 72.6192 116.67 71.5174 118.011 71.1622C118.324 71.079 118.421 70.8114 118.361 70.5132C118.312 70.2774 118.082 70.0632 117.9 70.203C116.718 71.1148 114.838 70.3044 113.944 71.8448ZM131.926 70.5165C131.428 70.512 126.593 71.9444 126.181 72.2132C125.993 72.3356 125.761 72.4668 125.899 72.7189C125.994 72.8942 126.185 73.0866 126.368 73.1345C127.672 73.472 131.111 71.8352 131.926 70.5165ZM101.123 92.0602C101.853 92.1847 102.513 91.4208 103.272 92.0961C102.613 92.8776 101.76 93.2119 100.833 93.3314C100.33 93.3966 99.8616 93.4465 99.4244 93.7415C98.3865 94.4426 97.5242 94.6839 97.0724 93.0559C96.8662 92.3126 93.7654 91.6544 92.9294 92.0618C91.8885 92.5681 90.5088 92.8887 89.8437 93.5476C88.058 95.3152 85.6099 96.5256 84.6478 99.0616C84.4623 99.5521 84.014 99.6118 83.6715 99.8663C82.408 100.804 80.569 101.068 80.1801 103.065C80.027 103.846 79.487 102.489 78.8455 103.046C78.1243 103.672 77.0842 103.961 76.1498 104.306C73.8615 105.151 72.3824 104.897 71.3656 102.798C70.7035 101.43 70.269 102.117 69.5657 102.515C69.6633 101.732 70.1558 100.857 68.7437 101.136C67.8211 101.318 67.5025 100.295 66.907 99.8561C66.4894 99.5486 67.1888 99.566 67.3951 99.4165C67.7537 99.1577 68.1746 98.8633 68.1125 98.3017C67.5978 98.377 67.4815 97.3128 66.725 97.8871C66.2491 98.2482 65.5821 98.0881 64.909 97.8156C65.7325 98.9511 64.9029 100.057 65.0887 101.181C65.2263 102.019 65.1155 102.931 65.5746 103.706C65.8884 104.235 65.5267 104.622 65.2621 104.352C64.4788 103.551 63.1046 103.727 62.5692 102.566C62.359 102.111 62.6033 101.967 62.8353 101.753C63.0734 101.534 63.9549 101.565 63.5339 101.184C62.7151 100.447 62.7269 99.4827 62.3678 98.6258C61.5647 99.9368 61.3708 98.1336 60.7259 98.2567C60.5738 98.2857 60.1223 97.2655 60.8151 97.0821C62.6079 96.6062 62.0555 95.2409 61.7118 94.3517C61.1748 92.9637 61.7074 92.0977 62.5391 91.1746C63.2155 91.322 62.6755 92.6494 63.7455 92.4264C64.613 92.2455 64.2881 91.4296 64.5617 90.9347C64.7095 90.6648 64.9273 90.3062 64.5809 90.0258C64.239 89.7499 63.9303 90.0676 63.678 90.219C62.3312 91.0251 62.0743 89.5941 62.275 89.1988C62.9185 87.9328 62.933 86.4179 63.8705 85.297C64.8653 84.1087 65.805 84.2241 66.4642 85.5952C66.5323 85.7365 66.6638 85.877 66.802 85.9513C69.7886 87.5693 70.0992 90.6106 70.7066 93.4418C71.226 95.8613 71.3373 95.9372 73.5426 94.7175C76.1116 93.2968 78.1793 91.2538 80.3707 89.3694C82.8935 87.1986 85.3275 84.9131 88.2185 83.2283C90.5129 81.8918 92.871 81.674 95.1127 83.3693C96.2851 84.2551 97.2576 84.1225 98.4107 83.263C102.251 80.3999 105.514 76.9251 108.857 73.5404C110.503 71.8749 112.355 70.4322 114.217 69.0942C116.399 67.5273 119.09 67.445 121.433 68.9367C123.616 70.3275 125.639 70.2391 127.896 69.2563C134.217 66.5005 139.889 62.6609 145.536 58.7854C151.362 54.7875 156.994 50.5228 162.544 46.1506C162.848 45.9113 163.186 45.6862 163.545 45.5546C164.123 45.3415 164.878 45.1124 165.239 45.6852C165.526 46.1417 164.786 46.4727 164.519 46.8708C164.264 47.2497 163.429 47.4746 163.854 48.0178C164.304 48.5941 164.818 47.8889 165.308 47.7302C165.976 47.5153 167.297 46.2104 166.679 48.4635C166.649 48.5717 166.755 48.7752 166.86 48.855C168.83 50.3646 168.543 52.2314 166.452 53.7978C165.001 54.8846 163.616 56.1601 162.373 57.4744C159.939 60.044 157.153 62.1966 154.525 64.5237C149.934 68.5903 145.124 72.4118 139.998 75.8074C137.007 77.7894 133.799 79.3022 130.299 80.1444C129.739 80.2794 129.219 80.4134 128.874 80.9618C129.413 81.2792 129.985 81.3368 130.579 81.2931C129.616 81.3677 128.638 81.6744 127.735 80.9717C127.356 80.6778 126.962 80.8228 126.513 80.8706C125.907 80.9347 124.844 81.1457 125.077 79.8354C125.094 79.7376 125.059 79.6298 125.048 79.5265C123.807 80.2361 123.819 78.4645 122.979 78.4714C121.913 78.4807 120.984 78.1629 120.083 77.6215C119.41 77.2177 118.674 77.4416 118.036 77.7267C117.475 77.9773 116.988 79.0754 116.481 77.6828C116.473 77.6598 116.06 77.72 115.895 77.8306C115.595 78.0328 115.684 78.3659 115.876 78.5566C116.427 79.101 116.471 79.7445 115.867 80.1056C114.909 80.6797 114.588 81.9774 113.416 82.2136C112.806 82.3367 112.899 81.4515 112.315 81.2406C112.173 82.1802 110.766 82.7178 111.65 83.9304C111.682 83.9746 111.582 84.2039 111.521 84.215C110.452 84.4046 110.479 84.974 110.487 85.9741C110.496 87.0391 109.14 87.4648 108.322 88.1095C108.194 88.2096 107.964 88.3635 107.984 88.4442C108.51 90.6363 106.316 89.7105 105.612 90.4954C105.397 90.7346 105.088 90.5077 104.793 90.2449C103.606 89.1859 102.864 89.3771 102.221 90.6984C101.979 91.1969 101.514 91.5872 101.123 92.0602Z" fill="#FFC729"/>
</svg>
