<svg width="153" height="123" fill="none" xmlns="http://www.w3.org/2000/svg"><path fill-rule="evenodd" clip-rule="evenodd" d="M134.235 101.895c1.623-3.536 3.247-7.41 5.186-11.119.677-1.297 1.744-2.279.766-3.782-.202-.309-.485-.78-.756-.794-4.587-.227-8.603-2.436-12.935-3.524-2.902-.728-5.873-.931-8.723.403-.569.267-.941.976-1.403 1.481.499.435.927 1.076 1.509 1.27a440.045 440.045 0 0012.746 4.062c1.34.403 1.291.992.83 2.135-1.061 2.636-1.916 5.354-2.947 8.003-.44 1.132-1.106 2.178-1.681 3.258-.048.09-.243.115-.27.201-.289.89-1.015 2.352-.744 2.573.78.639 1.958 1.062 2.987 1.06 3.182-.007 3.852-2.928 5.435-5.227z" fill="#FFC729"/><path fill-rule="evenodd" clip-rule="evenodd" d="M76.204 85.969l-.427.325-2.805-4.565.527-.33 2.705 4.57zm-30.19-20.995l-.354.226-5.137-6.754.488-.375 5.003 6.903zm29.275-1.2c1.275-1.523 2.522-3.07 3.836-4.558.811-.92 1.628-.822 2.547.001 2.878 2.581 3.652 6.891 1.955 10.576-1.85 4.016-5.377 5.144-9.246 5.682-.303.043-.928-.68-1.031-1.136-.852-3.76.22-7.178 1.939-10.566zm-18.143 7.124c-9.22-4.776-14.855-12.536-18.425-22.115-4.064-10.906-5.572-22.276-5.97-33.865-.121-3.51-.152-7.026-.357-10.53-.055-.94-.384-2.051-.992-2.696-.42-.444-1.538-.22-2.344-.295-.018.495-.06.993-.05 1.487.027 1.331.187 2.668.096 3.991-.292 4.307-.746 8.604-.994 12.91a86.52 86.52 0 00-.084 8.725c.08 1.832.668 3.63.862 5.463.308 2.905.205 5.885.769 8.728.875 4.427 1.78 8.917 3.355 13.113 3.481 9.278 9.582 16.297 18.613 20.676 4.202 2.038 8.278 4.218 13.013 4.794.518.062 1.146.78 1.37 1.341 2.254 5.645 6.012 10.064 11.01 13.318 3.74 2.436 7.539 4.993 11.673 6.547 3.467 1.305 7.441 1.542 11.22 1.692 3.359.131 6.789-.298 10.131-.851 4.761-.788 9.037-2.92 12.799-5.978.54-.44.748-1.698.607-2.48-.157-.87-1.023-.984-2.032-1.073-3.16-.28-5.525 1.526-8.057 2.81-4.796 2.436-9.823 2.634-14.78 1.45-8.455-2.019-15.196-6.987-20.765-13.528-3.008-3.534-2.882-3.67 1.443-4.87 5.691-1.578 10.155-4.778 12.83-10.162 3.103-6.249.539-13.323-5.702-16.26-1.96-.922-3.898-.479-5.806.027-4.333 1.15-7.816 3.672-10.542 7.226-2.82 3.675-5.163 7.58-5.41 12.395-.06 1.162-.719 1.313-1.69.823-1.916-.966-3.86-1.878-5.791-2.813z" fill="#FFC729"/></svg>