<svg width="237" height="180" fill="none" xmlns="http://www.w3.org/2000/svg"><path d="M218.879 69.588l-3.599-27.703c-13.934 31.149-27.565 62.436-41.259 93.691-6.295 14.369-15.423 42.617-34.84 44.344-15.562 1.385-24.516-15.612-30.501-27.182-6.197-11.978-11.453-24.432-17.238-36.61-3.216-6.771-15.196-39.095-24.972-37.5-7.174 1.171-12.43 24.378-13.959 29.783-3.7 13.069-4.73 27.239-9.522 39.948-10.081 26.738-38.584 28.269-59.536 12.703-9.218-6.849 2.041-18.036 10.197-11.977 6.546 4.863 16.467 10.05 24.349 5.86 10.925-5.805 11.267-25.037 13.671-35.55 2.29-10.016 4.777-20.124 8.468-29.727 4.402-11.452 11.496-25.676 25.47-26.403 16.977-.884 27.463 18.633 34.132 31.207 10.798 20.362 17.925 43.249 30.662 62.522 7.497 11.345 10.326 5.73 16.394-4.552 7.53-12.765 12.608-27.151 18.529-40.719C176.51 86.097 187.8 60.51 199.239 34.996l-22.304 17.562c-7.811 6.15-19.735-6.357-11.127-13.135 16.062-12.648 32.124-25.293 48.184-37.94 4.697-3.698 13.38-.005 14.141 5.858 2.634 20.275 5.269 40.551 7.902 60.83 1.411 10.857-15.872 11.293-17.155 1.417h-.001z" fill="#01BE83"/></svg>