<svg width="60" height="60" fill="none" xmlns="http://www.w3.org/2000/svg"><path d="M.711 14.66A15.1 15.1 0 0114.66.71C19.707.33 25.39 0 30 0c4.61 0 10.293.329 15.34.711A15.1 15.1 0 0159.29 14.66c.38 5.047.71 10.73.71 15.34 0 4.61-.329 10.293-.711 15.34A15.1 15.1 0 0145.34 59.29c-5.047.38-10.73.71-15.34.71-4.61 0-10.293-.329-15.34-.711A15.1 15.1 0 01.71 45.34C.33 40.293 0 34.61 0 30c0-4.61.329-10.293.711-15.34z" fill="#01BE83"/><path d="M44.243 30c0 1.518-.243 2.976-.699 4.373l-6.134-2.915A7.4 7.4 0 0037.562 30c0-3.492-2.4-6.408-5.618-7.228V16c6.924.88 12.3 6.833 12.3 14h-.001zm-15.944-7.228V16C21.375 16.88 16 22.833 16 30s5.375 13.12 12.3 14v-6.772c-3.22-.82-5.62-3.736-5.62-7.228 0-3.492 2.4-6.408 5.62-7.228zm7.562 11.965c-1.002 1.185-2.369 2.096-3.917 2.46v6.773c4.221-.547 7.835-2.946 10.052-6.347l-6.135-2.886z" fill="#fff"/></svg>