<svg width="60" height="60" fill="none" xmlns="http://www.w3.org/2000/svg"><path d="M.711 14.66A15.1 15.1 0 0114.66.71C19.707.33 25.39 0 30 0c4.61 0 10.293.329 15.34.711A15.1 15.1 0 0159.29 14.66c.38 5.047.71 10.73.71 15.34 0 4.61-.329 10.293-.711 15.34A15.1 15.1 0 0145.34 59.29c-5.047.38-10.73.71-15.34.71-4.61 0-10.293-.329-15.34-.711A15.1 15.1 0 01.71 45.34C.33 40.293 0 34.61 0 30c0-4.61.329-10.293.711-15.34z" fill="#FFC729"/><path d="M22.156 27.575a4.42 4.42 0 014.419-4.419c1.912 0 3.561 1.253 4.155 2.968l5.375-5.375-2.572-2.572a.776.776 0 00-1.089 0l-1.253 1.253a9.138 9.138 0 00-2.11-.858v-1.78a.781.781 0 00-.792-.792H24.86a.762.762 0 00-.791.791v1.781a9.134 9.134 0 00-2.111.857l-1.253-1.253a.776.776 0 00-1.088 0l-2.408 2.408a.776.776 0 000 1.088l1.254 1.253a9.139 9.139 0 00-.858 2.11h-1.814a.781.781 0 00-.791.792v3.397c0 .461.33.791.791.791h1.781c.198.758.495 1.451.857 2.11l-1.253 1.254c-.33.297-.296.791 0 1.088l2.572 2.572 5.376-5.375c-1.748-.528-2.968-2.177-2.968-4.09zm2.827 8.784l11.752-11.752 5.06 5.06-11.752 11.752-5.06-5.06zM45.998 23.98l-3.529-3.56a1.056 1.056 0 00-1.517 0l-2.308 2.307 5.078 5.079 2.309-2.309c.395-.428.395-1.12-.033-1.516zM21.793 39.578c-.132.132-.23.33-.297.528l-1.055 4.584c-.165.758.528 1.45 1.286 1.286l4.584-1.056c.198-.033.363-.132.527-.296l1.32-1.32-5.046-5.045-1.319 1.32z" fill="#fff"/></svg>