<svg width="87" height="130" fill="none" xmlns="http://www.w3.org/2000/svg"><path fill-rule="evenodd" clip-rule="evenodd" d="M33.805 27.714l-.084-.605-15.287 1.74.104.758 15.267-1.893zM6.02 65.038c-3.15-1.516-4.519-3.47-5.164-6.133-3.573-14.79 3.922-33.005 24.747-33.617 9.885-.29 17.737-3.857 22.435-13.377 1.636-3.314 3.697-6.465 5.953-9.372C55.018 1.215 56.953.116 58.55.001c.762-.055 2.27 2.35 2.431 3.765.268 2.348.405 5.164-.605 7.132-2.976 5.796-6.18 11.551-9.985 16.792-3.523 4.853-8.628 7.178-14.623 8.635-6.012 1.46-12.126.242-18.105 2.403C12.1 40.738 5.625 50.59 5.995 56.832c.15 2.524.025 5.066.025 8.206zm15.174 17.385c-.152-2.007-.826-4.138-.37-6.003 2.205-9.024 14.804-15.917 23.26-11.906 11.516 5.462 19.935 1.212 28.13-6.303 2.775-2.545 6.002-4.694 9.293-6.563.928-.528 3.682.174 4.074 1.008.856 1.813 1.754 5.074.835 5.987-5.427 5.395-10.874 11.034-17.275 15.143-6.907 4.435-14.899 5.95-22.999 1.742-3.602-1.872-7.232-3.788-11.725-2.65-4.847 1.229-8.383 3.86-10.824 8.074-.309.535-.724 1.01-1.09 1.514l-1.309-.043zm54.965 38.662l-.114-.735h-23.4l-.009.735h23.523zm-55.491-10.088l.257-5.712c2.588 3.923 5.125.394 7.434.248h-3.73c-.88-1.7 4.127-.972.397-3.46 4.713-.8 8.984-2.305 12.4 1.269 1.482 1.553 4.552 2.459 4.378 6.25.132.099 1.343.59 1.905 1.485 4.52 7.217 11.57 7.802 19.024 7.455 4.057-.19 8.157-.782 12.159-.388 3.041.3 6.063 1.637 8.898 2.936 2.723 1.248 2.95 4.221 3.013 6.725.018.742-2.303 2.273-3.464 2.192-7.567-.523-15.109-1.391-22.718-1.899l5.04-.336c.02-.179.036-.359.055-.537-.764-.117-1.568-.119-2.28-.374-1.277-.454-2.547-.968-3.725-1.626-1.298-.725-2.489-1.642-4.01-1.851l1.437 2.906c-1.54.436-2.39.804-3.266.886-.87.081-2.028.198-2.61-.264-2.58-2.054-5.684-3.198-7.424-6.655-2.17-4.316-5.641-7.989-8.62-11.886-.415-.543-1.253-1.137-1.86-1.102-3.349.192-6.706.454-10.015.974-.763.119-1.352 1.346-2.675 2.764z" fill="#325AFE"/></svg>