<svg width="285" height="180" fill="none" xmlns="http://www.w3.org/2000/svg"><path fill-rule="evenodd" clip-rule="evenodd" d="M240.212 2.552l.073.284h14.598l-.02-.284h-14.651zM97.859 116.278c4.899-4.824 10.261-9.284 12.859-15.921-4.286 5.308-8.572 10.614-12.86 15.921zm25.124-54.976c0-.946.077-1.9-.012-2.838-1.42-15.12-13.803-19.025-24.862-15.945-3.606 1.004-6.644 2.962-9.548 5.098-2.588 1.902-5.163 4.008-7.164 6.491-4.991 6.2-7.838 13.505-9.366 21.247-2.126 10.772-2.557 21.541 1.522 32.039 2.39 6.143 5.904 11.418 11.697 14.967 1.666 1.02 2.74.728 4.026-.51 9.447-9.089 18.134-18.792 24.56-30.32 5.246-9.407 9.053-19.264 9.147-30.229zm86.456-52.515l23.222-5.368c-6.066.898-12.102 2.052-18.094 3.4-1.756.394-3.391 1.335-5.085 2.02-3.604-.071-6.335 2.025-9.158 3.885l9.115-3.937zM82.982 127.394c-9.548-6.003-15.466-14.383-18.203-24.69-5.233-19.706-2.209-38.163 10.372-54.457 5.908-7.652 14.035-12.437 23.716-13.864 8.173-1.204 15.319 1.52 21.362 7.039 6.011 5.488 9.889 12.335 10.54 20.415.556 6.924-.057 13.956-2.713 20.54-2.125 5.266-4.309 10.532-6.908 15.571-1.566 3.036-3.889 5.707-6.027 8.42-5.025 6.372-10.142 12.67-15.144 19.546 1.873-.535 3.826-.885 5.604-1.644 5.739-2.45 10.331-6.495 14.435-11.072 9.887-11.028 16.487-24.073 22.723-37.341 5.423-11.54 10.942-23.034 18.369-33.48 14.548-20.46 33.995-33.499 58.553-38.979C234.703.042 249.928.614 265.155.676c5.732.022 11.466-.442 17.199-.675.313-.012.632.082 1.299.175l-1.252 1.174 2.472 2.012c-.711.846-1.264 2.007-2.172 2.463-1.345.676-2.922 1.065-4.434 1.202-4.152.374-8.324.514-12.484.82-4.75.351-9.492.81-14.243 1.155-1.154.085-2.341-.223-3.488-.11-5.493.534-11.017.908-16.452 1.812-4.879.812-9.616 2.466-14.491 3.323-3.714.652-7.126 1.96-10.52 3.44-8.168 3.561-15.952 7.588-22.692 13.705-9.453 8.579-16.977 18.637-23.53 29.388-3.905 6.407-6.417 13.65-9.79 20.4-3.485 6.969-7.199 13.826-10.922 20.673-1.876 3.451-3.691 7.003-6.076 10.09-3.044 3.941-6.535 7.555-10.027 11.12-2.267 2.311-4.67 4.611-7.38 6.339-6.288 4.014-13.216 5.232-20.483 3.209-2.218-.617-3.8-.411-5.596 1.164-13.292 11.657-28.12 20.978-44.247 28.153-9.622 4.282-19.275 8.613-29.23 11.992-12.84 4.358-26.156 6.788-39.835 6.218-2.212-.092-4.457-.522-6.578-1.16-.882-.266-1.477-1.486-2.203-2.271.796-.532 1.547-1.41 2.398-1.52 1.45-.187 2.966.089 4.45.205 1.004.079 2.015.385 2.999.305 10.608-.877 20.964-3.107 31.041-6.444 26.253-8.696 50.306-21.453 71.518-39.34.78-.659 1.526-1.36 2.576-2.299z" fill="#FFC729"/></svg>