<svg width="60" height="60" fill="none" xmlns="http://www.w3.org/2000/svg"><path d="M.711 14.66A15.1 15.1 0 0114.66.71C19.707.33 25.39 0 30 0c4.61 0 10.293.329 15.34.711A15.1 15.1 0 0159.29 14.66c.38 5.047.71 10.73.71 15.34 0 4.61-.329 10.293-.711 15.34A15.1 15.1 0 0145.34 59.29c-5.047.38-10.73.71-15.34.71-4.61 0-10.293-.329-15.34-.711A15.1 15.1 0 01.71 45.34C.33 40.293 0 34.61 0 30c0-4.61.329-10.293.711-15.34z" fill="#325AFE"/><path d="M29.953 15c-.329 0-.698.353-.698.698v2.093a.725.725 0 00.698.707.725.725 0 00.698-.707v-2.093c0-.396-.369-.698-.698-.698zm9.419 4.164a.654.654 0 00-.087.011.704.704 0 00-.404.207l-1.395 1.396a.725.725 0 00-.015.996c.26.263.738.26.996-.004l1.395-1.395a.716.716 0 00.173-.775.716.716 0 00-.663-.436zm-18.914.011a.715.715 0 00-.592.467.714.714 0 00.178.733l1.395 1.395a.726.726 0 00.997.004.725.725 0 00-.016-.996l-1.395-1.395a.708.708 0 00-.567-.208zm9.496 2.104c-3.9 0-7.675 3.18-7.675 7.675 0 5.484 3.7 6.294 4.143 9.767h7.064c.442-3.472 4.142-4.283 4.142-9.767 0-4.496-3.775-7.675-7.674-7.675zm10.116 8.023c0 .33.33.698.698.698h2.441c.37.005.698-.329.698-.698 0-.368-.329-.702-.697-.697h-2.442c-.402 0-.698.369-.698.697zm-24.07 0c0 .33.332.698.698.698h2.093a.725.725 0 00.707-.698.725.725 0 00-.707-.697h-2.093c-.402 0-.698.369-.698.697zm6.366 6.781a.705.705 0 00-.48.218l-1.798 1.788a.725.725 0 00-.015.996c.26.263.738.26.996-.004l1.799-1.799a.716.716 0 00.159-.77.716.716 0 00-.66-.43v.001zm15.088 0a.715.715 0 00-.592.467.714.714 0 00.177.732l1.799 1.799a.726.726 0 00.996.004.725.725 0 00-.015-.996L38.021 36.3a.707.707 0 00-.567-.218zm-10.989 4.033v3.489c0 .802.66 1.395 1.395 1.395h4.187c.736 0 1.395-.594 1.395-1.395v-3.489h-6.977z" fill="#fff"/></svg>