<svg width="135" height="62" fill="none" xmlns="http://www.w3.org/2000/svg"><path fill-rule="evenodd" clip-rule="evenodd" d="M141.562 4.836c-2.252.055-4.475-.519-6.738-.316-.358.031-.996-.088-1.064-.288-.674-1.984-2.924-1.746-4.186-3.03-1.118-1.136-1.216-2.035-.679-3.183 2.082-4.443 3.912-8.986 5.611-13.586.448-1.21.887-2.43 1.215-3.677.314-1.194 1.339-1.576 2.234-1.906.972-.358 1.087.818 1.603 1.32 2.423 2.36 2.494 5.556 3.202 8.53.913 3.834 1.735 7.694 2.771 11.496.863 3.166-.15 5.147-3.969 4.64zm-28.515 50.326c-2.188-.248-3.942-1.442-5.475-2.88-.554-.521-.495-1.582-.09-2.4 1.358-2.744 1.888-5.79 3.304-8.563.669-1.31.949-3.133 1.441-4.706.345-1.108.9-2.332 2.231-2.434 1.327-.102 2.028 1.115 2.588 2.06 1.433 2.421 1.912 5.204 2.479 7.908.619 2.958 1.016 5.965 1.452 8.96.173 1.196-.629 1.953-.512 3.037.063.578-.67.662-1.366.466-1.995-.56-4.032-.975-6.052-1.448zM80.353 38.217c-1.34.282-2.605.684-4.016.406-2.08-.41-4.414-3.518-3.755-5.454 1.462-4.297 2.343-8.75 3.67-13.08.302-.986.514-2.09 1.822-2.25 1.314-.16 1.844.862 2.294 1.767 2.262 4.537 3.75 9.371 5.237 14.195.44 1.425-.062 2.553-1.515 3.372-1.218.688-2.645.208-3.737 1.044zM34.538 20.48c-.012-1.407.446-2.702 1.127-3.881 1.724-2.987 2.956-6.189 4.243-9.368 1.043-2.58 1.272-2.379 3.438-.998 2.255 1.438 2.82 3.572 3.56 5.714.803 2.325 1.49 4.7 2.062 7.092.522 2.18.08 2.628-2.007 3.346-1.927.662-3.7 1.715-5.823 1.854-1.014.066-1.472-.254-1.775-1.13-.275-.79-.873-.734-1.516-.467-1.74.722-3.313-.308-3.31-2.163zM48.45 61.998c-2.388-.26-4.46-.375-6.492-.73-3.341-.583-4.76-3.055-4.045-6.42.714-3.353 1.384-6.704 2.71-9.887 1.077-2.585 2.34-2.92 4.21-.921.823.88 1.52 1.964 1.98 3.077 1.576 3.817 3.242 7.612 4.053 11.699.44 2.215-.433 3.237-2.415 3.182zM0 5.842C.45 1.36 1.892-2.862 3.429-7.036c.657-1.783 1.53-1.816 3.055-.625 1.36 1.062 2.111 2.495 2.363 4.11.6 3.831 1.088 7.682 1.548 11.534.193 1.625-.83 2.457-2.463 2.794-2.605.536-4.679-.496-6.704-1.825C.115 8.222.135 6.991 0 5.842zM75.183 4.08c-.704-.058-1.515-.371-1.82-.105-1.073.938-2.379.295-3.559.724-1.26.458-3.178-2.643-3.026-4.19.224-2.295 2.208-3.747 2.528-6.05.318-2.274 1.227-4.468 1.914-6.685.2-.647.628-1.117 1.395-1.157.82-.044 1.254.326 1.628 1.067 2.07 4.108 3.172 8.57 4.752 12.856.873 2.367-1.3 3.2-3.812 3.54zm36.794 9.86c.543 2.408-2.111 3.717-3.865 3.274-.816-.208-1.478-.48-2.467-.012-1.214.574-3.053 1.275-3.367-1.286-.025-.203-.552-.308-.776-.528-1.39-1.366-1.434-3.327-.16-4.881.285-.347.574-.733.715-1.15.962-2.847 3.077-5.24 3.288-8.386.054-.815.357-1.575 1.287-1.722.934-.148 1.386.521 1.766 1.242.181.344.484.643.588 1.004 1.192 4.102 2.257 8.235 2.991 12.445z" fill="#fff"/></svg>