<svg width="103" height="77" fill="none" xmlns="http://www.w3.org/2000/svg"><path fill-rule="evenodd" clip-rule="evenodd" d="M98.562 82.836c-2.252.055-4.475-.519-6.738-.316-.358.032-.995-.088-1.064-.288-.674-1.984-2.924-1.746-4.186-3.03-1.118-1.136-1.216-2.035-.679-3.183 2.082-4.443 3.912-8.987 5.611-13.586.448-1.21.887-2.43 1.215-3.676.314-1.195 1.34-1.577 2.234-1.907.972-.358 1.087.818 1.603 1.32 2.423 2.36 2.494 5.556 3.201 8.53.914 3.834 1.736 7.694 2.772 11.496.863 3.166-.15 5.147-3.969 4.64zm-24.66-62.198c.069 1.631-.976 2.767-2.804 2.982-2.546.298-5.09.643-7.645.818-2.333.16-3.557-1.746-4.72-3.236-.801-1.025-.255-2.496.57-3.722 2.76-4.1 4.81-8.576 6.687-13.134.327-.794.67-1.526 1.697-1.658 1.112-.144 1.335.697 1.85 1.36 1.535 1.983 1.866 4.373 2.457 6.68.835 3.265 1.626 6.539 1.908 9.91zm-5.343 36.496c-.003 2.06.558 3.677-1.378 4.608-.46.22-.866.52-1.347.436-2.164-.377-4.276-.256-6.252.724-1.545.767-2.414.168-3.561-.961-2.203-2.168-2.256-3.04-.869-5.724 2.217-4.29 4.73-8.462 6.108-13.15.2-.681.42-1.373.754-1.994.691-1.284 1.943-1.308 2.898-.22 2.013 2.292 2.241 5.176 2.669 7.966.45 2.944.703 5.918.978 8.315zM39.85 37.12c.005 1.931-1.003 2.833-3.119 2.45-1.731-.314-3.454-.138-5.144-.126-2.087.016-3.46-.902-4.877-2.14-1.306-1.142-1.371-2.465-.624-3.82A77.793 77.793 0 0031.96 19.99c.597-1.826 1.834-1.937 3.123-.492a9.22 9.22 0 011.927 3.331c1.515 4.69 2.365 9.52 2.84 14.29zM5.369 54.447c-1.49-.071-2.772-.024-4.067-.243-3.084-.521-4.062-1.438-3.558-4.476.643-3.883 1.095-7.82 2.325-11.589.26-.794.537-1.625 1.01-2.298.83-1.18 1.873-1.535 3.073-.36 1.025 1.005 1.948 2.072 2.573 3.377 1.763 3.681 3.135 7.505 4.368 11.393.655 2.067-.796 3.968-2.822 4.043-1.035.037-2.068.108-2.902.153zm4.429-39.673c.212 3.758-1.463 5.458-5.237 6.19-1.978.383-3.388-.47-4.911-1.116-1.777-.754-2.442-2.1-1.922-4.225.67-2.732 1.854-5.24 2.841-7.83.807-2.12 1.591-4.239 2.289-6.396C3.413-.318 4.114-.257 5.532.529c2.453 1.358 2.945 3.624 3.312 5.968.43 2.741.645 5.517.954 8.277zM32.184 82.08c-.705-.058-1.516-.371-1.82-.105-1.074.938-2.38.294-3.56.724-1.26.459-3.178-2.643-3.026-4.19.225-2.295 2.208-3.747 2.528-6.05.317-2.274 1.227-4.468 1.914-6.685.2-.647.628-1.117 1.395-1.157.82-.044 1.254.326 1.628 1.067 2.07 4.108 3.172 8.57 4.752 12.856.873 2.366-1.3 3.2-3.811 3.54z" fill="#fff"/></svg>