<svg width="121" height="120" fill="none" xmlns="http://www.w3.org/2000/svg"><path fill-rule="evenodd" clip-rule="evenodd" d="M17.162 78.477c1.968.461 3.832.173 5.597-.843-1.937-.235-3.747.45-5.597.843zm15.645-19.095c.134 6.423-1.8 11.15-4.417 15.588-1.835 3.112-4.831 4.668-8.445 4.853-3.079.157-6.11-.083-9.045-1.199-2.214-.84-3.68-2.466-4.905-4.34-2.276-3.488-4.95-6.846-5.04-11.28-.116-5.537 1.024-10.745 4.681-15.116 1.549-1.851 3.386-3.093 6.056-2.677 2.65.413 3.719 3.64 3.699 5.573-.01.895-.756 1.345-1.197 1.87-2.006 2.391-2.415 5.384-3.36 8.175-.195.575.2.733.64.829 2.858.62 5.453.438 7.396-2.168 1.03-1.38 2.145-2.69 2.826-4.299.324-.765.34-1.466.055-2.281-.337-.966-1.018-2.154.68-2.682.347-.108.276-.404.113-.686-.712-1.237-.3-2.441 1.04-3.093 2.718-1.32 6.94 1.093 7.203 4.108.027.317.047.686.216.931 1.886 2.747 1.516 5.95 1.804 7.894zm37.334.701c-1.552-.243-3.062-.133-4.49.536 1.543.194 3.079.366 4.49-.536zm-8.557-30.87c-.649.562-1.551.284-1.935 1.088.507.387.972-.151 1.413-.056.616.135 1.879-.083.88 1.237-.074.097-.246.195-.037.298 1.73.854.435 1.953.163 2.882-.282.971-.717 1.902-.74 2.932-.032 1.44-.046 2.881-.027 4.32.024 1.768.298 1.995 2.05 1.828 3.022-.287 5.142-2.465 5.069-5.493-.06-2.482.433-4.858.992-7.227.288-1.221 1.054-2.2 2.41-2.433 1.598-.275 3.915.708 4.51 2.126 1.002 2.386 1.904 4.852 2.259 7.416.7 5.06.556 10.109-.862 15.07-.555 1.937-1.31 3.825-2.48 5.424-1.54 2.102-3.85 3.048-6.428 3.317-3.257.34-6.395.234-9.118-1.988-.596-.487-.973-1.123-1.379-1.685-2.674-3.7-5.877-7.177-6.511-11.946-.73-5.493.116-10.761 2.945-15.6.982-1.679 2.325-2.94 4.499-2.694.887.1 1.714.363 2.327 1.184zm-11.375 74.924c1.46.742 3.947.662 5.13-.112-1.705-.094-3.332-.218-5.13.112zm15.949-15.522c.14 4.717-1.215 9.451-4.385 13.612-1.317 1.73-3.11 2.813-5.209 3.281-3.604.805-7.11.467-10.466-1.155-1.952-.943-3.198-2.55-4.473-4.248-2.368-3.154-3.538-6.8-4.522-10.486-1.125-4.216-.33-8.28 1.614-12.201.667-1.348 1.125-2.705 2.51-3.512 1.055-.614 2.061-.348 3.074.021.243.09.62.378.6.53-.282 2.162 1.56 3.967 1 6.17-.217.854-.335 1.734-.471 2.607-.379 2.422.94 4.21 3.428 4.48 2.423.263 4.55-.476 6.044-2.46a14.629 14.629 0 002.587-5.492c.391-1.671 1.71-2.57 3.414-2.316 2.831.424 3.535 1.183 3.84 4.133.018.184.008.413.113.537 1.492 1.785 1.035 3.97 1.302 6.499zm38.987-50.157c.972.239 1.942.629 2.838-.095-.958-.096-1.915-.34-2.838.095zm-1.957-21.051c2.087.65.433 1.876.44 2.808.004.458-.526.976-.025 1.46.487.473 1.104.438 1.7.198 2.66-1.066 4.099-3.215 4.661-5.854.412-1.938 1.091-3.791 1.504-5.724.37-1.734 2.139-2.652 3.884-2.257 2.084.472 3.387 1.609 3.676 3.804.343 2.61 1.08 5.13 1.001 7.84-.181 6.302-1.965 11.962-5.877 16.925-3.65 4.63-10.645 4.831-14.402.255-1.218-1.484-2.347-3.187-2.568-5.256-.036-.34-.265-.678-.457-.984-3.21-5.092-2.878-10.345-.5-15.566 1.629-3.574 4.428-3.401 6.704-1.699.285.213.678.467.613.874-.084.523-.607.263-.927.372-.303.103-.724.117-.672.548.054.45.482.316.789.348.559.059 1.146.096 1.361.754.231.71-.574.712-.905 1.154zm-97.325 94.19c-.305.451-.113.852.342.897.714.07.271-.461.296-.764.034-.431.236-.157.45-.117.472.088.433-.351.24-.478-.32-.211-.764-.384-1.129-.341-.43.049-.313.472-.199.803zm-1.792 5.65c-1.09-.337-2.334.974-3.001-.731-.003.737-.436 1.829.421 1.785.783-.04 1.961.028 2.58-1.054zm6.572-3.973c.809.482.97-.514 1.824-.472-1.157.901-1.82 1.885-2.27 3.121-.298.817-1.538 1.315-2.328 1.702-2.802 1.372-5.82 2.285-8.982 2.374-.958.027-1.881-.573-2.887-.642a.619.619 0 01-.582-.666c.005-.097.178-.276.25-.265.577.093.983.045.698-.7-.128-.333-.081-.794-.525-.918-.779-.219-.167.886-.767.835-.572.486.175-1.901-.863-.374-.065-.052-.163-.091-.191-.159-.617-1.486-2.063-2.314-2.867-3.706-.766-1.326-1.75-2.526-2.328-3.984-1.738-4.376-2.289-8.882-1.418-13.513.453-2.409 1.982-3.39 4.188-2.961.755.146 1.34.524 1.64 1.168 1.137 2.437 2.85 4.705 1.96 7.713-.275.931.253 1.925.916 2.686.409.469.908.749 1.6.396 1.322-.675 2.636-1.321 3.571-2.555.668-.882 1.464-1.666 2.175-2.516.982-1.174 1.25-2.665 1.36-4.076.167-2.152 1.553-3.16 3.562-2.254.817.369 1.612.92 1.956 1.725.911 2.129 1.946 4.176 2.438 6.522.48 2.291.617 4.517.5 6.807-.05.996-.69 1.864-.601 2.907.016.193-.431.592-.685.611-.822.061-.873.793-1.344 1.194zM92.509 71.24c-.846.873-1.096.957-1.381.402-.386-.752-1.487-1.008-2.055-.463-.349.334-.342.769-.04 1.08.47.485 3.218-.299 3.476-1.018zm2.196 10.443c-.532-.502-1.407-.15-1.68-.494-.951-1.197-1.59.277-2.392.184-.141-.016-.68.504-.525.866.158.368.843.654 1.042.483 1.024-.878 2.414-.358 3.555-1.04zm-2.972-5.656c-.565-.008-1.224.01-1.315.782-.107.91.73.499 1.144.697.514.246.971-.24 1.397-.092.465.16.747.025.916-.318.245-.497-.214-.856-.419-1.23-.217-.393-.578-.099-.84.04-.268.143-.467.491-.883.12zm11.298-14.42c.726.308 1.339.687 1.451 1.423.087.572-.58.279-.902.652 1.539.036 1.234 1.389 1.071 1.95-.43 1.48.115 2.895-.058 4.341-.114.95-.333 1.913-.412 2.874-.081.997-.749-.377-1.267-.304-.272.296-.252.607.096.784.358.182.992.145.942.649-.061.612-.238 1.55-.637 1.725-1.075.469-.826 1.535-.76 2.028.142 1.066-.344.935-.909.775-.819-.232-1.31.03-1.474.823-.21 1.013-1.348.846-1.856 1.56-.5.698-1.28 1.192-1.212 2.238-1.406-.168-.756-1.407-1.314-2.158-.198 2.455-2.013 2.413-3.656 2.595-.546.062-1.164-.148-1.644.038-1.005.39-.932-.096-.677-1.013-.561 1.093-1.079 1.465-1.868.556-.286-.329-.76-.278-1.166-.37-.746-.167-.837-.34-.817-1.302.005-.27-.166-.243-.333-.32-1.713-.784-2.457-2.218-2.47-4.097-.006-.895.36-2.32-1.406-2.228-.243.013-.291-.172-.37-.339-1.621-3.45-1.093-6.767.73-9.94.842-1.465 2.997-2.194 4.634-1.618.536.188 1.11.698 1.338 1.208.227.507-.343.709-.862.776-.404.051-.28.398-.193.664.144.445.445.56.87.403 1.034-.384 1.267-.212 1.146 1.014-.089.898 1.191 1.255 1.907 1.742.486.33.744-.377.887-.783.104-.293.264-.512.5-.632 2.265-1.16 2.514-3.383 2.866-5.515.165-1 .19-2.078.383-3.024.196-.96.5-1.964.75-2.953.402-1.585 1.708-1.636 2.959-1.565.808.045 1.609.324 2.398.55.191.055.477.332.46.475-.151 1.247 1.309 2.138.71 3.538-.151.353.333 1.058.649 1.516.6.87.622.897-.484 1.264zM42.32 35.666c-1.133.513-1.93 1.093-2.406 2.043.777-.603 2.078-.603 2.407-2.043zM37.9 18.823c1.053-.196 1.568-.823 2.16-1.305 1.146-.934 2.083-.636 2.422.867.148.652.184 1.015 1.07 1.196.875.179 1.07 1.428 1.468 2.24 1.223 2.508 1.693 5.202 1.534 7.971-.211 3.694-2.049 6.465-5.071 8.525-1.385.945-2.81 1.5-4.556 1.295-.83-.097-1.31-.628-1.95-.946-2.203-1.094-4.478-2.041-6.535-3.434-2.212-1.497-4.788-7.105-3.709-10.078.691-1.905 1.857-3.054 3.794-3.457 1.114-.232 1.623.23 1.705 1.593.599-.42.889-.91 1.054-1.565.388-1.534.959-3 1.68-4.42.855-1.683 2.276-2.506 4.024-2.918.687-.162 1.372-.076 1.789.472.406.533.37 1.176.002 1.82-.34.595-.532 1.274-.882 2.144zm32.02-12.22c.866-1.962 1.258-3.988 2.786-5.419.234-.219.438-.505.714-.638.658-.318 1.494-.834 2.063-.343.494.426.412 1.326.162 2.058-.122.352-.571.835-.056 1.094.437.22.686-.346.965-.636.16-.168.28-.376.449-.534.314-.293.466-.929 1.058-.694.473.186.89.527.96 1.107.064.538.06 1.04.896.674.426-.185.725.368.956.68 2.552 3.45 3.08 7.02-.237 10.537-1.014 1.075-2.056 2.123-3.084 3.185-.565.584-1.25.576-1.936.333-.773-.274.06-.902-.285-1.404-.786 1.264-1.543 1.096-2.55.184-.623-.565-1.37-1.27-2.544-.798-.433.174-1.255-.306-1.76-.678-2.528-1.86-4.05-4.322-4.11-7.527-.023-1.271.394-2.398 1.68-2.97.246-.11.743-.236.762-.194.59 1.326 2.307.797 3.112 1.983z" fill="#fff"/></svg>